<svg width="101" height="88" viewBox="0 0 101 88" fill="none" xmlns="http://www.w3.org/2000/svg">
<path d="M4.26742 80.7188H2.4828V61.7834H4.26742V70.3128H4.97602L13.3218 61.7834H15.6182L6.51133 70.864L16.4317 80.7188H13.991L4.97602 71.7431H4.26742V80.7188ZM22.344 80.9681C18.6173 80.955 16.1241 78.2255 16.1241 73.8952V73.8689C16.1241 69.5386 18.6304 66.8223 22.344 66.8223C26.0445 66.8223 28.5639 69.5255 28.5639 73.8689V73.8952C28.5639 78.2386 26.0576 80.9681 22.344 80.9681ZM22.3571 79.4196C25.0209 79.4196 26.7924 77.3463 26.7924 73.8952V73.8689C26.7924 70.4178 25.0078 68.3707 22.344 68.3707C19.6802 68.3707 17.9087 70.4309 17.9087 73.8689V73.8952C17.9087 77.3595 19.6671 79.4065 22.3571 79.4196ZM32.1405 80.7188H30.3952V67.0716H32.5079L37.8093 78.4355H37.9011L43.2156 67.0716H45.2365V80.7188H43.5043V70.1422H43.4256L38.4916 80.4432H37.14L32.2061 70.1422H32.1405V80.7188ZM51.8048 80.9681C49.1148 80.9681 47.2777 79.354 47.2777 76.9395V76.9133C47.2777 74.5907 49.0361 73.1866 52.1723 72.9766L56.4239 72.7142V71.5332C56.4239 69.5649 55.1773 68.3707 53.0515 68.3707C51.07 68.3707 49.7709 69.3287 49.4822 70.8771L49.456 71.0083H47.7763L47.7894 70.8508C48.0519 68.502 49.994 66.8223 53.0777 66.8223C56.2008 66.8223 58.156 68.5807 58.156 71.3757V80.7188H56.4239V78.2255H56.3714C55.6234 79.8527 53.8257 80.9681 51.8048 80.9681ZM49.0492 76.9395C49.0492 78.4355 50.3089 79.4459 52.1592 79.4459C54.5474 79.4459 56.4239 77.7662 56.4239 75.588V74.0789L52.3822 74.3545C50.2433 74.4857 49.0492 75.4174 49.0492 76.9133V76.9395ZM69.8027 80.7188V74.3807H62.3362V80.7188H60.5909V67.0716H62.3362V72.9241H69.8027V67.0716H71.5348V80.7188H69.8027ZM74.3503 84.4586H72.7231V79.2622H73.8254C74.8489 78.5929 75.3344 76.7952 75.4788 74.7744L76.0168 67.0716H85.163V79.2622H87.3675V84.4586H85.7272V80.7188H74.3503V84.4586ZM83.4177 79.2622V68.5282H77.5521L77.0928 74.8269C76.9616 76.6771 76.6073 78.3043 75.8462 79.2097V79.2622H83.4177ZM92.6368 80.9681C89.9468 80.9681 88.1096 79.354 88.1096 76.9395V76.9133C88.1096 74.5907 89.868 73.1866 93.0042 72.9766L97.2558 72.7142V71.5332C97.2558 69.5649 96.0092 68.3707 93.8834 68.3707C91.902 68.3707 90.6029 69.3287 90.3142 70.8771L90.2879 71.0083H88.6083L88.6214 70.8508C88.8839 68.502 90.8259 66.8223 93.9097 66.8223C97.0328 66.8223 98.988 68.5807 98.988 71.3757V80.7188H97.2558V78.2255H97.2033C96.4554 79.8527 94.6576 80.9681 92.6368 80.9681ZM89.8811 76.9395C89.8811 78.4355 91.1409 79.4459 92.9911 79.4459C95.3794 79.4459 97.2558 77.7662 97.2558 75.588V74.0789L93.2142 74.3545C91.0753 74.4857 89.8811 75.4174 89.8811 76.9133V76.9395Z" fill="#1F3475"/>
<rect x="26.2113" y="1.31285" width="50.6237" height="52.1611" rx="8.69776" stroke="#1F3475" stroke-width="2.48507"/>
<path d="M50.1485 10.3582C48.6536 10.4955 46.6782 10.9531 45.3587 11.4641C40.2258 13.4777 36.2979 17.9089 34.9784 23.1715C34.5742 24.7808 34.4827 25.5969 34.4827 27.3969C34.4827 29.1969 34.5742 30.0129 34.9784 31.6222C36.4657 37.5636 41.2249 42.3534 47.174 43.9017C48.8595 44.3364 49.668 44.4355 51.5213 44.4355C53.3213 44.4355 54.1374 44.344 55.7467 43.9398C61.6881 42.4525 66.4778 37.6933 68.0261 31.7443C68.4608 30.0587 68.56 29.2502 68.56 27.3969C68.56 25.5435 68.4608 24.7351 68.0261 23.0495C66.3253 16.5056 60.8186 11.5557 54.0764 10.5031C53.3365 10.3887 50.8349 10.2972 50.1485 10.3582ZM53.0543 11.6091C58.5305 12.1658 63.3126 15.4836 65.7456 20.4182C68.7812 26.5655 67.5075 33.9332 62.5728 38.7382C61.2762 39.9966 60.094 40.8356 58.5 41.6212C54.1298 43.7796 49.0349 43.7949 44.6342 41.667C39.669 39.2721 36.2903 34.429 35.7335 28.9299C35.3293 24.8495 36.6258 20.5479 39.2343 17.3827C39.7529 16.742 40.9961 15.5064 41.6063 15.0183C44.7638 12.4785 49.0426 11.2048 53.0543 11.6091Z" fill="#1F3475" stroke="#1F3475" stroke-width="0.745522"/>
<path d="M45.5301 21.403C44.7598 21.7386 44.5767 22.7606 45.1792 23.3631C46.0335 24.225 47.4368 23.4546 47.2156 22.2496C47.0784 21.5326 46.2165 21.0979 45.5301 21.403Z" fill="#1F3475" stroke="#1F3475" stroke-width="0.745522"/>
<path d="M56.5203 21.403C55.75 21.7386 55.5669 22.7606 56.1695 23.3631C57.0237 24.225 58.4271 23.4546 58.2059 22.2496C58.0686 21.5326 57.2067 21.0979 56.5203 21.403Z" fill="#1F3475" stroke="#1F3475" stroke-width="0.745522"/>
<path d="M40.9456 27.5505C40.6939 27.7793 40.6711 27.97 40.8083 28.6031C41.2583 30.6166 42.227 32.3632 43.7447 33.8809C45.3845 35.5284 47.2531 36.5351 49.5183 36.9851C50.3649 37.1529 52.5157 37.1682 53.3547 37.0156C55.6428 36.5961 57.6411 35.5512 59.2656 33.9267C60.7986 32.386 61.7901 30.609 62.2401 28.6031C62.3774 27.97 62.3545 27.7793 62.1028 27.5505C61.7291 27.1997 61.1952 27.4819 61.0961 28.0921C60.9969 28.7175 60.5851 29.8768 60.1961 30.6318C59.0215 32.9352 57.0538 34.6131 54.5674 35.4368C50.609 36.7563 46.1777 35.3529 43.6837 31.9894C42.8905 30.9217 42.2193 29.4344 41.9829 28.2293C41.8761 27.6726 41.6549 27.398 41.3193 27.398C41.2049 27.398 41.0295 27.4666 40.9456 27.5505Z" fill="#1F3475" stroke="#1F3475" stroke-width="0.745522"/>
</svg>
