<svg width="115" height="88" viewBox="0 0 115 88" fill="none" xmlns="http://www.w3.org/2000/svg">
<path d="M9.74811 81.0186C4.55171 81.0186 1.19242 77.1738 1.19242 71.2425V71.2294C1.19242 65.2851 4.52546 61.4796 9.74811 61.4796C13.6717 61.4796 16.5717 63.8941 17.2803 67.4371L17.3065 67.5683H15.5088L15.43 67.3321C14.7083 64.7733 12.7006 63.1461 9.74811 63.1461C5.65397 63.1461 3.02953 66.3086 3.02953 71.2294V71.2425C3.02953 76.1503 5.68022 79.3521 9.74811 79.3521C12.6875 79.3521 14.6821 77.7381 15.4694 75.048L15.5088 74.9299H17.3065L17.2803 75.0611C16.5717 78.6304 13.6848 81.0186 9.74811 81.0186ZM19.2034 80.7168V67.0697H24.7147C27.2736 67.0697 28.8351 68.395 28.8351 70.5208V70.5471C28.8351 72.043 27.8378 73.3159 26.4469 73.5914V73.6702C28.2052 73.8801 29.4912 75.048 29.4912 76.8326V76.8589C29.4912 79.2865 27.7197 80.7168 24.7803 80.7168H19.2034ZM20.9486 72.9878H24.2292C26.1057 72.9878 27.1161 72.1873 27.1161 70.7045V70.6783C27.1161 69.3005 26.1713 68.5262 24.4916 68.5262H20.9486V72.9878ZM20.9486 79.2602H24.636C26.6437 79.2602 27.7197 78.4335 27.7197 76.8195V76.7933C27.7197 75.2186 26.5125 74.4444 24.3211 74.4444H20.9486V79.2602ZM39.1433 80.7168V75.586H36.2171L32.4379 80.7168H30.4171L34.4456 75.2973C32.2542 74.8643 30.9944 73.434 30.9944 71.4394V71.4131C30.9944 68.7362 32.9365 67.0697 35.9546 67.0697H40.8755V80.7168H39.1433ZM35.9678 74.1294H39.1433V68.5262H35.9678C33.9863 68.5262 32.7659 69.6154 32.7659 71.3869V71.4131C32.7659 73.0272 33.9994 74.1294 35.9678 74.1294ZM47.89 80.9661C44.9375 80.9661 42.9036 79.4702 42.5755 77.305L42.5624 77.1869H44.3076L44.3601 77.3313C44.7276 78.6304 45.9479 79.5096 47.89 79.5096C49.9633 79.5096 51.3149 78.5254 51.3149 76.9245V76.8982C51.3149 75.2186 50.0814 74.4444 47.8375 74.4444H45.7248V72.9878H47.8375C49.8715 72.9878 50.9606 72.1349 50.9606 70.6389V70.6127C50.9606 69.1692 49.8584 68.2769 48.0344 68.2769C46.1841 68.2769 44.9375 69.2217 44.6619 70.4946L44.6357 70.5864H42.9429L42.9692 70.4683C43.3235 68.3294 45.1737 66.8204 48.0344 66.8204C50.9081 66.8204 52.6665 68.2376 52.6665 70.4946V70.5208C52.6665 72.0561 51.5905 73.2765 50.0946 73.5783V73.6702C51.8529 73.9851 53.0339 75.0611 53.0339 76.8064V76.8326C53.0339 79.3652 50.9606 80.9661 47.89 80.9661ZM58.92 80.9661C56.2299 80.9661 54.3928 79.3521 54.3928 76.9376V76.9114C54.3928 74.5887 56.1512 73.1846 59.2874 72.9747L63.539 72.7122V71.5312C63.539 69.5629 62.2924 68.3688 60.1666 68.3688C58.1851 68.3688 56.886 69.3267 56.5973 70.8751L56.5711 71.0063H54.8914L54.9046 70.8489C55.167 68.5 57.1091 66.8204 60.1928 66.8204C63.3159 66.8204 65.2711 68.5787 65.2711 71.3738V80.7168H63.539V78.2236H63.4865C62.7385 79.8507 60.9408 80.9661 58.92 80.9661ZM56.1643 76.9376C56.1643 78.4335 57.424 79.4439 59.2743 79.4439C61.6625 79.4439 63.539 77.7643 63.539 75.586V74.0769L59.4973 74.3525C57.3584 74.4837 56.1643 75.4154 56.1643 76.9114V76.9376ZM77.2984 67.0697V68.5262H72.6531V80.7168H70.921V68.5262H66.2888V67.0697H77.2984ZM78.7097 80.7168V67.0697H80.455V71.7018H83.3944C86.3993 71.7018 88.3414 73.434 88.3414 76.1896V76.2159C88.3414 78.9715 86.3993 80.7168 83.3944 80.7168H78.7097ZM83.3681 73.1584H80.455V79.2602H83.3681C85.3364 79.2602 86.5699 78.053 86.5699 76.2159V76.1896C86.5699 74.3525 85.3233 73.1584 83.3681 73.1584ZM95.6709 80.9661C91.8786 80.9661 89.4641 78.2236 89.4641 73.8801V73.867C89.4641 69.576 91.918 66.8204 95.6578 66.8204C98.8334 66.8204 100.894 68.8805 101.235 71.2294L101.248 71.3475H99.542L99.5157 71.2425C99.1352 69.6416 97.7836 68.3688 95.6578 68.3688C92.994 68.3688 91.2487 70.5077 91.2487 73.8932V73.9064C91.2487 77.3444 93.0202 79.4177 95.6709 79.4177C97.7049 79.4177 99.1089 78.2498 99.5157 76.5439L99.542 76.439H101.261L101.248 76.5439C100.841 79.0896 98.6497 80.9661 95.6709 80.9661ZM110.677 80.7168V75.586H107.751L103.971 80.7168H101.951L105.979 75.2973C103.788 74.8643 102.528 73.434 102.528 71.4394V71.4131C102.528 68.7362 104.47 67.0697 107.488 67.0697H112.409V80.7168H110.677ZM107.501 74.1294H110.677V68.5262H107.501C105.52 68.5262 104.3 69.6154 104.3 71.3869V71.4131C104.3 73.0272 105.533 74.1294 107.501 74.1294Z" fill="#1F3475"/>
<rect x="31.8951" y="1.31285" width="50.6237" height="52.1611" rx="8.69776" stroke="#1F3475" stroke-width="2.48507"/>
<path d="M46.5312 10.845C46.0048 10.9815 45.4654 11.2804 44.913 11.7548C44.3021 12.2812 42.112 14.5103 41.7546 14.9718C40.3054 16.8239 40.2794 19.7029 41.6831 23.4202C43.3923 27.9629 46.5962 32.5641 50.6515 36.3009C56.2405 41.4545 63.7271 44.7884 67.5809 43.8525C68.1528 43.7161 69.1017 43.2741 69.5371 42.9427C69.979 42.6113 72.9165 39.5958 73.1894 39.1994C73.6963 38.465 73.8913 37.4837 73.6963 36.6518C73.4754 35.7225 73.4039 35.638 70.5769 32.8045C67.7239 29.9516 67.6329 29.8801 66.6906 29.6851C65.9432 29.5291 65.1829 29.6656 64.4485 30.088C64.2795 30.192 63.4737 30.9264 62.6613 31.7322L61.1861 33.188L60.7117 32.941C59.5484 32.3366 58.6905 31.7582 57.4103 30.7054C56.0975 29.6266 54.2648 27.7355 53.251 26.4097C52.5167 25.4479 51.4379 23.6737 51.4314 23.4332C51.4314 23.3877 51.9383 22.8548 52.5557 22.2504C53.8554 20.9832 54.3688 20.3918 54.6613 19.8329C55.0252 19.1245 55.0967 18.2277 54.8432 17.4868C54.5898 16.7329 54.3428 16.447 51.8603 13.9579C49.4037 11.5014 49.0268 11.1764 48.3249 10.936C47.8375 10.7605 47.0317 10.7215 46.5312 10.845ZM48.039 12.6712C48.2209 12.7752 49.2608 13.7565 50.658 15.1602C53.186 17.6948 53.2835 17.8117 53.277 18.4811C53.277 19.0725 53.1211 19.2805 51.4249 20.9767C50.567 21.828 49.8196 22.6144 49.7677 22.7249C49.6897 22.8613 49.6702 23.0498 49.6897 23.3682C49.7092 23.7582 49.7612 23.9076 50.1576 24.694C51.0544 26.4747 52.2372 28.0409 54.1934 30.0425C56.1365 32.0312 58.0732 33.5129 60.0683 34.5397C60.7767 34.9037 60.9131 34.9557 61.2381 34.9492C61.459 34.9492 61.693 34.9037 61.8295 34.8322C61.953 34.7672 62.7588 34.0133 63.6167 33.162C64.7215 32.0637 65.2609 31.5763 65.4688 31.4853C65.8588 31.3098 66.3657 31.3098 66.7231 31.4853C67.113 31.6802 71.7077 36.2684 71.9092 36.6713C72.0196 36.8858 72.0651 37.0808 72.0651 37.3602C72.0651 38.0296 71.9287 38.2116 70.083 40.0637C68.2568 41.8964 68.0878 42.0199 67.113 42.2408C66.1707 42.4488 64.5915 42.2798 62.9928 41.8054C60.5557 41.084 57.2803 39.3554 54.5833 37.3667C49.3907 33.5454 44.9325 27.703 43.0804 22.3024C42.1965 19.7354 42.099 17.8962 42.7749 16.5315C42.9829 16.0961 43.1778 15.8751 44.5296 14.5038C45.3615 13.659 46.1608 12.8921 46.2973 12.7947C46.8822 12.3917 47.4801 12.3462 48.039 12.6712Z" fill="#1F3475"/>
</svg>
