<svg width="62" height="59" viewBox="0 0 62 59" fill="none" xmlns="http://www.w3.org/2000/svg">
<g clip-path="url(#clip0_0_2278)">
<path d="M17.5603 0.262554C17.4188 0.308086 17.1948 0.501595 17.0533 0.67234C16.8293 0.945534 16.8058 1.11628 16.8058 2.43671V3.90512H15.0137C12.6558 3.9165 11.0407 4.06448 10.0268 4.37182C7.26801 5.1914 5.07515 7.0013 3.88441 9.42588C2.87051 11.509 2.95303 9.47141 2.95303 31.2813V50.6324L3.28314 51.6341C3.82546 53.3074 4.43852 54.3319 5.65284 55.5726C6.97327 56.9158 8.87139 57.9062 10.7931 58.2476C11.6891 58.4184 13.882 58.4298 31.4838 58.407C49.9698 58.3729 51.2195 58.3615 51.8679 58.168C53.8957 57.5874 54.9803 56.9727 56.3597 55.6409C57.4797 54.5482 57.9985 53.8196 58.5526 52.5106C59.2835 50.7576 59.2599 51.7024 59.2246 30.826L59.1892 11.8163L58.918 10.9854C57.9159 7.93471 56.1003 5.9313 53.3534 4.84991C51.8679 4.25799 50.9601 4.13278 48.0481 4.13278H45.4544V2.7099C45.4544 1.01383 45.3247 0.592659 44.6998 0.296703C44.3462 0.137341 44.2047 0.137341 43.8156 0.239788C43.0729 0.456062 42.9432 0.774788 42.8843 2.44809L42.8371 3.90512H31.0593H19.2816V2.53916C19.2816 1.00245 19.1637 0.615425 18.5742 0.319469C18.1969 0.125957 17.9376 0.114574 17.5603 0.262554ZM16.6879 7.83226C16.6879 9.39173 16.794 9.75599 17.2891 10.0064C17.8079 10.2568 18.2912 10.1999 18.7157 9.83567L19.1047 9.50556L19.1401 7.95747L19.1873 6.40938H31.1419H43.0965V7.71843C43.0965 9.15269 43.2379 9.66492 43.6977 9.98365C44.1929 10.3138 44.9356 10.1772 45.3601 9.66492C45.5369 9.47141 45.5723 9.17546 45.5723 7.91194V6.40938H48.0835C51.526 6.40938 52.4927 6.64843 54.1315 7.90056C54.9568 8.53801 55.6995 9.4145 56.1475 10.291C56.7606 11.509 56.8077 11.8277 56.8549 15.3109L56.9138 18.5892H31.189H5.46421L5.51137 15.1971C5.55853 12.1237 5.5821 11.7594 5.80611 11.1903C6.54885 9.25514 7.75138 7.90056 9.43729 7.10374C10.6516 6.52321 11.3 6.43215 14.1295 6.42076L16.6879 6.40938V7.83226ZM56.8902 35.493C56.8902 45.7036 56.8549 50.1771 56.7606 50.5983C56.5719 51.4634 55.9117 52.7838 55.334 53.4668C54.3201 54.662 52.7403 55.6182 51.2548 55.9141C50.8068 56.0052 44.9946 56.0393 31.1536 56.0393C9.55518 56.0393 11.1114 56.0963 9.37834 55.2767C8.72992 54.9693 8.25833 54.6278 7.60991 54.0018C6.58422 53.0001 6.05369 52.1236 5.72358 50.8487C5.49958 49.995 5.48779 49.5396 5.48779 35.4702V20.9796H31.189H56.8902V35.493Z" fill="#1F3475"/>
</g>
<path d="M14.9106 29.9435C14.9106 31.077 13.9171 32.0469 12.6266 32.0469C11.336 32.0469 10.3425 31.077 10.3425 29.9435C10.3425 28.81 11.336 27.8401 12.6266 27.8401C13.9171 27.8401 14.9106 28.81 14.9106 29.9435Z" fill="#1F3475" stroke="#1F3475" stroke-width="0.887711"/>
<path d="M24.102 29.7384C24.102 30.872 23.1085 31.8418 21.818 31.8418C20.5274 31.8418 19.5339 30.872 19.5339 29.7384C19.5339 28.6049 20.5274 27.635 21.818 27.635C23.1085 27.635 24.102 28.6049 24.102 29.7384Z" fill="#1F3475" stroke="#1F3475" stroke-width="0.887711"/>
<path d="M14.9673 39.2902C14.9673 40.4237 13.9738 41.3936 12.6832 41.3936C11.3926 41.3936 10.3992 40.4237 10.3992 39.2902C10.3992 38.1567 11.3926 37.1868 12.6832 37.1868C13.9738 37.1868 14.9673 38.1567 14.9673 39.2902Z" fill="#1F3475" stroke="#1F3475" stroke-width="0.887711"/>
<defs>
<clipPath id="clip0_0_2278">
<rect width="60.3625" height="58.2811" fill="white" transform="translate(0.888916 0.14624)"/>
</clipPath>
</defs>
</svg>
