<svg width="54" height="56" viewBox="0 0 54 56" fill="none" xmlns="http://www.w3.org/2000/svg">
<rect x="1.89512" y="2.19761" width="50.6237" height="52.1611" rx="8.69776" stroke="#1F3475" stroke-width="2.48507"/>
<path d="M16.5312 11.7298C16.0048 11.8662 15.4654 12.1652 14.913 12.6396C14.3021 13.166 12.112 15.3951 11.7546 15.8565C10.3054 17.7087 10.2794 20.5877 11.6831 24.305C13.3923 28.8477 16.5962 33.4488 20.6515 37.1857C26.2405 42.3392 33.7271 45.6731 37.5809 44.7373C38.1528 44.6008 39.1017 44.1589 39.5371 43.8275C39.979 43.496 42.9165 40.4806 43.1894 40.0841C43.6963 39.3498 43.8913 38.3685 43.6963 37.5366C43.4754 36.6073 43.4039 36.5228 40.5769 33.6893C37.7239 30.8363 37.6329 30.7648 36.6906 30.5699C35.9432 30.4139 35.1829 30.5504 34.4485 30.9728C34.2795 31.0768 33.4737 31.8111 32.6613 32.617L31.1861 34.0727L30.7117 33.8258C29.5484 33.2214 28.6905 32.643 27.4103 31.5902C26.0975 30.5114 24.2648 28.6202 23.251 27.2945C22.5167 26.3326 21.4379 24.5585 21.4314 24.318C21.4314 24.2725 21.9383 23.7396 22.5557 23.1352C23.8554 21.8679 24.3688 21.2765 24.6613 20.7176C25.0252 20.0093 25.0967 19.1124 24.8432 18.3716C24.5898 17.6177 24.3428 17.3318 21.8603 14.8427C19.4037 12.3862 19.0268 12.0612 18.3249 11.8208C17.8375 11.6453 17.0317 11.6063 16.5312 11.7298ZM18.039 13.5559C18.2209 13.6599 19.2608 14.6412 20.658 16.045C23.186 18.5795 23.2835 18.6965 23.277 19.3659C23.277 19.9573 23.1211 20.1652 21.4249 21.8614C20.567 22.7128 19.8196 23.4991 19.7677 23.6096C19.6897 23.7461 19.6702 23.9346 19.6897 24.253C19.7092 24.6429 19.7612 24.7924 20.1576 25.5788C21.0544 27.3594 22.2372 28.9257 24.1934 30.9273C26.1365 32.9159 28.0732 34.3977 30.0683 35.4245C30.7767 35.7884 30.9131 35.8404 31.2381 35.8339C31.459 35.8339 31.693 35.7884 31.8295 35.7169C31.953 35.6519 32.7588 34.8981 33.6167 34.0467C34.7215 32.9484 35.2609 32.461 35.4688 32.37C35.8588 32.1946 36.3657 32.1946 36.7231 32.37C37.113 32.565 41.7077 37.1532 41.9092 37.5561C42.0196 37.7706 42.0651 37.9655 42.0651 38.245C42.0651 38.9144 41.9287 39.0963 40.083 40.9485C38.2568 42.7812 38.0878 42.9046 37.113 43.1256C36.1707 43.3336 34.5915 43.1646 32.9928 42.6902C30.5557 41.9688 27.2803 40.2401 24.5833 38.2515C19.3907 34.4302 14.9325 28.5877 13.0804 23.1872C12.1965 20.6202 12.099 18.781 12.7749 17.4162C12.9829 16.9808 13.1778 16.7599 14.5296 15.3886C15.3615 14.5438 16.1608 13.7769 16.2973 13.6794C16.8822 13.2765 17.4801 13.231 18.039 13.5559Z" fill="#1F3475"/>
</svg>
