<svg width="43" height="44" viewBox="0 0 43 44" fill="none" xmlns="http://www.w3.org/2000/svg">
<path d="M4.88116 5.893L4.69897 6.0679V23.7836V41.4994L4.88116 41.6743L5.05606 41.8564H18.1078H31.1596L31.3345 41.6743L31.5167 41.4994V39.3423V37.1925H33.2657H35.0147V37.5933C35.0147 37.9285 35.0438 38.0305 35.1968 38.1763L35.3717 38.3585H37.9296H40.4875L40.6624 38.1763L40.8446 38.0014V32.5285V27.0557L40.6624 26.8808L40.4875 26.6986H37.9296H35.3717L35.1968 26.8808C35.0292 27.0411 35.0147 27.114 35.0147 27.7553V28.4476H34.5556H34.1037L33.375 27.7188L32.6535 26.9901L33.5426 26.0937C34.3296 25.2994 34.4317 25.161 34.4317 24.9423C34.4317 24.7237 34.3005 24.5707 33.0981 23.3682C31.8956 22.1585 31.7426 22.0346 31.5167 22.0346C31.2908 22.0346 31.1378 22.1658 29.8042 23.4921L28.3394 24.9496H26.6123H24.8851L24.5645 25.2411L24.2511 25.5326H19.4269H14.6099V26.1156V26.6986H18.8512H23.0997L22.5167 27.2816L21.9337 27.8646H18.2754H14.6099V28.4476V29.0306H17.6779H20.7386L20.5928 29.22C20.4471 29.4022 20.4398 29.5043 20.4398 31.1294V32.8492L19.5799 33.731L18.72 34.6055L18.4066 36.2306C17.9475 38.5844 17.8819 38.5188 20.2358 38.0597L21.8609 37.7463L23.0997 36.522L24.3459 35.2978L24.5936 35.3706C24.7321 35.4144 25.6357 35.4435 26.5904 35.4435H28.3394L29.2212 36.318C29.7094 36.799 30.1612 37.1925 30.2268 37.1925C30.3361 37.1925 30.3507 37.3601 30.3507 38.9415V40.6905H18.1078H5.86496V23.7836V6.8768H18.1078H30.3507V13.8727V20.8687H30.9337H31.5167V13.4719V6.0679L31.3345 5.893L31.1596 5.71082H18.1078H5.05606L4.88116 5.893ZM32.2819 24.2209L33.0106 24.9496L29.8114 28.1488L26.6123 31.348L25.5847 31.3771C24.6811 31.399 24.5208 31.4209 24.2293 31.5739C23.7847 31.8071 23.5224 32.0621 23.2965 32.4921C23.0414 32.9804 23.0196 33.7966 23.26 34.2484L23.4204 34.5472L22.5094 35.4508L21.6058 36.3544L20.8552 35.6038L20.1119 34.8605L25.7961 29.1763C28.9224 26.05 31.4948 23.4921 31.5167 23.4921C31.5386 23.4921 31.8811 23.8201 32.2819 24.2209ZM24.4115 28.8848L21.6422 31.654L21.6204 30.765L21.5985 29.8759L23.4787 27.9958L25.3588 26.1156H26.2698H27.1807L24.4115 28.8848ZM32.7191 28.7391L33.6082 29.6136H34.3078H35.0147V32.82V36.0265H32.8139H30.6058L29.7531 35.1739L28.8932 34.314L26.8163 34.2775L24.7394 34.2411L24.5062 34.0006C24.3021 33.7966 24.2657 33.7164 24.2657 33.403C24.2657 33.0897 24.3021 33.0095 24.5062 32.8055L24.7394 32.565L27.5451 32.5431L30.3507 32.5213V31.9455V31.3626H29.3159H28.2738L30.0228 29.6136C30.9847 28.6516 31.7863 27.8646 31.8009 27.8646C31.8228 27.8646 32.2382 28.2581 32.7191 28.7391ZM39.6786 32.5285V37.1925H37.9296H36.1807V32.5285V27.8646H37.9296H39.6786V32.5285ZM20.3086 36.8354C20.2576 36.8791 19.4706 37.0467 19.4414 37.0176C19.4269 37.003 19.5653 36.318 19.609 36.1795C19.6309 36.1067 19.7548 36.1795 20.0026 36.4273C20.2066 36.6241 20.3451 36.8063 20.3086 36.8354Z" fill="white"/>
<path d="M13.0723 9.90838L12.5913 10.3821L9.99699 10.3748L7.39538 10.3675L7.21319 10.5497L7.03101 10.7319V13.2897V15.8476L7.21319 16.0225L7.38809 16.2047H9.94598H12.5039L12.6788 16.0225L12.8609 15.8476V13.8217V11.7958L13.6261 11.0306C14.0488 10.608 14.3913 10.2363 14.3913 10.1926C14.3913 10.0978 13.7209 9.42741 13.6261 9.42741C13.5824 9.42741 13.3346 9.64603 13.0723 9.90838ZM10.6966 12.2841L9.94598 13.0347L9.59618 12.6849C9.40671 12.4954 9.21723 12.3424 9.1808 12.3424C9.08606 12.3424 8.41562 13.0128 8.41562 13.1076C8.41562 13.1513 8.70711 13.4719 9.0642 13.8217C9.94598 14.6889 9.95326 14.6889 10.9371 13.7124L11.695 12.9691V14.0039V15.0387H9.94598H8.19699V13.2897V11.5408H9.8148H11.4399L10.6966 12.2841Z" fill="white"/>
<path d="M14.6099 12.1238V12.7068H21.8973H29.1847V12.1238V11.5408H21.8973H14.6099V12.1238Z" fill="white"/>
<path d="M14.6099 14.4557V15.0387H20.7313H26.8527V14.4557V13.8727H20.7313H14.6099V14.4557Z" fill="white"/>
<path d="M28.0187 14.4557V15.0387H28.6017H29.1847V14.4557V13.8727H28.6017H28.0187V14.4557Z" fill="white"/>
<path d="M13.0723 16.9043L12.5913 17.378L9.99699 17.3707L7.39538 17.3635L7.21319 17.5456L7.03101 17.7278V20.2857V22.8436L7.21319 23.0185L7.38809 23.2007H9.94598H12.5039L12.6788 23.0185L12.8609 22.8436V20.8177V18.7918L13.6261 18.0266C14.0488 17.6039 14.3913 17.2323 14.3913 17.1886C14.3913 17.0938 13.7209 16.4234 13.6261 16.4234C13.5824 16.4234 13.3346 16.642 13.0723 16.9043ZM10.6966 19.28L9.94598 20.0307L9.59618 19.6809C9.40671 19.4914 9.21723 19.3383 9.1808 19.3383C9.08606 19.3383 8.41562 20.0088 8.41562 20.1035C8.41562 20.1473 8.70711 20.4679 9.0642 20.8177C9.94598 21.6849 9.95326 21.6849 10.9371 20.7084L11.695 19.9651V20.9999V22.0347H9.94598H8.19699V20.2857V18.5367H9.8148H11.4399L10.6966 19.28Z" fill="white"/>
<path d="M14.6099 19.1196V19.7026H21.8973H29.1847V19.1196V18.5366H21.8973H14.6099V19.1196Z" fill="white"/>
<path d="M14.6099 21.4517V22.0347H20.7313H26.8527V21.4517V20.8687H20.7313H14.6099V21.4517Z" fill="white"/>
<path d="M28.0187 21.4517V22.0347H28.6017H29.1847V21.4517V20.8687H28.6017H28.0187V21.4517Z" fill="white"/>
<path d="M13.0723 23.9002L12.5913 24.3739L9.99699 24.3666L7.39538 24.3593L7.21319 24.5415L7.03101 24.7237V27.2816V29.8394L7.21319 30.0143L7.38809 30.1965H9.94598H12.5039L12.6788 30.0143L12.8609 29.8394V27.8135V25.7876L13.6261 25.0225C14.0488 24.5998 14.3913 24.2281 14.3913 24.1844C14.3913 24.0897 13.7209 23.4192 13.6261 23.4192C13.5824 23.4192 13.3346 23.6379 13.0723 23.9002ZM10.6966 26.2759L9.94598 27.0265L9.59618 26.6767C9.40671 26.4872 9.21723 26.3342 9.1808 26.3342C9.08606 26.3342 8.41562 27.0046 8.41562 27.0994C8.41562 27.1431 8.70711 27.4637 9.0642 27.8135C9.94598 28.6807 9.95326 28.6807 10.9371 27.7042L11.695 26.9609V27.9957V29.0305H9.94598H8.19699V27.2816V25.5326H9.8148H11.4399L10.6966 26.2759Z" fill="white"/>
<path d="M13.0723 30.8962L12.5913 31.3699L9.99699 31.3626L7.39538 31.3553L7.21319 31.5375L7.03101 31.7196V34.2775V36.8354L7.21319 37.0103L7.38809 37.1925H9.94598H12.5039L12.6788 37.0103L12.8609 36.8354V34.8095V32.7836L13.6261 32.0184C14.0488 31.5958 14.3913 31.2241 14.3913 31.1804C14.3913 31.0856 13.7209 30.4152 13.6261 30.4152C13.5824 30.4152 13.3346 30.6338 13.0723 30.8962ZM10.6966 33.2719L9.94598 34.0225L9.59618 33.6727C9.40671 33.4832 9.21723 33.3302 9.1808 33.3302C9.08606 33.3302 8.41562 34.0006 8.41562 34.0953C8.41562 34.1391 8.70711 34.4597 9.0642 34.8095C9.94598 35.6767 9.95326 35.6767 10.9371 34.7002L11.695 33.9569V34.9917V36.0265H9.94598H8.19699V34.2775V32.5286H9.8148H11.4399L10.6966 33.2719Z" fill="white"/>
<path d="M14.6099 33.1116V33.6946H16.0673H17.5248V33.1116V32.5286H16.0673H14.6099V33.1116Z" fill="white"/>
<path d="M14.6099 35.4435V36.0265H16.0673H17.5248V35.4435V34.8605H16.0673H14.6099V35.4435Z" fill="white"/>
</svg>
