<svg width="43" height="43" viewBox="0 0 43 43" fill="none" xmlns="http://www.w3.org/2000/svg">
<path d="M28.3003 4.69524L27.2674 5.36704H17.1904C9.52341 5.36704 7.02934 5.39223 6.76901 5.46781C6.30715 5.60217 5.61015 6.29917 5.47579 6.76104C5.32464 7.26489 5.32464 37.0594 5.47579 37.5632C5.61015 38.0251 6.30715 38.7221 6.76901 38.8564C7.27287 38.9992 30.3493 38.9992 30.8532 38.8564C31.315 38.7221 32.012 38.0251 32.1464 37.5632C32.222 37.3029 32.2471 35.3799 32.2471 29.8291V22.4392L33.0953 21.6079C35.9421 18.8115 37.6972 15.209 38.159 11.2369C38.327 9.80094 38.3354 8.2306 38.1758 7.84432C38.0079 7.44123 37.7811 7.33207 36.7818 7.17251C34.7748 6.84501 33.0365 6.13122 30.9371 4.77082C30.2065 4.30056 29.7027 4.02344 29.5599 4.02344C29.4172 4.02344 28.9469 4.27536 28.3003 4.69524ZM30.3997 6.03045C31.4746 6.73584 33.1961 7.59239 34.2122 7.92829C34.8756 8.14663 36.6475 8.55811 36.9162 8.55811C36.9918 8.55811 36.9414 10.0865 36.8238 11.0774C36.4039 14.7135 34.8336 17.955 32.2471 20.5498C31.5585 21.2468 29.7195 22.75 29.5599 22.75C29.5347 22.75 29.1065 22.4476 28.6194 22.0781C24.5886 19.055 22.1701 14.2432 22.1701 9.2635V8.56651L22.4892 8.50772C23.9672 8.2474 25.0337 7.94509 26.1421 7.45803C26.8811 7.13053 28.5186 6.1984 29.1401 5.75333C29.2996 5.63577 29.476 5.54339 29.5347 5.53499C29.5935 5.53499 29.9798 5.76173 30.3997 6.03045ZM24.1771 6.74424C24.1183 6.80302 22.7327 7.11373 22.0861 7.2145C20.8769 7.40764 20.7845 7.58399 20.8517 9.64979C20.9105 11.2621 21.0448 12.2362 21.4059 13.647C22.2289 16.7793 23.8832 19.5757 26.2597 21.8346C27.0491 22.582 28.3171 23.5729 28.9805 23.9508C29.5599 24.2867 29.6607 24.2699 30.8028 23.5645C30.8783 23.5057 30.9035 24.8913 30.9035 30.3497V37.2021L30.6936 37.4037L30.4921 37.6136H18.8111H7.13011L6.92857 37.4037L6.71863 37.2021V22.1621V7.12213L6.92857 6.92059L7.13011 6.71065H15.6704C20.373 6.71065 24.1939 6.72744 24.1771 6.74424Z" fill="white"/>
<path d="M27.6621 9.68337L27.3766 9.96889V10.943V11.9171H26.4024H25.4283L25.1428 12.2026L24.8573 12.4882V14.1005V15.7128L25.1428 15.9983L25.4283 16.2838H26.4024H27.3766V17.258V18.2321L27.6621 18.5176L27.9476 18.8031H29.5599H31.1722L31.4578 18.5176L31.7433 18.2321V17.258V16.2838H32.709C33.6579 16.2838 33.6747 16.2754 33.9434 16.0403L34.2206 15.7968L34.2457 14.1425L34.2709 12.4965L33.9854 12.211L33.6915 11.9171H32.7174H31.7433V10.943V9.96889L31.4578 9.68337L31.1722 9.39786H29.5599H27.9476L27.6621 9.68337ZM30.6516 11.8751V13.0088H31.7853H32.9189V14.1005V15.1922H31.7853H30.6516V16.3258V17.4595H29.5599H28.4682V16.3258V15.1922H27.3346H26.2009V14.1005V13.0088H27.3346H28.4682V11.8751V10.7415H29.5599H30.6516V11.8751Z" fill="white"/>
<path d="M13.4451 10.4979C12.4878 10.7751 11.7572 11.7492 11.7572 12.7653C11.7572 13.731 12.4878 14.7219 13.3947 14.9906C15.2422 15.5197 16.8713 13.8905 16.3423 12.0431C16.1491 11.3797 15.5025 10.7331 14.8643 10.5399C14.3688 10.3888 13.8734 10.3804 13.4451 10.4979ZM14.8139 12.0767C15.0322 12.3034 15.0742 12.4042 15.0742 12.7569C15.0742 13.118 15.0322 13.2103 14.7971 13.4455C14.562 13.6806 14.4696 13.7226 14.1085 13.7226C13.7474 13.7226 13.655 13.6806 13.4199 13.4455C13.1848 13.2103 13.1428 13.118 13.1428 12.7653C13.1428 12.3286 13.3527 11.9927 13.7306 11.8248C14.0413 11.6904 14.5368 11.7996 14.8139 12.0767Z" fill="white"/>
<path d="M13.1092 15.9144C11.5893 16.3175 10.4052 17.6191 10.1365 19.1643C10.0693 19.5841 10.0693 19.7605 10.1617 19.9704C10.3716 20.4827 10.3968 20.4827 14.1085 20.4827C17.8202 20.4827 17.8454 20.4827 18.0554 19.9704C18.1477 19.7605 18.1477 19.5841 18.0806 19.1643C17.6859 16.8549 15.3346 15.3182 13.1092 15.9144ZM15.2422 17.384C15.7712 17.6359 16.2835 18.1398 16.527 18.652C16.6278 18.8703 16.7118 19.0719 16.7118 19.0971C16.7118 19.1223 15.5445 19.1391 14.1085 19.1391C12.6809 19.1391 11.5053 19.1223 11.5053 19.0971C11.5053 19.0047 11.732 18.5596 11.9419 18.2405C12.6138 17.2328 14.1085 16.8465 15.2422 17.384Z" fill="white"/>
<path d="M10.2876 23.0438C10.1532 23.1698 10.0776 23.3461 10.0776 23.5057C10.0776 23.6652 10.1532 23.8416 10.2876 23.9676L10.4891 24.1775H14.1085H17.7278L17.9293 23.9676C18.0637 23.8416 18.1393 23.6652 18.1393 23.5057C18.1393 23.3461 18.0637 23.1698 17.9293 23.0438L17.7278 22.8339H14.1085H10.4891L10.2876 23.0438Z" fill="white"/>
<path d="M10.2876 26.4028C10.1532 26.5288 10.0776 26.7051 10.0776 26.8647C10.0776 27.0242 10.1532 27.2006 10.2876 27.3266L10.4891 27.5365H18.8111H27.133L27.3346 27.3266C27.4689 27.2006 27.5445 27.0242 27.5445 26.8647C27.5445 26.7051 27.4689 26.5288 27.3346 26.4028L27.133 26.1929H18.8111H10.4891L10.2876 26.4028Z" fill="white"/>
<path d="M10.2876 29.7618C10.1532 29.8878 10.0776 30.0642 10.0776 30.2237C10.0776 30.3833 10.1532 30.5596 10.2876 30.6856L10.4891 30.8955H18.8111H27.133L27.3346 30.6856C27.4689 30.5596 27.5445 30.3833 27.5445 30.2237C27.5445 30.0642 27.4689 29.8878 27.3346 29.7618L27.133 29.5519H18.8111H10.4891L10.2876 29.7618Z" fill="white"/>
<path d="M10.2876 33.121C10.1532 33.2469 10.0776 33.4233 10.0776 33.5828C10.0776 33.7424 10.1532 33.9187 10.2876 34.0447L10.4891 34.2546H18.8111H27.133L27.3346 34.0447C27.4689 33.9187 27.5445 33.7424 27.5445 33.5828C27.5445 33.4233 27.4689 33.2469 27.3346 33.121L27.133 32.911H18.8111H10.4891L10.2876 33.121Z" fill="white"/>
</svg>
