<svg width="54" height="56" viewBox="0 0 54 56" fill="none" xmlns="http://www.w3.org/2000/svg">
<rect x="1.3734" y="2.00914" width="50.6237" height="52.1611" rx="8.69776" stroke="#1F3475" stroke-width="2.48507"/>
<path d="M21.9339 11.7067C19.9894 11.9096 18.0393 12.6874 16.4217 13.9105C15.83 14.3557 14.8098 15.3759 14.3646 15.9677C11.6818 19.5184 11.3661 24.2133 13.5473 28.0684C13.7164 28.3728 14.0208 28.8349 14.218 29.0942C14.4097 29.3535 14.59 29.5902 14.6069 29.624C14.6238 29.6578 14.094 30.2778 13.4233 31.0048C12.7526 31.7375 12.1834 32.397 12.1552 32.4759C12.0143 32.8479 12.1947 33.3326 12.5497 33.5186C12.7357 33.62 12.995 33.6256 18.2197 33.6256H23.6867L23.7882 34.0371C23.9065 34.5612 24.3011 35.525 24.611 36.0604C25.789 38.1064 27.6884 39.5774 29.9428 40.1974C30.9968 40.4848 31.3406 40.5017 35.996 40.5017C40.0878 40.5017 40.3189 40.4961 40.5049 40.3946C40.7416 40.2706 40.9558 39.9268 40.9558 39.6676C40.9558 39.3688 40.8205 39.1716 39.8962 38.174L39.0282 37.2328L39.2481 36.934C40.1104 35.7674 40.6796 34.3583 40.8713 32.9098C41.294 29.6916 39.9244 26.5467 37.2754 24.6417C36.4694 24.0668 35.3929 23.5595 34.4912 23.3341L34.0797 23.2326V22.6465C34.0797 17.929 31.0306 13.7019 26.5555 12.214C25.0845 11.7237 23.4669 11.5489 21.9339 11.7067ZM24.0925 13.3976C25.1465 13.5103 26.1384 13.7977 27.1191 14.2655C31.1997 16.2326 33.2738 20.8598 32.0169 25.2165C31.0982 28.4009 28.3872 30.9485 25.1352 31.6812C24.07 31.9235 23.5909 31.9404 19.1158 31.9235L14.8944 31.9066L15.6721 31.0612C16.1005 30.5934 16.4837 30.1425 16.5345 30.0523C16.6416 29.8494 16.6416 29.4267 16.5345 29.2689C16.4894 29.2013 16.2921 28.9646 16.1005 28.7504C13.9306 26.2818 13.2317 22.8381 14.2744 19.71C15.6496 15.5619 19.7527 12.9242 24.0925 13.3976ZM34.835 25.2334C39.3044 27.0201 40.6853 32.6675 37.5572 36.3366C37.1232 36.8439 37.0669 36.951 37.0669 37.2328C37.0669 37.5484 37.1571 37.6949 37.7207 38.3036L38.1659 38.7827L37.715 38.7996C37.467 38.8109 35.9058 38.8052 34.2488 38.794C30.9911 38.7714 30.9686 38.7714 29.971 38.4389C28.2632 37.8696 26.7133 36.5226 25.9186 34.9107C25.6819 34.4372 25.3381 33.4622 25.3775 33.3889C25.3888 33.372 25.4846 33.3326 25.5861 33.3156C26.0821 33.2086 27.198 32.7971 27.8518 32.4815C30.1119 31.3768 31.9493 29.5282 33.0145 27.285C33.3076 26.665 33.6288 25.7745 33.7472 25.2673L33.8205 24.9347L34.0459 24.9742C34.1755 24.9911 34.5306 25.1095 34.835 25.2334Z" fill="#1F3475"/>
<path d="M19.3816 17.8105C18.6151 18.0021 17.7753 18.577 17.3188 19.2195C16.2874 20.6623 16.4057 22.5054 17.6513 24.4498C18.4911 25.7518 20.103 27.3355 21.9122 28.6262C22.6506 29.1503 22.8027 29.2292 23.1071 29.2292C23.4002 29.2292 23.6932 29.0658 24.6232 28.3726C25.959 27.3806 27.3736 26.0279 28.112 25.0416C29.6901 22.9337 29.9888 20.8991 28.9461 19.3435C28.5741 18.7855 28.1345 18.4023 27.5145 18.0979C26.8776 17.7879 26.4718 17.709 25.6997 17.7428C24.781 17.7823 24.0652 18.0754 23.372 18.6784L23.0902 18.9264L22.8084 18.6784C22.4251 18.3403 21.9911 18.0866 21.5008 17.9175C21.157 17.7936 20.971 17.7654 20.3848 17.7541C19.9283 17.7428 19.5732 17.7597 19.3816 17.8105ZM21.1852 19.6084C21.6304 19.8282 22.0982 20.3411 22.2278 20.7582C22.4026 21.3161 22.7858 21.5754 23.2874 21.4852C23.558 21.4345 23.8454 21.1358 23.9356 20.8032C24.0652 20.3298 24.471 19.8846 25.0065 19.6084C25.2883 19.4675 25.3728 19.4506 25.9082 19.4506C26.438 19.4506 26.5282 19.4675 26.7818 19.6027C27.1369 19.7887 27.5653 20.2453 27.7174 20.5891C28.2698 21.8854 27.3004 23.8129 25.091 25.8081C24.471 26.3661 23.186 27.3693 23.0902 27.3693C23 27.3693 21.9235 26.5408 21.2472 25.9434C18.9307 23.9144 17.8937 21.9136 18.4629 20.5891C18.6658 20.1156 19.1956 19.6422 19.7085 19.4731C19.7874 19.4449 20.0805 19.4337 20.3623 19.4393C20.785 19.4506 20.9259 19.4788 21.1852 19.6084Z" fill="#1F3475"/>
</svg>
