<svg width="400" height="70" viewBox="0 0 400 70" fill="none" xmlns="http://www.w3.org/2000/svg">
<g clip-path="url(#clip0_0_2246)">
<path d="M49.8213 1.85547H49.7509C48.6953 1.88153 47.622 1.96841 46.5664 2.09873C45.5899 2.22036 44.6398 2.48099 43.7425 2.87194H43.7249C43.0651 3.17602 42.3877 3.43665 41.6928 3.67122C39.0008 4.60951 36.1066 5.1134 33.0892 5.1134C30.0717 5.1134 27.1775 4.60951 24.4855 3.67122C23.7906 3.43665 23.1132 3.16733 22.4534 2.88063H22.4358C21.5385 2.48099 20.5884 2.21167 19.6119 2.09873C18.5563 1.96841 17.4918 1.88153 16.4274 1.85547H16.357C7.91173 2.17692 1.12913 8.90998 0.882812 17.2677C0.918001 18.6925 1.11154 20.265 1.57779 21.9244C1.79772 22.7149 2.11441 23.4708 2.48389 24.2006C2.83578 24.8869 3.36361 25.9208 3.97061 27.1284C4.04978 27.2934 4.13776 27.4585 4.22573 27.6323C5.20221 29.5957 6.34584 31.9414 7.29593 34.0265C8.56272 36.824 9.33687 39.7518 9.59198 42.7317C9.69755 43.9654 9.78552 45.4336 9.82951 47.1538C9.82951 47.4231 9.8471 47.6924 9.8471 47.9705C9.8471 48.457 9.8559 48.9696 9.8559 49.4908C9.8559 51.1241 10.0318 52.6706 10.3046 54.0954C10.5421 55.3464 10.85 56.4932 11.1931 57.5271C11.8792 59.6208 12.671 61.2194 13.1636 62.1056C13.1636 62.1056 13.1636 62.1142 13.1724 62.1229C14.7031 64.5381 16.876 66.5103 19.4536 67.8221C19.5416 67.8482 21.8464 68.5606 22.3918 66.9621C23.0252 65.1029 22.7085 59.6035 22.5062 56.945C22.3566 54.912 21.1338 53.0963 19.2776 52.2101C19.2512 52.1927 19.2249 52.1841 19.1897 52.1667C16.788 51.0459 12.7326 48.2485 11.6417 47.1799C11.5537 47.093 11.2986 46.8497 11.1491 46.6847C10.5949 46.0765 11.1755 45.0774 11.9672 45.3033C12.0816 45.338 12.1959 45.3902 12.3015 45.4771C12.4159 45.5639 13.6299 46.9279 13.6299 46.9279C15.187 48.483 16.6649 49.2736 16.7529 49.3431C17.2719 49.6993 19.304 51.0199 19.3656 49.821C19.3656 49.6472 17.7469 46.1286 16.5593 43.7742C15.2837 41.2287 13.5595 35.7467 13.4891 32.7233C13.4891 32.4714 13.5683 32.2194 13.7354 32.0283C14.0609 31.6634 14.3776 31.7416 14.4216 32.1586C14.5976 34.096 14.8967 35.6164 15.2925 37.2497C15.3189 37.3626 15.8028 39.1436 16.1898 40.0906C16.4626 40.7509 16.788 41.5588 16.788 41.5588C17.3511 42.6274 18.4155 40.3339 18.4243 40.3078C18.4243 40.3078 20.2189 36.433 19.6295 30.4471C19.5943 30.1083 19.8582 29.8216 20.2013 29.8216H20.2629C20.7468 29.8216 21.1338 30.2299 21.0898 30.7077C20.9139 32.6712 20.4565 37.2757 20.1222 38.2053C20.1046 38.2488 19.6383 41.1331 18.046 43.0966C17.8613 43.3225 17.8173 43.6352 17.9405 43.9046C18.7674 45.7551 21.8992 52.6445 23.2012 53.2787C24.424 53.8869 30.5732 45.7898 32.7637 42.8273C33.1243 42.3407 33.8809 42.3929 34.1624 42.9315L34.2416 43.0705C34.3911 43.3572 34.3647 43.7047 34.1536 43.9567C32.7285 45.729 26.9927 52.3665 25.7699 53.4872C24.248 54.886 24.3976 55.859 24.38 56.1805L24.1776 66.4495C24.1688 67.0315 24.2832 67.6223 24.5471 68.1436C24.6263 68.2913 24.7583 68.4303 24.9342 68.5693C25.6028 69.0993 26.5529 69.1774 27.2918 68.743C27.2918 68.743 27.2918 68.743 27.3006 68.743H27.3182V68.7344C28.11 68.1349 28.717 67.2401 29.1128 66.1193C29.3592 65.433 29.5263 64.6685 29.6319 63.8257C29.6847 63.4087 29.7286 62.2098 29.7286 61.3758C29.7286 61.063 29.7374 60.7503 29.755 60.4462C29.9574 56.6322 31.3737 53.6784 33.0892 53.6784C34.8046 53.6784 36.2209 56.6322 36.4233 60.4462C36.4409 60.7503 36.4497 61.063 36.4497 61.3758C36.4497 62.2098 36.4936 63.4087 36.5464 63.8257C36.6432 64.6598 36.8191 65.433 37.0655 66.1193C37.4701 67.2401 38.0683 68.1262 38.8601 68.7344C38.8601 68.7344 38.8689 68.7344 38.8777 68.7344C38.8777 68.7344 38.8777 68.7344 38.8865 68.7344C40.1621 69.4815 41.8071 68.6562 42.0007 67.214C42.0271 67.0142 42.0446 66.797 42.0446 66.5624C42.0622 65.7805 41.9039 56.3281 41.8511 53.105C41.8335 52.0451 41.6576 51.0025 41.2969 50.0034C41.077 49.4039 41.033 49.2563 40.4084 48.4222C39.9069 47.762 36.8103 45.6942 34.9981 42.6709C33.0716 39.4651 32.3238 35.3818 32.0511 34.3045C31.9895 34.0612 32.1039 33.8093 32.3326 33.6877L32.6141 33.54C32.9396 33.3749 33.3355 33.5487 33.4146 33.8962C33.7577 35.347 34.4175 39.0394 36.2297 42.1236C38.3938 45.7811 42.0798 48.0052 42.854 47.7272C43.7953 47.3884 47.8771 38.4747 48.0003 37.5885C48.0267 37.4234 49.1967 35.0603 48.8624 34.5651C46.8391 31.6373 45.7482 27.7104 45.7482 27.7104C43.892 22.1329 44.6222 18.5013 45.1412 17.3285C45.194 17.2155 45.1676 17.0939 45.326 17.0244C45.5019 16.9375 45.7219 17.0157 45.8186 17.1808C46.6104 18.5535 45.6427 21.0382 46.496 25.6514C46.8567 27.5975 49.6454 34.8692 50.8946 33.8788C52.0206 32.9926 53.736 30.7425 54.4134 26.9025C55.3195 21.768 54.0879 21.768 54.2199 20.5169C54.2727 19.9783 55.038 19.6568 55.5922 20.1173C56.6655 21.0121 56.9998 23.6967 55.2667 29.0484C53.8944 33.2967 51.4576 34.2698 49.8125 37.5711C48.6953 39.8213 46.3728 44.0001 46.6983 44.5127C47.191 45.2859 48.6689 43.948 48.8624 43.8003C49.2407 43.5049 50.6922 42.306 50.6922 42.306C52.047 41.1592 53.6217 39.5085 54.1495 38.8917C54.1495 38.8917 55.6978 36.8848 56.1641 37.7101C56.1641 37.7101 56.4544 38.9351 55.0996 40.386C54.2375 41.3069 49.7773 45.0861 47.1646 46.6673C45.9066 47.4318 45.1236 48.5612 44.6398 49.5951C44.1384 50.6724 43.892 51.8452 43.8569 53.0355C43.7777 55.7895 43.549 64.6598 43.8832 66.4321C44.2791 68.5867 45.15 68.4824 45.3436 68.439C48.5281 67.1792 51.2113 64.9552 53.0147 62.1229L53.0235 62.1056C53.5161 61.2194 54.3079 59.6208 54.994 57.5271C55.3371 56.4932 55.645 55.3464 55.8825 54.1041C56.1553 52.6793 56.3312 51.1241 56.3312 49.4995C56.3312 48.9782 56.3312 48.4657 56.34 47.9791C56.34 47.6924 56.3488 47.4231 56.3576 47.1538C56.4016 45.4336 56.4896 43.9654 56.5951 42.7317C56.8502 39.7518 57.6244 36.824 58.8912 34.0265C59.8413 31.9414 60.9761 29.5957 61.9614 27.6323C62.0493 27.4585 62.1285 27.2934 62.2165 27.1284C62.8235 25.9208 63.3513 24.8956 63.7032 24.2006C64.0815 23.4708 64.3982 22.7149 64.6093 21.9244C65.0756 20.2737 65.2691 18.7012 65.3043 17.2677C65.058 8.90998 58.2754 2.16823 49.8301 1.85547H49.8213Z" fill="#1F3475"/>
<path d="M102.546 68.7483H87.3005C85.11 68.7483 83.3418 66.7154 83.3418 64.1959V56.5419C83.3418 54.0225 85.11 51.9895 87.3005 51.9895H102.546V54.9086H85.8754V65.8466H102.546V68.7657V68.7483Z" fill="#1F3475"/>
<path d="M128.285 54.9028H120.06V68.7512H117.526V54.9028H109.301V51.9836H128.294V54.9028H128.285Z" fill="#1F3475"/>
<path d="M154.448 64.1959C154.448 66.7154 152.68 68.7483 150.49 68.7483H139.203C137.012 68.7483 135.244 66.7154 135.244 64.1959V56.5419C135.244 54.0225 137.012 51.9895 139.203 51.9895H150.49C152.68 51.9895 154.448 54.0225 154.448 56.5419V64.1959ZM151.915 65.8379V54.8999H137.778V65.8379H151.915Z" fill="#1F3475"/>
<path d="M186.733 68.7489H184.226V53.6581L177.153 67.3849C176.652 68.3579 175.754 69.0269 174.699 69.0269C173.643 69.0269 172.746 68.3579 172.244 67.3849L165.198 53.6581V68.7489H162.664V54.9874C162.664 53.1629 163.931 51.7034 165.514 51.7034C166.596 51.7034 167.494 52.3984 168.022 53.4062L174.699 66.4379L181.402 53.4062C181.903 52.4071 182.827 51.7034 183.883 51.7034C185.466 51.7034 186.733 53.1629 186.733 54.9874V68.7489Z" fill="#1F3475"/>
<path d="M213.925 68.7483H197.994C195.803 68.7483 194.035 66.7154 194.035 64.1959V63.4661C194.035 60.9466 195.803 58.9137 197.994 58.9137H211.392V54.9086H194.721V51.9895H209.967C212.157 51.9895 213.925 54.0225 213.925 56.5419V68.7483ZM211.392 65.8292V61.8241H196.569V65.8292H211.392Z" fill="#1F3475"/>
<path d="M239.875 54.9028H231.65V68.7512H229.116V54.9028H220.891V51.9836H239.884V54.9028H239.875Z" fill="#1F3475"/>
<path d="M266.042 64.1959C266.042 66.7154 264.274 68.7483 262.083 68.7483H250.797C248.606 68.7483 246.838 66.7154 246.838 64.1959V56.5419C246.838 54.0225 248.606 51.9895 250.797 51.9895H262.083C264.274 51.9895 266.042 54.0225 266.042 56.5419V64.1959ZM263.508 65.8379V54.8999H249.371V65.8379H263.508Z" fill="#1F3475"/>
<path d="M271.783 68.7519L281.328 53.4179C281.935 52.4449 282.885 51.7151 284.02 51.7151C285.155 51.7151 286.105 52.4449 286.712 53.4179L296.23 68.7519H293.037L283.993 53.9652L274.976 68.7519H271.783Z" fill="#1F3475"/>
<path d="M321.401 64.1959C321.401 66.7154 319.633 68.7483 317.443 68.7483H306.156C303.965 68.7483 302.197 66.7154 302.197 64.1959V56.5419C302.197 54.0225 303.965 51.9895 306.156 51.9895H317.443C319.633 51.9895 321.401 54.0225 321.401 56.5419V64.1959ZM318.868 65.8379V54.8999H304.731V65.8379H318.868Z" fill="#1F3475"/>
<path d="M329.623 56.5419C329.623 54.0225 331.391 51.9895 333.582 51.9895H345.027V54.9086H332.157V68.757H329.623V56.5506V56.5419Z" fill="#1F3475"/>
<path d="M355.37 66.6582L367.316 52.6881C367.844 52.08 368.556 51.7151 369.348 51.7151C370.932 51.7151 372.198 53.1746 372.198 54.9991V68.7606H369.665V54.0956L357.718 68.0656C357.191 68.6737 356.478 69.0386 355.686 69.0386C354.103 69.0386 352.836 67.5791 352.836 65.7546V51.9931H355.37V66.6582Z" fill="#1F3475"/>
<path d="M382.032 62.1918C381.055 61.5837 380.422 60.489 380.422 59.0903V56.5361C380.422 54.0166 382.19 51.9836 384.381 51.9836H399.626V68.7512H397.092V63.6514H382.955V68.7512H380.422V65.2847C380.422 63.886 381.055 62.7913 382.032 62.1832V62.1918ZM397.092 54.9028H382.955V60.7323H397.092V54.9028Z" fill="#1F3475"/>
<g filter="url(#filter0_d_0_2246)">
<path d="M122.232 1.62891V33.8521C120.736 36.3368 113.012 39.0039 103.731 38.6999C97.7931 38.5087 88.996 37.3098 85.2308 33.6609H90.4563C93.3418 35.9458 99.5086 36.7972 103.731 36.9449C110.866 37.1882 116.645 35.2595 117.006 33.8434V26.9452C105.719 31.1067 90.342 29.0303 85.7587 21.8629C84.3687 19.6909 83.7793 17.5971 83.7793 15.625V4.14838L89.0048 1.62891V14.4782C89.0048 20.5771 92.5588 26.1373 100.643 27.2841C104.62 27.8488 109.221 27.397 113.83 25.8071C113.786 25.8245 115.264 25.0947 117.015 24.0088V4.15706L122.24 1.62891H122.232Z" fill="#1F3475"/>
<path d="M122.232 1.62891V33.8521C120.736 36.3368 113.012 39.0039 103.731 38.6999C97.7931 38.5087 88.996 37.3098 85.2308 33.6609H90.4563C93.3418 35.9458 99.5086 36.7972 103.731 36.9449C110.866 37.1882 116.645 35.2595 117.006 33.8434V26.9452C105.719 31.1067 90.342 29.0303 85.7587 21.8629C84.3687 19.6909 83.7793 17.5971 83.7793 15.625V4.14838L89.0048 1.62891V14.4782C89.0048 20.5771 92.5588 26.1373 100.643 27.2841C104.62 27.8488 109.221 27.397 113.83 25.8071C113.786 25.8245 115.264 25.0947 117.015 24.0088V4.15706L122.24 1.62891H122.232Z" stroke="#1F3475" stroke-width="1.74902" stroke-miterlimit="10"/>
</g>
<path d="M170.521 35.4773V3.593C158.249 3.84495 144.253 10.5085 142.177 35.4773H136.951C140.338 6.86831 158.24 2.02919 170.521 1.77724L175.747 1.76855V35.4773H170.521Z" fill="#1F3475" stroke="#1F3475" stroke-width="1.74902" stroke-miterlimit="10"/>
<path d="M229.051 15.2862C235.473 25.3294 224.916 33.8608 216.858 34.9902C209.513 36.0154 200.927 35.8851 192.578 31.9582V4.33089L197.804 1.80273V10.1952C209.09 6.03371 224.468 8.1101 229.051 15.2862ZM214.166 9.87373C210.19 9.30902 205.589 9.76078 200.979 11.3507C201.023 11.3333 199.545 12.0631 197.795 13.149V31.9495C203.97 34.2865 224.714 36.7539 225.62 22.6709C226.025 16.3548 222.251 11.0118 214.158 9.86504L214.166 9.87373ZM238.833 1.80273V35.5289H233.608V4.3222L238.833 1.80273Z" fill="#1F3475" stroke="#1F3475" stroke-width="1.74902" stroke-miterlimit="10"/>
<path d="M292.501 29.9748C287.847 35.7261 267.5 37.1596 255.896 33.6497V1.85229H291.384V5.40562H261.122V14.7798C267.35 13.5114 273.499 13.6069 278.962 14.2151C287.021 15.1099 298.923 22.0428 292.501 29.9748ZM287.733 23.9454C285.455 14.1803 268.45 15.0404 261.122 16.6998V32.668C263.787 33.3196 268.881 33.7106 272.364 33.6932C283.071 33.6497 289.044 29.5665 287.733 23.9454Z" fill="#1F3475" stroke="#1F3475" stroke-width="1.74902" stroke-miterlimit="10"/>
<path d="M348.187 35.4686H344.387C342.055 21.9417 338.537 19.1963 336.337 16.1382H314.626V35.4686H309.4V4.29671L314.626 1.76855V14.2617H336.337C339.038 11.8725 342.627 6.54686 344.035 1.76855H348.187C345.733 8.84913 341.132 12.8629 337.551 15.3303C341.009 18.5534 346.999 25.7296 348.187 35.4686Z" fill="#1F3475" stroke="#1F3475" stroke-width="1.74902" stroke-miterlimit="10"/>
<path d="M393.667 34.4861L390.905 29.1778C386.726 23.0269 374.78 22.8792 367.566 25.1641L362.587 34.4861H360.326L377.454 3.29681L382.002 0.777344L399.183 34.4861H393.667ZM387.861 23.3049L378.343 4.98225L368.736 22.9834C372.273 21.9322 377.102 21.7845 380.929 21.993C383.586 22.1407 385.812 22.5577 387.861 23.2962V23.3049Z" fill="#1F3475" stroke="#1F3475" stroke-width="1.74902" stroke-miterlimit="10"/>
</g>
<defs>
<filter id="filter0_d_0_2246" x="78.9048" y="0.236328" width="51.1511" height="47.3618" filterUnits="userSpaceOnUse" color-interpolation-filters="sRGB">
<feFlood flood-opacity="0" result="BackgroundImageFix"/>
<feColorMatrix in="SourceAlpha" type="matrix" values="0 0 0 0 0 0 0 0 0 0 0 0 0 0 0 0 0 0 127 0" result="hardAlpha"/>
<feOffset dy="4"/>
<feGaussianBlur stdDeviation="2"/>
<feComposite in2="hardAlpha" operator="out"/>
<feColorMatrix type="matrix" values="0 0 0 0 0 0 0 0 0 0 0 0 0 0 0 0 0 0 0.25 0"/>
<feBlend mode="normal" in2="BackgroundImageFix" result="effect1_dropShadow_0_2246"/>
<feBlend mode="normal" in="SourceGraphic" in2="effect1_dropShadow_0_2246" result="shape"/>
</filter>
<clipPath id="clip0_0_2246">
<rect width="398.933" height="68.7815" fill="white" transform="translate(0.880859 0.246094)"/>
</clipPath>
</defs>
</svg>
