<svg width="69" height="70" viewBox="0 0 69 70" fill="none" xmlns="http://www.w3.org/2000/svg">
<path d="M23.5984 13.1623C23.5984 18.4893 18.9296 23.0472 12.8647 23.0472C6.79967 23.0472 2.13092 18.4893 2.13092 13.1623C2.13092 7.83532 6.79967 3.2774 12.8647 3.2774C18.9296 3.2774 23.5984 7.83532 23.5984 13.1623Z" fill="#1F3475" stroke="#1F3475" stroke-width="4.17199"/>
<path d="M66.7957 12.1904C66.7957 17.5174 62.1269 22.0753 56.0619 22.0753C49.9969 22.0753 45.3282 17.5174 45.3282 12.1904C45.3282 6.86339 49.9969 2.30548 56.0619 2.30548C62.1269 2.30548 66.7957 6.86339 66.7957 12.1904Z" fill="#1F3475" stroke="#1F3475" stroke-width="4.17199"/>
<path d="M66.2293 56.2014C66.2293 61.5283 61.5605 66.0863 55.4955 66.0863C49.4305 66.0863 44.7618 61.5283 44.7618 56.2014C44.7618 50.8744 49.4305 46.3165 55.4955 46.3165C61.5605 46.3165 66.2293 50.8744 66.2293 56.2014Z" fill="#1F3475" stroke="#1F3475" stroke-width="4.17199"/>
<path d="M23.8503 57.0842C23.8503 62.4112 19.1816 66.9691 13.1166 66.9691C7.05162 66.9691 2.38287 62.4112 2.38287 57.0842C2.38287 51.7572 7.05162 47.1993 13.1166 47.1993C19.1816 47.1993 23.8503 51.7572 23.8503 57.0842Z" fill="#1F3475" stroke="#1F3475" stroke-width="4.17199"/>
</svg>
