<svg width="400" height="70" viewBox="0 0 400 70" fill="none" xmlns="http://www.w3.org/2000/svg">
<g clip-path="url(#clip0_0_3463)">
<path d="M49.8213 1.9707H49.7509C48.6953 1.99677 47.622 2.08364 46.5664 2.21396C45.5899 2.33559 44.6398 2.59623 43.7425 2.98718H43.7249C43.0651 3.29125 42.3877 3.55189 41.6928 3.78646C39.0008 4.72474 36.1066 5.22864 33.0892 5.22864C30.0717 5.22864 27.1775 4.72474 24.4855 3.78646C23.7906 3.55189 23.1132 3.28256 22.4534 2.99587H22.4358C21.5385 2.59623 20.5884 2.3269 19.6119 2.21396C18.5563 2.08364 17.4918 1.99677 16.4274 1.9707H16.357C7.91173 2.29215 1.12913 9.02522 0.882812 17.3829C0.918001 18.8077 1.11154 20.3802 1.57779 22.0396C1.79772 22.8302 2.11441 23.586 2.48389 24.3158C2.83578 25.0021 3.36361 26.036 3.97061 27.2436C4.04978 27.4087 4.13776 27.5737 4.22573 27.7475C5.20221 29.7109 6.34584 32.0567 7.29593 34.1417C8.56272 36.9392 9.33687 39.867 9.59198 42.8469C9.69755 44.0806 9.78552 45.5488 9.82951 47.269C9.82951 47.5384 9.8471 47.8077 9.8471 48.0857C9.8471 48.5722 9.8559 49.0848 9.8559 49.6061C9.8559 51.2394 10.0318 52.7858 10.3046 54.2106C10.5421 55.4617 10.85 56.6085 11.1931 57.6423C11.8792 59.7361 12.671 61.3346 13.1636 62.2208C13.1636 62.2208 13.1636 62.2295 13.1724 62.2382C14.7031 64.6534 16.876 66.6255 19.4536 67.9374C19.5416 67.9634 21.8464 68.6758 22.3918 67.0773C23.0252 65.2181 22.7085 59.7187 22.5062 57.0602C22.3566 55.0273 21.1338 53.2115 19.2776 52.3254C19.2512 52.308 19.2249 52.2993 19.1897 52.2819C16.788 51.1612 12.7326 48.3637 11.6417 47.2951C11.5537 47.2082 11.2986 46.965 11.1491 46.7999C10.5949 46.1917 11.1755 45.1926 11.9672 45.4185C12.0816 45.4533 12.1959 45.5054 12.3015 45.5923C12.4159 45.6792 13.6299 47.0432 13.6299 47.0432C15.187 48.5983 16.6649 49.3889 16.7529 49.4584C17.2719 49.8146 19.304 51.1351 19.3656 49.9362C19.3656 49.7624 17.7469 46.2439 16.5593 43.8895C15.2837 41.3439 13.5595 35.8619 13.4891 32.8386C13.4891 32.5866 13.5683 32.3347 13.7354 32.1435C14.0609 31.7786 14.3776 31.8568 14.4216 32.2738C14.5976 34.2112 14.8967 35.7316 15.2925 37.3649C15.3189 37.4779 15.8028 39.2589 16.1898 40.2058C16.4626 40.8661 16.788 41.6741 16.788 41.6741C17.3511 42.7427 18.4155 40.4491 18.4243 40.423C18.4243 40.423 20.2189 36.5483 19.6295 30.5623C19.5943 30.2235 19.8582 29.9368 20.2013 29.9368H20.2629C20.7468 29.9368 21.1338 30.3451 21.0898 30.823C20.9139 32.7864 20.4565 37.391 20.1222 38.3206C20.1046 38.364 19.6383 41.2484 18.046 43.2118C17.8613 43.4377 17.8173 43.7505 17.9405 44.0198C18.7674 45.8703 21.8992 52.7597 23.2012 53.394C24.424 54.0021 30.5732 45.905 32.7637 42.9425C33.1243 42.456 33.8809 42.5081 34.1624 43.0468L34.2416 43.1858C34.3911 43.4725 34.3647 43.82 34.1536 44.0719C32.7285 45.8442 26.9927 52.4817 25.7699 53.6025C24.248 55.0012 24.3976 55.9742 24.38 56.2957L24.1776 66.5647C24.1688 67.1468 24.2832 67.7376 24.5471 68.2588C24.6263 68.4065 24.7583 68.5455 24.9342 68.6845C25.6028 69.2145 26.5529 69.2927 27.2918 68.8583C27.2918 68.8583 27.2918 68.8583 27.3006 68.8583H27.3182V68.8496C28.11 68.2501 28.717 67.3553 29.1128 66.2346C29.3592 65.5482 29.5263 64.7837 29.6319 63.941C29.6847 63.524 29.7286 62.325 29.7286 61.491C29.7286 61.1782 29.7374 60.8655 29.755 60.5614C29.9574 56.7475 31.3737 53.7936 33.0892 53.7936C34.8046 53.7936 36.2209 56.7475 36.4233 60.5614C36.4409 60.8655 36.4497 61.1782 36.4497 61.491C36.4497 62.325 36.4936 63.524 36.5464 63.941C36.6432 64.775 36.8191 65.5482 37.0655 66.2346C37.4701 67.3553 38.0683 68.2415 38.8601 68.8496C38.8601 68.8496 38.8689 68.8496 38.8777 68.8496C38.8777 68.8496 38.8777 68.8496 38.8865 68.8496C40.1621 69.5968 41.8071 68.7714 42.0007 67.3292C42.0271 67.1294 42.0446 66.9122 42.0446 66.6776C42.0622 65.8957 41.9039 56.4434 41.8511 53.2202C41.8335 52.1603 41.6576 51.1177 41.2969 50.1186C41.077 49.5192 41.033 49.3715 40.4084 48.5375C39.9069 47.8772 36.8103 45.8095 34.9981 42.7861C33.0716 39.5803 32.3238 35.497 32.0511 34.4197C31.9895 34.1765 32.1039 33.9245 32.3326 33.8029L32.6141 33.6552C32.9396 33.4901 33.3355 33.6639 33.4146 34.0114C33.7577 35.4623 34.4175 39.1546 36.2297 42.2388C38.3938 45.8964 42.0798 48.1204 42.854 47.8424C43.7953 47.5036 47.8771 38.5899 48.0003 37.7037C48.0267 37.5387 49.1967 35.1756 48.8624 34.6804C46.8391 31.7526 45.7482 27.8257 45.7482 27.8257C43.892 22.2481 44.6222 18.6166 45.1412 17.4437C45.194 17.3308 45.1676 17.2092 45.326 17.1396C45.5019 17.0528 45.7219 17.131 45.8186 17.296C46.6104 18.6687 45.6427 21.1534 46.496 25.7667C46.8567 27.7127 49.6454 34.9844 50.8946 33.994C52.0206 33.1079 53.736 30.8577 54.4134 27.0177C55.3195 21.8832 54.0879 21.8832 54.2199 20.6322C54.2727 20.0935 55.038 19.7721 55.5922 20.2325C56.6655 21.1274 56.9998 23.8119 55.2667 29.1636C53.8944 33.412 51.4576 34.385 49.8125 37.6864C48.6953 39.9365 46.3728 44.1154 46.6983 44.6279C47.191 45.4012 48.6689 44.0632 48.8624 43.9155C49.2407 43.6202 50.6922 42.4212 50.6922 42.4212C52.047 41.2744 53.6217 39.6237 54.1495 39.0069C54.1495 39.0069 55.6978 37 56.1641 37.8254C56.1641 37.8254 56.4544 39.0504 55.0996 40.5012C54.2375 41.4221 49.7773 45.2013 47.1646 46.7825C45.9066 47.547 45.1236 48.6765 44.6398 49.7103C44.1384 50.7876 43.892 51.9605 43.8569 53.1507C43.7777 55.9047 43.549 64.775 43.8832 66.5473C44.2791 68.7019 45.15 68.5976 45.3436 68.5542C48.5281 67.2945 51.2113 65.0704 53.0147 62.2382L53.0235 62.2208C53.5161 61.3346 54.3079 59.7361 54.994 57.6423C55.3371 56.6085 55.645 55.4617 55.8825 54.2193C56.1553 52.7945 56.3312 51.2394 56.3312 49.6147C56.3312 49.0935 56.3312 48.5809 56.34 48.0944C56.34 47.8077 56.3488 47.5384 56.3576 47.269C56.4016 45.5488 56.4896 44.0806 56.5951 42.8469C56.8502 39.867 57.6244 36.9392 58.8912 34.1417C59.8413 32.0567 60.9761 29.7109 61.9614 27.7475C62.0493 27.5737 62.1285 27.4087 62.2165 27.2436C62.8235 26.036 63.3513 25.0108 63.7032 24.3158C64.0815 23.586 64.3982 22.8302 64.6093 22.0396C65.0756 20.3889 65.2691 18.8164 65.3043 17.3829C65.058 9.02522 58.2754 2.28346 49.8301 1.9707H49.8213Z" fill="#1F3475"/>
<path d="M102.546 68.8643H87.3005C85.11 68.8643 83.3418 66.8313 83.3418 64.3119V56.6579C83.3418 54.1384 85.11 52.1055 87.3005 52.1055H102.546V55.0246H85.8754V65.9626H102.546V68.8817V68.8643Z" fill="#1F3475"/>
<path d="M128.285 55.0168H120.06V68.8652H117.526V55.0168H109.301V52.0977H128.294V55.0168H128.285Z" fill="#1F3475"/>
<path d="M154.448 64.3119C154.448 66.8313 152.68 68.8643 150.49 68.8643H139.203C137.012 68.8643 135.244 66.8313 135.244 64.3119V56.6579C135.244 54.1384 137.012 52.1055 139.203 52.1055H150.49C152.68 52.1055 154.448 54.1384 154.448 56.6579V64.3119ZM151.915 65.9539V55.0159H137.778V65.9539H151.915Z" fill="#1F3475"/>
<path d="M186.733 68.8639H184.226V53.7731L177.153 67.4999C176.652 68.4729 175.754 69.1419 174.699 69.1419C173.643 69.1419 172.746 68.4729 172.244 67.4999L165.198 53.7731V68.8639H162.664V55.1024C162.664 53.2779 163.931 51.8184 165.514 51.8184C166.596 51.8184 167.494 52.5134 168.022 53.5212L174.699 66.5529L181.402 53.5212C181.903 52.5221 182.827 51.8184 183.883 51.8184C185.466 51.8184 186.733 53.2779 186.733 55.1024V68.8639Z" fill="#1F3475"/>
<path d="M213.925 68.8643H197.994C195.803 68.8643 194.035 66.8313 194.035 64.3119V63.5821C194.035 61.0626 195.803 59.0297 197.994 59.0297H211.392V55.0246H194.721V52.1055H209.967C212.157 52.1055 213.925 54.1384 213.925 56.6579V68.8643ZM211.392 65.9452V61.9401H196.569V65.9452H211.392Z" fill="#1F3475"/>
<path d="M239.875 55.0168H231.65V68.8652H229.116V55.0168H220.891V52.0977H239.884V55.0168H239.875Z" fill="#1F3475"/>
<path d="M266.042 64.3119C266.042 66.8313 264.274 68.8643 262.083 68.8643H250.797C248.606 68.8643 246.838 66.8313 246.838 64.3119V56.6579C246.838 54.1384 248.606 52.1055 250.797 52.1055H262.083C264.274 52.1055 266.042 54.1384 266.042 56.6579V64.3119ZM263.508 65.9539V55.0159H249.371V65.9539H263.508Z" fill="#1F3475"/>
<path d="M271.783 68.8669L281.328 53.5329C281.935 52.5599 282.885 51.8301 284.02 51.8301C285.155 51.8301 286.105 52.5599 286.712 53.5329L296.23 68.8669H293.037L283.993 54.0802L274.976 68.8669H271.783Z" fill="#1F3475"/>
<path d="M321.401 64.3119C321.401 66.8313 319.633 68.8643 317.443 68.8643H306.156C303.965 68.8643 302.197 66.8313 302.197 64.3119V56.6579C302.197 54.1384 303.965 52.1055 306.156 52.1055H317.443C319.633 52.1055 321.401 54.1384 321.401 56.6579V64.3119ZM318.868 65.9539V55.0159H304.731V65.9539H318.868Z" fill="#1F3475"/>
<path d="M329.623 56.6579C329.623 54.1384 331.391 52.1055 333.582 52.1055H345.027V55.0246H332.157V68.873H329.623V56.6666V56.6579Z" fill="#1F3475"/>
<path d="M355.37 66.7731L367.316 52.8031C367.844 52.195 368.556 51.8301 369.348 51.8301C370.932 51.8301 372.198 53.2896 372.198 55.1141V68.8756H369.665V54.2105L357.718 68.1806C357.191 68.7887 356.478 69.1536 355.686 69.1536C354.103 69.1536 352.836 67.694 352.836 65.8696V52.1081H355.37V66.7731Z" fill="#1F3475"/>
<path d="M382.032 62.3059C381.055 61.6977 380.422 60.603 380.422 59.2043V56.6501C380.422 54.1306 382.19 52.0977 384.381 52.0977H399.626V68.8652H397.092V63.7654H382.955V68.8652H380.422V65.3987C380.422 64 381.055 62.9053 382.032 62.2972V62.3059ZM397.092 55.0168H382.955V60.8463H397.092V55.0168Z" fill="#1F3475"/>
<path d="M122.232 1.74414V33.9673C120.736 36.452 113.012 39.1192 103.731 38.8151C97.7931 38.624 88.996 37.425 85.2308 33.7762H90.4563C93.3418 36.0611 99.5086 36.9125 103.731 37.0602C110.866 37.3034 116.645 35.3747 117.006 33.9586V27.0605C105.719 31.2219 90.342 29.1455 85.7587 21.9781C84.3687 19.8061 83.7793 17.7124 83.7793 15.7402V4.26361L89.0048 1.74414V14.5934C89.0048 20.6923 92.5588 26.2525 100.643 27.3993C104.62 27.964 109.221 27.5122 113.83 25.9224C113.786 25.9397 115.264 25.21 117.015 24.124V4.2723L122.24 1.74414H122.232Z" fill="#1F3475" stroke="#1F3475" stroke-width="1.74902" stroke-miterlimit="10"/>
<path d="M170.521 35.5916V3.70726C158.249 3.9592 144.253 10.6228 142.177 35.5916H136.951C140.338 6.98257 158.24 2.14345 170.521 1.8915L175.747 1.88281V35.5916H170.521Z" fill="#1F3475" stroke="#1F3475" stroke-width="1.74902" stroke-miterlimit="10"/>
<path d="M229.051 15.4015C235.473 25.4446 224.916 33.9761 216.858 35.1055C209.513 36.1306 200.927 36.0003 192.578 32.0734V4.44613L197.804 1.91797V10.3104C209.09 6.14894 224.468 8.22533 229.051 15.4015ZM214.166 9.98896C210.19 9.42425 205.589 9.87602 200.979 11.4659C201.023 11.4485 199.545 12.1783 197.795 13.2643V32.0647C203.97 34.4018 224.714 36.8691 225.62 22.7861C226.025 16.4701 222.251 11.1271 214.158 9.98027L214.166 9.98896ZM238.833 1.91797V35.6441H233.608V4.43744L238.833 1.91797Z" fill="#1F3475" stroke="#1F3475" stroke-width="1.74902" stroke-miterlimit="10"/>
<path d="M292.501 30.0893C287.848 35.8406 267.5 37.2741 255.896 33.7642V1.9668H291.384V5.52012H261.122V14.8943C267.35 13.6259 273.5 13.7214 278.963 14.3296C287.021 15.2244 298.923 22.1573 292.501 30.0893ZM287.733 24.0599C285.455 14.2948 268.45 15.1549 261.122 16.8143V32.7825C263.788 33.4341 268.881 33.8251 272.365 33.8077C283.071 33.7642 289.044 29.681 287.733 24.0599Z" fill="#1F3475" stroke="#1F3475" stroke-width="1.74902" stroke-miterlimit="10"/>
<path d="M348.187 35.5829H344.387C342.055 22.056 338.537 19.3106 336.337 16.2525H314.626V35.5829H309.4V4.41097L314.626 1.88281V14.3759H336.337C339.038 11.9868 342.627 6.66112 344.035 1.88281H348.187C345.733 8.96339 341.132 12.9772 337.551 15.4445C341.009 18.6677 346.999 25.8438 348.187 35.5829Z" fill="#1F3475" stroke="#1F3475" stroke-width="1.74902" stroke-miterlimit="10"/>
<path d="M393.667 34.6013L390.905 29.2931C386.726 23.1421 374.78 22.9944 367.566 25.2793L362.587 34.6013H360.326L377.454 3.41205L382.002 0.892578L399.183 34.6013H393.667ZM387.861 23.4201L378.343 5.09749L368.736 23.0987C372.273 22.0474 377.102 21.8997 380.929 22.1083C383.586 22.2559 385.812 22.673 387.861 23.4114V23.4201Z" fill="#1F3475" stroke="#1F3475" stroke-width="1.74902" stroke-miterlimit="10"/>
</g>
<defs>
<clipPath id="clip0_0_3463">
<rect width="398.933" height="68.7815" fill="white" transform="translate(0.880859 0.361328)"/>
</clipPath>
</defs>
</svg>
