<svg width="87" height="89" viewBox="0 0 87 89" fill="none" xmlns="http://www.w3.org/2000/svg">
<path d="M9.94708 81.8331C4.65882 81.8331 1.3389 78.067 1.3389 72.0701V72.0439C1.3389 66.0733 4.67195 62.2941 9.94708 62.2941C15.2222 62.2941 18.5421 66.0733 18.5421 72.0439V72.0701C18.5421 78.067 15.2353 81.8331 9.94708 81.8331ZM9.94708 80.1665C14.1199 80.1665 16.705 76.991 16.705 72.0701V72.0439C16.705 67.0968 14.0806 63.9606 9.94708 63.9606C5.80046 63.9606 3.16289 67.0837 3.16289 72.0439V72.0701C3.16289 77.0303 5.78733 80.1665 9.94708 80.1665ZM30.4906 67.8841V69.3407H25.8454V81.5312H24.1132V69.3407H19.4811V67.8841H30.4906ZM36.1405 81.7806C33.188 81.7806 31.154 80.2846 30.826 78.1195L30.8129 78.0014H32.5581L32.6106 78.1457C32.978 79.4448 34.1984 80.324 36.1405 80.324C38.2138 80.324 39.5654 79.3398 39.5654 77.7389V77.7127C39.5654 76.033 38.3319 75.2588 36.088 75.2588H33.9753V73.8023H36.088C38.1219 73.8023 39.2111 72.9493 39.2111 71.4534V71.4271C39.2111 69.9837 38.1088 69.0914 36.2848 69.0914C34.4346 69.0914 33.188 70.0362 32.9124 71.309L32.8862 71.4009H31.1934L31.2196 71.2828C31.5739 69.1439 33.4242 67.6348 36.2848 67.6348C39.1586 67.6348 40.917 69.052 40.917 71.309V71.3353C40.917 72.8706 39.841 74.0909 38.345 74.3928V74.4846C40.1034 74.7995 41.2844 75.8756 41.2844 77.6208V77.6471C41.2844 80.1797 39.2111 81.7806 36.1405 81.7806ZM43.1682 81.5312V67.8841H44.9134V72.5163H47.8528C50.8578 72.5163 52.7999 74.2484 52.7999 77.0041V77.0303C52.7999 79.786 50.8578 81.5312 47.8528 81.5312H43.1682ZM54.5451 81.5312V67.8841H56.2904V81.5312H54.5451ZM47.8265 73.9728H44.9134V80.0747H47.8265C49.7949 80.0747 51.0284 78.8674 51.0284 77.0303V77.0041C51.0284 75.167 49.7818 73.9728 47.8265 73.9728ZM58.7909 81.5312V67.8841H64.3022C66.8611 67.8841 68.4226 69.2095 68.4226 71.3353V71.3615C68.4226 72.8575 67.4253 74.1303 66.0344 74.4059V74.4846C67.7927 74.6946 69.0787 75.8624 69.0787 77.6471V77.6733C69.0787 80.1009 67.3072 81.5312 64.3678 81.5312H58.7909ZM60.5361 73.8023H63.8167C65.6932 73.8023 66.7036 73.0018 66.7036 71.519V71.4927C66.7036 70.1149 65.7588 69.3407 64.0791 69.3407H60.5361V73.8023ZM60.5361 80.0747H64.2235C66.2312 80.0747 67.3072 79.248 67.3072 77.6339V77.6077C67.3072 76.033 66.1 75.2588 63.9086 75.2588H60.5361V80.0747ZM70.9493 81.5312V67.8841H72.6946V72.5163H75.634C78.639 72.5163 80.5811 74.2484 80.5811 77.0041V77.0303C80.5811 79.786 78.639 81.5312 75.634 81.5312H70.9493ZM82.3263 81.5312V67.8841H84.0716V81.5312H82.3263ZM75.6077 73.9728H72.6946V80.0747H75.6077C77.5761 80.0747 78.8096 78.8674 78.8096 77.0303V77.0041C78.8096 75.167 77.5629 73.9728 75.6077 73.9728Z" fill="#1F3475"/>
<rect x="18.3734" y="2.12535" width="50.6237" height="52.1611" rx="8.69776" stroke="#1F3475" stroke-width="2.48507"/>
<path d="M38.9341 11.8222C36.9897 12.0251 35.0396 12.8029 33.422 14.0259C32.8302 14.4712 31.8101 15.4913 31.3648 16.0831C28.682 19.6339 28.3664 24.3288 30.5476 28.1839C30.7167 28.4882 31.021 28.9504 31.2183 29.2097C31.4099 29.4689 31.5903 29.7056 31.6072 29.7395C31.6241 29.7733 31.0943 30.3933 30.4236 31.1203C29.7529 31.853 29.1836 32.5124 29.1554 32.5913C29.0145 32.9633 29.1949 33.448 29.55 33.634C29.736 33.7355 29.9952 33.7411 35.2199 33.7411H40.687L40.7884 34.1526C40.9068 34.6767 41.3013 35.6405 41.6113 36.1759C42.7892 38.2218 44.6886 39.6929 46.9431 40.3128C47.997 40.6003 48.3408 40.6172 52.9963 40.6172C57.0881 40.6172 57.3192 40.6116 57.5052 40.5101C57.7419 40.3861 57.956 40.0423 57.956 39.783C57.956 39.4843 57.8208 39.2871 56.8965 38.2895L56.0285 37.3482L56.2483 37.0495C57.1106 35.8828 57.6799 34.4738 57.8715 33.0253C58.2942 29.8071 56.9246 26.6621 54.2757 24.7571C53.4697 24.1822 52.3932 23.675 51.4914 23.4496L51.08 23.3481V22.7619C51.08 18.0445 48.0308 13.8174 43.5557 12.3295C42.0847 11.8391 40.4671 11.6644 38.9341 11.8222ZM41.0928 13.5131C42.1467 13.6258 43.1387 13.9132 44.1194 14.381C48.1999 16.348 50.274 20.9753 49.0171 25.332C48.0985 28.5164 45.3875 31.064 42.1354 31.7967C41.0702 32.039 40.5911 32.0559 36.1161 32.039L31.8946 32.0221L32.6724 31.1767C33.1007 30.7089 33.484 30.258 33.5347 30.1678C33.6418 29.9649 33.6418 29.5422 33.5347 29.3844C33.4896 29.3168 33.2924 29.08 33.1007 28.8659C30.9308 26.3972 30.2319 22.9536 31.2746 19.8255C32.6498 15.6773 36.7529 13.0396 41.0928 13.5131ZM51.8352 25.3489C56.3047 27.1356 57.6855 32.783 54.5575 36.4521C54.1235 36.9593 54.0671 37.0664 54.0671 37.3482C54.0671 37.6639 54.1573 37.8104 54.7209 38.4191L55.1662 38.8982L54.7153 38.9151C54.4673 38.9263 52.9061 38.9207 51.2491 38.9094C47.9914 38.8869 47.9688 38.8869 46.9712 38.5544C45.2635 37.9851 43.7136 36.6381 42.9189 35.0262C42.6821 34.5527 42.3383 33.5777 42.3778 33.5044C42.3891 33.4875 42.4849 33.448 42.5863 33.4311C43.0823 33.324 44.1983 32.9126 44.8521 32.597C47.1121 31.4923 48.9495 29.6437 50.0147 27.4005C50.3078 26.7805 50.6291 25.89 50.7474 25.3827L50.8207 25.0502L51.0462 25.0897C51.1758 25.1066 51.5309 25.2249 51.8352 25.3489Z" fill="#1F3475"/>
<path d="M36.3818 17.925C35.6153 18.1166 34.7755 18.6915 34.319 19.334C33.2876 20.7768 33.406 22.6199 34.6516 24.5643C35.4913 25.8663 37.1033 27.45 38.9125 28.7407C39.6508 29.2648 39.803 29.3438 40.1073 29.3438C40.4004 29.3438 40.6935 29.1803 41.6234 28.4871C42.9592 27.4951 44.3739 26.1424 45.1122 25.1561C46.6903 23.0482 46.989 21.0136 45.9463 19.458C45.5744 18.9 45.1347 18.5168 44.5148 18.2124C43.8779 17.9024 43.4721 17.8235 42.6999 17.8573C41.7812 17.8968 41.0655 18.1899 40.3722 18.7929L40.0904 19.0409L39.8086 18.7929C39.4254 18.4548 38.9914 18.2011 38.501 18.032C38.1572 17.9081 37.9712 17.8799 37.3851 17.8686C36.9285 17.8573 36.5735 17.8742 36.3818 17.925ZM38.1854 19.7229C38.6307 19.9427 39.0985 20.4556 39.2281 20.8727C39.4028 21.4306 39.7861 21.6899 40.2877 21.5997C40.5582 21.549 40.8457 21.2503 40.9358 20.9177C41.0655 20.4443 41.4713 19.9991 42.0067 19.7229C42.2885 19.582 42.373 19.5651 42.9085 19.5651C43.4383 19.5651 43.5284 19.582 43.7821 19.7172C44.1371 19.9032 44.5655 20.3598 44.7177 20.7036C45.27 21.9999 44.3006 23.9274 42.0912 25.9226C41.4713 26.4806 40.1862 27.4838 40.0904 27.4838C40.0002 27.4838 38.9237 26.6553 38.2474 26.0579C35.931 24.0289 34.8939 22.0281 35.4632 20.7036C35.6661 20.2301 36.1959 19.7567 36.7087 19.5876C36.7876 19.5594 37.0807 19.5482 37.3625 19.5538C37.7852 19.5651 37.9261 19.5933 38.1854 19.7229Z" fill="#1F3475"/>
</svg>
