<svg width="55" height="56" viewBox="0 0 55 56" fill="none" xmlns="http://www.w3.org/2000/svg">
<rect x="2.21129" y="2.19761" width="50.6237" height="52.1611" rx="8.69776" stroke="#1F3475" stroke-width="2.48507"/>
<path d="M26.1485 11.242C24.6536 11.3793 22.6782 11.8369 21.3587 12.3479C16.2258 14.3615 12.2979 18.7927 10.9784 24.0553C10.5742 25.6646 10.4827 26.4807 10.4827 28.2807C10.4827 30.0806 10.5742 30.8967 10.9784 32.506C12.4657 38.4474 17.2249 43.2372 23.174 44.7854C24.8595 45.2202 25.668 45.3193 27.5213 45.3193C29.3213 45.3193 30.1374 45.2278 31.7467 44.8236C37.6881 43.3363 42.4778 38.5771 44.0261 32.6281C44.4608 30.9425 44.56 30.134 44.56 28.2807C44.56 26.4273 44.4608 25.6189 44.0261 23.9333C42.3253 17.3894 36.8186 12.4395 30.0764 11.3869C29.3365 11.2725 26.8349 11.181 26.1485 11.242ZM29.0543 12.4928C34.5305 13.0496 39.3126 16.3673 41.7456 21.302C44.7812 27.4493 43.5075 34.817 38.5728 39.622C37.2762 40.8804 36.094 41.7194 34.5 42.505C30.1298 44.6634 25.0349 44.6787 20.6342 42.5507C15.669 40.1559 12.2903 35.3127 11.7335 29.8137C11.3293 25.7333 12.6258 21.4317 15.2343 18.2665C15.7529 17.6258 16.9961 16.3902 17.6063 15.9021C20.7638 13.3623 25.0426 12.0886 29.0543 12.4928Z" fill="#1F3475" stroke="#1F3475" stroke-width="0.745522"/>
<path d="M21.5301 22.2868C20.7598 22.6223 20.5767 23.6444 21.1792 24.2469C22.0335 25.1087 23.4368 24.3384 23.2156 23.1334C23.0784 22.4164 22.2165 21.9817 21.5301 22.2868Z" fill="#1F3475" stroke="#1F3475" stroke-width="0.745522"/>
<path d="M32.5203 22.2868C31.75 22.6223 31.5669 23.6444 32.1695 24.2469C33.0237 25.1087 34.4271 24.3384 34.2059 23.1334C34.0686 22.4164 33.2067 21.9817 32.5203 22.2868Z" fill="#1F3475" stroke="#1F3475" stroke-width="0.745522"/>
<path d="M16.9456 28.4353C16.6939 28.6641 16.6711 28.8548 16.8083 29.4878C17.2583 31.5013 18.227 33.2479 19.7447 34.7657C21.3845 36.4131 23.2531 37.4199 25.5183 37.8699C26.3649 38.0377 28.5157 38.0529 29.3547 37.9004C31.6428 37.4809 33.6411 36.436 35.2656 34.8115C36.7986 33.2708 37.7901 31.4937 38.2401 29.4878C38.3774 28.8548 38.3545 28.6641 38.1028 28.4353C37.7291 28.0845 37.1952 28.3667 37.0961 28.9768C36.9969 29.6022 36.5851 30.7615 36.1961 31.5166C35.0215 33.8199 33.0538 35.4979 30.5674 36.3216C26.609 37.6411 22.1777 36.2377 19.6837 32.8742C18.8905 31.8064 18.2193 30.3192 17.9829 29.1141C17.8761 28.5573 17.6549 28.2828 17.3193 28.2828C17.2049 28.2828 17.0295 28.3514 16.9456 28.4353Z" fill="#1F3475" stroke="#1F3475" stroke-width="0.745522"/>
</svg>
