<svg width="28" height="28" viewBox="0 0 28 28" fill="none" xmlns="http://www.w3.org/2000/svg">
<g clip-path="url(#clip0_0_3910)">
<path d="M14.0766 0.440041L23.992 0.445087C24.2878 0.445238 24.5816 0.495232 24.8608 0.59297C26.0368 1.00957 26.8278 1.80059 27.2444 2.97656C27.3422 3.25581 27.3921 3.54955 27.3921 3.84541V13.8926C27.3921 23.9227 27.3868 24.4025 27.2972 24.7031C26.9175 25.9371 26.079 26.8125 24.8608 27.2449C24.5816 27.3427 24.2878 27.3926 23.992 27.3926H13.9184H3.8449C3.54904 27.3926 3.25531 27.3427 2.97606 27.2449L14.0766 0.440041ZM14.0766 0.440041C8.2284 0.434767 3.59305 0.450588 3.43485 0.476955L14.0766 0.440041ZM11.4663 19.5457C11.6192 19.6934 11.6878 19.7197 11.9093 19.7197C11.9696 19.7197 12.0179 19.7201 12.0649 19.7127C12.2645 19.6814 12.4421 19.51 13.428 18.5754C13.9554 18.0744 14.4036 17.6631 14.4194 17.6631C14.4405 17.6631 15.3686 18.2801 16.4866 19.0395C17.5993 19.7988 18.596 20.4369 18.6962 20.4633L18.5053 21.1886C18.4256 21.1676 18.3608 21.1363 18.3428 21.1276L18.3412 21.1268C18.3114 21.1124 18.2822 21.0969 18.2567 21.0829C18.205 21.0544 18.1437 21.0185 18.0776 20.9786C17.944 20.898 17.7686 20.7877 17.5654 20.6571C17.1582 20.3952 16.6253 20.0421 16.0645 19.6594L11.4663 19.5457ZM11.4663 19.5457C11.3081 19.3928 11.2184 19.166 10.5645 17.2412L11.4663 19.5457ZM5.08351 14.2708C4.8915 14.0725 4.73094 13.7818 4.73094 13.4443L4.73066 13.4238L4.73064 13.4224C4.73046 13.4124 4.73013 13.3943 4.73023 13.375C4.73043 13.3346 4.73223 13.2623 4.74876 13.177C4.78862 12.9712 4.89132 12.7998 5.03254 12.6635C5.15108 12.5491 5.2918 12.4642 5.42022 12.3965C5.55575 12.325 5.7246 12.2486 5.93076 12.1627C6.70465 11.8403 8.24653 11.285 11.2898 10.1891C11.4446 10.1333 11.6032 10.0762 11.7659 10.0176L11.7667 10.0173C15.2057 8.78307 18.5734 7.57091 19.2515 7.32383C19.9331 7.07551 20.6664 6.81509 20.8739 6.74409L20.8739 6.74407L20.8795 6.7422C21.1152 6.66364 21.3746 6.59769 21.6491 6.608C21.9469 6.61919 22.1944 6.71635 22.4129 6.85271C22.6343 6.98867 22.7948 7.18856 22.8963 7.35841C22.9949 7.52343 23.1059 7.77406 23.1059 8.05488C23.1059 8.10632 23.1003 8.14873 23.0994 8.15558L23.0993 8.15631C23.0974 8.17084 23.0954 8.18345 23.0941 8.1916C23.0913 8.20847 23.088 8.22602 23.0851 8.24148C23.079 8.2734 23.0706 8.31452 23.0607 8.3621C23.0408 8.45816 23.012 8.59274 22.9759 8.75894C22.9035 9.09196 22.8003 9.55922 22.6765 10.1153C22.4289 11.2277 22.0982 12.6996 21.7652 14.1726C21.4322 15.6457 21.0968 17.1208 20.84 18.2399C20.7116 18.7992 20.6026 19.2706 20.5233 19.6085C20.4837 19.7771 20.4512 19.9142 20.4271 20.0129C20.4151 20.0619 20.4047 20.104 20.3962 20.1366C20.3961 20.1371 20.3959 20.138 20.3956 20.139C20.392 20.1535 20.3759 20.2168 20.3554 20.27C20.3552 20.2703 20.3551 20.2707 20.3549 20.2711L19.6559 19.9992L5.08351 14.2708ZM5.08351 14.2708C5.07832 14.2652 5.07316 14.2595 5.06804 14.2537L5.6286 13.7555L5.09827 14.2858C5.09333 14.2809 5.08841 14.2759 5.08351 14.2708ZM3.22509 26.5375C3.42433 26.607 3.63386 26.6426 3.8449 26.6426H13.9184H23.992C24.203 26.6426 24.4125 26.6071 24.6116 26.5375C25.6046 26.1845 26.2695 25.4905 26.5796 24.485C26.5806 24.4812 26.5821 24.4745 26.5844 24.4583C26.5888 24.4275 26.5949 24.3692 26.6009 24.2574C26.613 24.0323 26.622 23.6463 26.6283 22.9398C26.6407 21.5327 26.6421 18.9096 26.6421 13.8926V3.84541C26.6421 3.63438 26.6065 3.42487 26.537 3.22565C26.196 2.2642 25.5734 1.64151 24.612 1.30048C24.4125 1.23082 24.2028 1.19519 23.9916 1.19509L14.0763 1.19004H14.076C11.1525 1.1874 8.5328 1.19004 6.62457 1.19663C5.67026 1.19992 4.89496 1.2042 4.34895 1.20929C4.07564 1.21184 3.86166 1.21457 3.71207 1.21744C3.6369 1.21889 3.58083 1.22032 3.54276 1.22167C3.53657 1.22189 3.53124 1.22209 3.5267 1.22228C2.39444 1.42922 1.394 2.45271 1.21384 3.61423C1.21453 3.6102 1.21434 3.61405 1.2136 3.6291C1.21254 3.65066 1.21034 3.69522 1.20799 3.77253C1.20422 3.89626 1.20069 4.07118 1.19745 4.30016C1.191 4.7574 1.1859 5.41908 1.18228 6.29468C1.17504 8.04529 1.17372 10.6434 1.17899 14.1551C1.17899 14.1551 1.17899 14.1551 1.17899 14.1551L1.19412 23.9913C1.19445 24.2028 1.23021 24.4127 1.29991 24.6123C1.64092 25.5738 2.26361 26.1965 3.22509 26.5375ZM7.55354 15.1705C7.5532 15.1704 7.55286 15.1703 7.55253 15.1702C7.55228 15.1702 7.55203 15.1701 7.55178 15.17L7.74852 14.4463L7.55354 15.1705ZM9.37748 15.6918C9.33232 15.6774 9.2776 15.6604 9.21414 15.6412C9.19467 15.588 9.17723 15.541 9.16199 15.5006C9.14102 15.445 9.12603 15.4067 9.11664 15.3838C9.11342 15.376 9.11195 15.3726 9.11196 15.3726C9.11196 15.3726 9.11242 15.3737 9.11329 15.3755C9.1143 15.3777 9.11942 15.3888 9.12776 15.4043L9.12781 15.4044C9.12922 15.4071 9.15992 15.4665 9.21463 15.5303L9.78407 15.0422L9.25373 15.5725C9.33407 15.6529 9.41524 15.6949 9.42357 15.6992L9.42419 15.6996C9.44707 15.7118 9.46445 15.7194 9.46974 15.7217C9.48155 15.7268 9.48597 15.7282 9.47654 15.7247C9.45995 15.7187 9.42808 15.7079 9.37748 15.6918ZM14.6232 18.4835C14.5832 18.5202 14.5399 18.5602 14.4938 18.603C14.3679 18.5195 14.2639 18.4511 14.1859 18.4005C14.1334 18.3665 14.0961 18.3427 14.073 18.3284C14.0674 18.3249 14.0637 18.3227 14.0618 18.3215C14.0595 18.3201 14.0596 18.3202 14.0616 18.3213C14.0622 18.3216 14.0741 18.3285 14.0917 18.3372C14.0996 18.3411 14.1207 18.3514 14.1491 18.3625C14.1633 18.368 14.1892 18.3776 14.2226 18.3867C14.2469 18.3934 14.3214 18.4131 14.4194 18.4131C14.5134 18.4131 14.5865 18.3953 14.6239 18.3846C14.6655 18.3728 14.6982 18.3596 14.7186 18.3507C14.7585 18.3332 14.7881 18.3161 14.8014 18.3081C14.8295 18.2913 14.8494 18.2767 14.8546 18.2729C14.868 18.2631 14.8754 18.2568 14.8715 18.26C14.8665 18.2641 14.8531 18.2756 14.8287 18.2972C14.7816 18.3387 14.7118 18.402 14.6232 18.4835Z" stroke="black" stroke-width="1.5"/>
<path d="M14.8461 12.1517C12.4941 13.5017 10.5588 14.6355 10.5324 14.6671C10.5113 14.7041 10.4902 14.799 10.4902 14.8728C10.4902 15.0521 11.624 18.3638 11.6926 18.3902C11.7611 18.4113 11.777 18.3164 11.9141 17.1088C11.9773 16.5867 12.0354 16.1068 12.0512 16.0435C12.067 15.9644 13.2957 14.9255 15.7004 12.9638C17.6937 11.3343 19.3391 9.97379 19.3602 9.94215C19.434 9.83668 19.376 9.72594 19.2441 9.71539C19.1545 9.70484 17.7781 10.4695 14.8461 12.1517Z" fill="black"/>
</g>
<defs>
<clipPath id="clip0_0_3910">
<rect width="27" height="27" fill="white" transform="translate(0.419922 0.419922)"/>
</clipPath>
</defs>
</svg>
