<svg width="52" height="52" viewBox="0 0 52 52" fill="none" xmlns="http://www.w3.org/2000/svg">
<path fill-rule="evenodd" clip-rule="evenodd" d="M36.0546 20.1292C36.0546 28.9619 28.9069 36.1136 20.1007 36.1136C11.2944 36.1136 4.14681 28.9619 4.14681 20.1292C4.14681 11.2965 11.2944 4.14486 20.1007 4.14486C28.9069 4.14486 36.0546 11.2965 36.0546 20.1292ZM32.5062 34.7254C29.1655 37.5765 24.8338 39.2975 20.1007 39.2975C9.53117 39.2975 0.962891 30.7156 0.962891 20.1292C0.962891 9.54287 9.53117 0.960938 20.1007 0.960938C30.6702 0.960938 39.2385 9.54287 39.2385 20.1292C39.2385 24.8278 37.5506 29.1317 34.749 32.4654L51.907 49.6506L49.6574 51.9037L32.5062 34.7254Z" fill="white"/>
</svg>
