<svg width="81" height="92" viewBox="0 0 81 92" fill="none" xmlns="http://www.w3.org/2000/svg">
<path d="M5.29309 75.6062V73.9921H7.77319C10.5157 73.9921 12.2872 72.5093 12.2872 70.331V70.3048C12.2872 68.2709 10.647 66.9586 8.04876 66.9586C5.55553 66.9586 3.90213 68.179 3.61344 70.1342L3.5872 70.3179H1.8157L1.82882 70.1342C2.10439 67.1555 4.54512 65.2921 8.11437 65.2921C11.6442 65.2921 14.1243 67.3261 14.1243 70.1605V70.1867C14.1243 72.365 12.6415 74.1102 10.3714 74.622V74.7007C13.0614 75.0026 14.6886 76.8003 14.6886 79.3985V79.4248C14.6886 82.5216 11.8673 84.8311 8.02251 84.8311C4.16458 84.8311 1.47452 82.7709 1.25144 79.8578L1.23832 79.6872H3.00982L3.02294 79.8053C3.24602 81.8392 5.22748 83.1646 8.00939 83.1646C10.9225 83.1646 12.8646 81.6555 12.8646 79.3854V79.3591C12.8646 76.9709 11.0669 75.6062 7.85192 75.6062H5.29309ZM20.5484 84.7786C17.8583 84.7786 16.0212 83.1646 16.0212 80.7501V80.7239C16.0212 78.4012 17.7796 76.9971 20.9158 76.7872L25.1674 76.5247V75.3437C25.1674 73.3754 23.9208 72.1813 21.795 72.1813C19.8136 72.1813 18.5145 73.1392 18.2258 74.6876L18.1995 74.8188H16.5199L16.533 74.6614C16.7954 72.3125 18.7375 70.6329 21.8213 70.6329C24.9443 70.6329 26.8996 72.3912 26.8996 75.1863V84.5293H25.1674V82.0361H25.1149C24.367 83.6632 22.5692 84.7786 20.5484 84.7786ZM17.7927 80.7501C17.7927 82.246 19.0525 83.2564 20.9027 83.2564C23.2909 83.2564 25.1674 81.5768 25.1674 79.3985V77.8894L21.1258 78.165C18.9869 78.2962 17.7927 79.2279 17.7927 80.7239V80.7501ZM29.3344 84.5293V70.8822H40.1603V84.5293H38.415V72.3387H31.0797V84.5293H29.3344ZM42.6739 84.5293V70.8822H44.4192V81.8524H44.511L52.0825 70.8822H53.8016V84.5293H52.0563V73.5722H51.9776L44.3929 84.5293H42.6739ZM61.8396 84.7786C58.0473 84.7786 55.6328 82.0361 55.6328 77.6926V77.6795C55.6328 73.3885 58.0867 70.6329 61.8265 70.6329C65.0021 70.6329 67.0623 72.693 67.4035 75.0419L67.4166 75.16H65.7107L65.6845 75.055C65.3039 73.4541 63.9523 72.1813 61.8265 72.1813C59.1627 72.1813 57.4174 74.3202 57.4174 77.7057V77.7189C57.4174 81.1569 59.189 83.2302 61.8396 83.2302C63.8736 83.2302 65.2777 82.0623 65.6845 80.3564L65.7107 80.2515H67.4297L67.4166 80.3564C67.0098 82.9021 64.8184 84.7786 61.8396 84.7786ZM69.1166 84.5293V70.8822H70.8619V75.5143H73.8013C76.8063 75.5143 78.7484 77.2465 78.7484 80.0021V80.0284C78.7484 82.784 76.8063 84.5293 73.8013 84.5293H69.1166ZM73.775 76.9709H70.8619V83.0727H73.775C75.7434 83.0727 76.9769 81.8655 76.9769 80.0284V80.0021C76.9769 78.165 75.7302 76.9709 73.775 76.9709Z" fill="#1F3475"/>
<g clip-path="url(#clip0_0_3493)">
<path d="M26.5603 0.378033C26.4188 0.423565 26.1948 0.617073 26.0533 0.787819C25.8293 1.06101 25.8058 1.23176 25.8058 2.55219V4.0206H24.0137C21.6558 4.03198 20.0407 4.17996 19.0268 4.4873C16.268 5.30688 14.0752 7.11678 12.8844 9.54136C11.8705 11.6245 11.953 9.58689 11.953 31.3968V50.7479L12.2831 51.7496C12.8255 53.4229 13.4385 54.4474 14.6528 55.6881C15.9733 57.0313 17.8714 58.0216 19.7931 58.3631C20.6891 58.5339 22.882 58.5452 40.4838 58.5225C58.9698 58.4883 60.2195 58.477 60.8679 58.2834C62.8957 57.7029 63.9803 57.0882 65.3597 55.7564C66.4797 54.6636 66.9985 53.9351 67.5526 52.6261C68.2835 50.8731 68.2599 51.8179 68.2246 30.9414L68.1892 11.9318L67.918 11.1008C66.9159 8.05019 65.1003 6.04678 62.3534 4.96539C60.8679 4.37347 59.9601 4.24826 57.0481 4.24826H54.4544V2.82538C54.4544 1.12931 54.3247 0.708138 53.6998 0.412182C53.3462 0.252819 53.2047 0.252819 52.8156 0.355267C52.0729 0.571541 51.9432 0.890266 51.8843 2.56357L51.8371 4.0206H40.0593H28.2816V2.65464C28.2816 1.11793 28.1637 0.730904 27.5742 0.434948C27.1969 0.241436 26.9376 0.230053 26.5603 0.378033ZM25.6879 7.94774C25.6879 9.50721 25.794 9.87147 26.2891 10.1219C26.8079 10.3723 27.2912 10.3154 27.7157 9.95115L28.1047 9.62104L28.1401 8.07295L28.1873 6.52486H40.1419H52.0965V7.83391C52.0965 9.26817 52.2379 9.7804 52.6977 10.0991C53.1929 10.4292 53.9356 10.2926 54.3601 9.7804C54.5369 9.58689 54.5723 9.29094 54.5723 8.02742V6.52486H57.0835C60.526 6.52486 61.4927 6.7639 63.1315 8.01604C63.9568 8.65348 64.6995 9.52998 65.1475 10.4065C65.7606 11.6245 65.8077 11.9432 65.8549 15.4264L65.9138 18.7047H40.189H14.4642L14.5114 15.3125C14.5585 12.2391 14.5821 11.8749 14.8061 11.3057C15.5488 9.37062 16.7514 8.01604 18.4373 7.21922C19.6516 6.63869 20.3 6.54763 23.1295 6.53624L25.6879 6.52486V7.94774ZM65.8902 35.6085C65.8902 45.819 65.8549 50.2926 65.7606 50.7137C65.5719 51.5788 64.9117 52.8993 64.334 53.5823C63.3201 54.7775 61.7403 55.7336 60.2548 56.0296C59.8068 56.1207 53.9946 56.1548 40.1536 56.1548C18.5552 56.1548 20.1114 56.2117 18.3783 55.3922C17.7299 55.0848 17.2583 54.7433 16.6099 54.1173C15.5842 53.1155 15.0537 52.2391 14.7236 50.9642C14.4996 50.1104 14.4878 49.6551 14.4878 35.5857V21.0951H40.189H65.8902V35.6085Z" fill="#1F3475"/>
</g>
<path d="M23.9106 30.059C23.9106 31.1925 22.9171 32.1624 21.6266 32.1624C20.336 32.1624 19.3425 31.1925 19.3425 30.059C19.3425 28.9255 20.336 27.9556 21.6266 27.9556C22.9171 27.9556 23.9106 28.9255 23.9106 30.059Z" fill="#1F3475" stroke="#1F3475" stroke-width="0.887711"/>
<path d="M33.102 29.8539C33.102 30.9874 32.1085 31.9573 30.818 31.9573C29.5274 31.9573 28.5339 30.9874 28.5339 29.8539C28.5339 28.7204 29.5274 27.7505 30.818 27.7505C32.1085 27.7505 33.102 28.7204 33.102 29.8539Z" fill="#1F3475" stroke="#1F3475" stroke-width="0.887711"/>
<path d="M23.9673 39.4066C23.9673 40.5402 22.9738 41.5101 21.6832 41.5101C20.3926 41.5101 19.3992 40.5402 19.3992 39.4066C19.3992 38.2731 20.3926 37.3032 21.6832 37.3032C22.9738 37.3032 23.9673 38.2731 23.9673 39.4066Z" fill="#1F3475" stroke="#1F3475" stroke-width="0.887711"/>
<defs>
<clipPath id="clip0_0_3493">
<rect width="60.3625" height="58.2811" fill="white" transform="translate(9.88892 0.261719)"/>
</clipPath>
</defs>
</svg>
