<svg width="42" height="44" viewBox="0 0 42 44" fill="none" xmlns="http://www.w3.org/2000/svg">
<path d="M11.7265 2.41402L11.8542 2.32547L13.114 1.45204L14.2462 0.667072L16.1885 0.659302L16.1905 0.659298L18.1261 0.659302L19.2113 1.44514L19.2126 1.44611L20.4206 2.32698L20.5523 2.42297H20.7152H23.134H25.0527V3.43469V4.94641V5.44641H25.5527H28.8701H31.6875V12.8157V20.6935V20.9045L31.8387 21.0517L32.4755 21.6718C32.4757 21.6719 32.4759 21.6721 32.476 21.6723C33.7758 22.9485 34.5609 24.4415 34.9211 26.3622L34.9214 26.3639C35.1583 27.604 35.0432 29.4032 34.6638 30.4794L34.6627 30.4824L34.5032 30.9443L34.4014 31.239L34.6212 31.4601L37.6272 34.4829L11.7265 2.41402ZM11.7265 2.41402L11.5711 2.41457L9.20275 2.42297H9.20098H7.32422M11.7265 2.41402L7.32422 2.42297M7.32422 2.42297V3.43469V4.94641V5.44641H6.82422H3.54883H0.773438V24.0529V42.6593H16.2305H31.6875V41.1269V39.1029V37.9125L32.5375 38.7458L34.2424 40.4171L34.2432 40.4178C34.7822 40.9485 35.2378 41.3812 35.5907 41.6971C35.7673 41.8552 35.9146 41.9809 36.0316 42.0738C36.1559 42.1726 36.2233 42.2159 36.2462 42.2277L36.2462 42.2277L36.2528 42.2312C37.9676 43.1472 39.926 42.5181 40.7927 40.7628L40.7938 40.7605C40.9544 40.4394 40.9976 40.3396 41.0214 40.212C41.0496 40.0612 41.0518 39.8646 41.0518 39.3464C41.0518 38.837 41.0478 38.6307 41.0206 38.4775C40.9977 38.3486 40.9578 38.252 40.8169 37.9616C40.7153 37.7553 40.6051 37.5758 40.1739 37.1012C39.7336 36.6167 38.9869 35.8552 37.6279 34.4835L7.32422 2.42297Z" stroke="white"/>
<path d="M5.3125 14.2333C5.3125 14.6776 5.67266 15.0377 6.11694 15.0377H12.9551H19.7932C20.2375 15.0377 20.5977 14.6776 20.5977 14.2333C20.5977 13.789 20.2375 13.4288 19.7932 13.4288H12.9551H6.11694C5.67266 13.4288 5.3125 13.789 5.3125 14.2333Z" fill="white"/>
<path d="M5.3125 19.7696C5.3125 20.2142 5.67291 20.5746 6.1175 20.5746H10.3516H14.5856C15.0302 20.5746 15.3906 20.2142 15.3906 19.7696C15.3906 19.325 15.0302 18.9646 14.5856 18.9646H10.3516H6.1175C5.67291 18.9646 5.3125 19.325 5.3125 19.7696Z" fill="white"/>
<path d="M5.3125 25.2215C5.3125 25.6661 5.67291 26.0265 6.1175 26.0265H8.58789H11.0583C11.5029 26.0265 11.8633 25.6661 11.8633 25.2215C11.8633 24.7769 11.5029 24.4165 11.0583 24.4165H8.58789H6.1175C5.67291 24.4165 5.3125 24.7769 5.3125 25.2215Z" fill="white"/>
<path d="M5.3125 30.2606C5.3125 30.7051 5.67291 31.0656 6.1175 31.0656H9.46973H12.822C13.2665 31.0656 13.627 30.7051 13.627 30.2606C13.627 29.816 13.2665 29.4556 12.822 29.4556H9.46973H6.1175C5.67291 29.4556 5.3125 29.816 5.3125 30.2606Z" fill="white"/>
<path d="M5.3125 35.2996C5.3125 35.7442 5.67291 36.1046 6.1175 36.1046H10.3516H14.5856C15.0302 36.1046 15.3906 35.7442 15.3906 35.2996C15.3906 34.855 15.0302 34.4946 14.5856 34.4946H10.3516H6.1175C5.67291 34.4946 5.3125 34.855 5.3125 35.2996Z" fill="white"/>
<path d="M26.9217 26.5472L25.2168 28.2521L24.6037 27.639L23.999 27.0343L23.092 27.9413L22.1934 28.84L23.7051 30.3517L25.2168 31.8634L27.8623 29.2179L30.5078 26.5724L29.6512 25.7157C29.1725 25.237 28.7525 24.8507 28.7021 24.8507C28.6602 24.8507 27.8539 25.615 26.9217 26.5472Z" fill="white"/>
</svg>
