<svg width="43" height="43" viewBox="0 0 43 43" fill="none" xmlns="http://www.w3.org/2000/svg">
<path d="M15.663 2.14161C13.3871 2.63711 11.6066 4.42598 11.1195 6.71875C11.0355 7.12188 11.0019 8.01211 11.0019 10.0949V12.9252L10.6912 12.9756C6.43315 13.6811 3.10737 16.4777 1.80561 20.4418C1.25131 22.1299 1.25131 22.1803 1.27651 30.8223L1.30171 38.5908L1.48647 38.9855C1.75522 39.5818 2.35151 40.1697 2.9646 40.4469L3.4853 40.6904H21.416H39.3466L39.9093 40.4133C40.556 40.0941 41.0011 39.6406 41.3119 38.9771L41.5302 38.5068V30.5703C41.5302 21.8779 41.5386 22.1215 41.0179 20.4922C40.4552 18.7453 39.6826 17.4939 38.3052 16.125C36.9615 14.7813 35.5757 13.9162 33.9632 13.4123C33.4509 13.2443 32.0652 12.9336 31.872 12.9336C31.8552 12.9336 31.83 11.5646 31.8132 9.88496C31.7796 6.9875 31.7712 6.81953 31.5865 6.25684C30.8726 4.09004 29.1089 2.49434 27.0093 2.10801C26.2451 1.96524 16.3181 1.99883 15.663 2.14161ZM27.4796 3.45176C29.0669 4.06485 30.1923 5.3666 30.5283 6.95391C30.6207 7.37383 30.6542 8.19688 30.6542 10.1789V12.8496H29.7724H28.8906V10.2125C28.8906 7.81055 28.8738 7.5334 28.7226 7.04629C28.5126 6.37442 28.1095 5.82012 27.5804 5.46738C26.7826 4.94668 26.833 4.94668 21.2396 4.97188L16.1669 4.99707L15.6042 5.27422C14.9576 5.59336 14.5124 6.04688 14.2017 6.71035C13.9917 7.16387 13.9833 7.23946 13.9582 8.95274L13.933 10.7248L14.1597 10.9096C14.4537 11.1363 14.6552 11.1363 14.9072 10.876C15.1171 10.6744 15.1171 10.6576 15.1171 9.17949C15.1171 8.33965 15.1591 7.5334 15.2095 7.34864C15.3355 6.91191 15.8982 6.34922 16.3349 6.22324C16.8136 6.08887 26.0687 6.09727 26.4634 6.22324C26.8917 6.37442 27.2781 6.68516 27.488 7.07988C27.6644 7.42422 27.6728 7.525 27.698 10.1369L27.7232 12.8496H19.9546H12.1777V10.1789C12.1777 7.23106 12.2197 6.80274 12.6312 5.9209C13.2443 4.61074 14.5628 3.55254 15.9234 3.28379C16.1669 3.2418 18.5605 3.20821 21.6259 3.2166L26.9169 3.2334L27.4796 3.45176ZM32.5019 14.227C36.0544 15.0668 38.7587 17.4436 39.8505 20.6938C40.3544 22.1803 40.3376 21.9703 40.3712 28.4035L40.4048 34.3496H25.8251H11.2455L11.0439 34.5596C10.7919 34.8115 10.7835 35.0131 11.0103 35.307L11.1783 35.5254H25.7915H40.3964V36.76C40.3964 37.4486 40.3544 38.1541 40.3041 38.3389C40.1697 38.8344 39.5986 39.3467 39.0527 39.4643C38.7503 39.5314 33.6105 39.5566 21.3404 39.5566C2.28432 39.5566 3.5021 39.5902 2.9646 39.0359C2.50268 38.5572 2.43549 38.2801 2.43549 36.8271V35.5254H5.57651C8.49917 35.5254 8.72592 35.517 8.91069 35.3742C9.17104 35.1559 9.17104 34.7191 8.91069 34.5008C8.72592 34.358 8.49917 34.3496 5.56811 34.3496H2.4271L2.46069 28.3615C2.49428 21.9367 2.48589 22.1131 2.9394 20.7273C4.11518 17.2168 7.39057 14.5545 11.0943 14.1178C11.4386 14.0758 16.2509 14.0506 21.7939 14.059C31.1078 14.0758 31.9224 14.0842 32.5019 14.227Z" fill="white"/>
<path d="M18.6781 18.317C18.5354 18.4766 18.5186 18.6613 18.4934 20.2906L18.4682 22.0879H16.6793C15.05 22.0879 14.882 22.1047 14.7561 22.2391C14.6301 22.3734 14.6133 22.6926 14.6133 24.9686V27.5385L14.8316 27.7064C15.0416 27.8744 15.1592 27.8828 16.7633 27.8828H18.4766V29.5625C18.4766 30.6543 18.5102 31.3094 18.5773 31.4521C18.7369 31.8049 19.0729 31.8469 21.5924 31.8133C23.7424 31.7881 23.9355 31.7797 24.0951 31.6285C24.2631 31.4773 24.2715 31.3934 24.2715 29.6717V27.8828H26.0268C27.6729 27.8828 27.7904 27.8744 28.0004 27.7064L28.2188 27.5385V24.9937C28.2188 22.9361 28.1936 22.4238 28.1012 22.2894C27.992 22.1467 27.8408 22.1299 26.1443 22.0879L24.3135 22.0459L24.2883 20.2402C24.2715 18.5186 24.2631 18.4262 24.0951 18.2834C23.9355 18.1574 23.6752 18.1406 21.374 18.1406C18.9049 18.1406 18.8377 18.149 18.6781 18.317ZM23.1125 21.1221C23.1377 22.7178 23.1545 22.9361 23.2889 23.0705C23.4232 23.2049 23.6416 23.2217 25.2373 23.2469L27.043 23.2721V24.9937V26.707H25.2457H23.44L23.2721 26.9254C23.1041 27.1353 23.0957 27.2529 23.0957 28.9074V30.6543L21.3992 30.6375L19.6943 30.6123L19.6691 28.815C19.6523 27.2865 19.6271 26.9842 19.5096 26.8582C19.3836 26.7238 19.2072 26.707 17.5779 26.707H15.7891V24.9853V23.2637H17.4771C19.1148 23.2637 19.4256 23.2217 19.5852 22.9781C19.6188 22.9277 19.6523 22.0795 19.6523 21.0969V19.3164H21.3656H23.0873L23.1125 21.1221Z" fill="white"/>
</svg>
