<svg width="81" height="92" viewBox="0 0 81 92" fill="none" xmlns="http://www.w3.org/2000/svg">
<path d="M5.29309 75.6059V73.9919H7.77319C10.5157 73.9919 12.2872 72.5091 12.2872 70.3308V70.3046C12.2872 68.2706 10.647 66.9584 8.04876 66.9584C5.55553 66.9584 3.90213 68.1788 3.61344 70.134L3.5872 70.3177H1.8157L1.82882 70.134C2.10439 67.1552 4.54512 65.2919 8.11437 65.2919C11.6442 65.2919 14.1243 67.3258 14.1243 70.1602V70.1865C14.1243 72.3647 12.6415 74.11 10.3714 74.6218V74.7005C13.0614 75.0023 14.6886 76.8001 14.6886 79.3983V79.4245C14.6886 82.5214 11.8673 84.8309 8.02251 84.8309C4.16458 84.8309 1.47452 82.7707 1.25144 79.8575L1.23832 79.687H3.00982L3.02294 79.8051C3.24602 81.839 5.22748 83.1643 8.00939 83.1643C10.9225 83.1643 12.8646 81.6553 12.8646 79.3851V79.3589C12.8646 76.9706 11.0669 75.6059 7.85192 75.6059H5.29309ZM20.5484 84.7784C17.8583 84.7784 16.0212 83.1643 16.0212 80.7499V80.7236C16.0212 78.401 17.7796 76.9969 20.9158 76.7869L25.1674 76.5245V75.3435C25.1674 73.3752 23.9208 72.181 21.795 72.181C19.8136 72.181 18.5145 73.139 18.2258 74.6874L18.1995 74.8186H16.5199L16.533 74.6611C16.7954 72.3123 18.7375 70.6326 21.8213 70.6326C24.9443 70.6326 26.8996 72.391 26.8996 75.186V84.5291H25.1674V82.0358H25.1149C24.367 83.663 22.5692 84.7784 20.5484 84.7784ZM17.7927 80.7499C17.7927 82.2458 19.0525 83.2562 20.9027 83.2562C23.2909 83.2562 25.1674 81.5766 25.1674 79.3983V77.8892L21.1258 78.1648C18.9869 78.296 17.7927 79.2277 17.7927 80.7236V80.7499ZM29.3344 84.5291V70.8819H40.1603V84.5291H38.415V72.3385H31.0797V84.5291H29.3344ZM42.6739 84.5291V70.8819H44.4192V81.8521H44.511L52.0825 70.8819H53.8016V84.5291H52.0563V73.572H51.9776L44.3929 84.5291H42.6739ZM61.8396 84.7784C58.0473 84.7784 55.6328 82.0358 55.6328 77.6924V77.6792C55.6328 73.3883 58.0867 70.6326 61.8265 70.6326C65.0021 70.6326 67.0623 72.6928 67.4035 75.0417L67.4166 75.1598H65.7107L65.6845 75.0548C65.3039 73.4539 63.9523 72.181 61.8265 72.181C59.1627 72.181 57.4174 74.32 57.4174 77.7055V77.7186C57.4174 81.1566 59.189 83.23 61.8396 83.23C63.8736 83.23 65.2777 82.0621 65.6845 80.3562L65.7107 80.2512H67.4297L67.4166 80.3562C67.0098 82.9019 64.8184 84.7784 61.8396 84.7784ZM69.1166 84.5291V70.8819H70.8619V75.5141H73.8013C76.8063 75.5141 78.7484 77.2462 78.7484 80.0019V80.0281C78.7484 82.7838 76.8063 84.5291 73.8013 84.5291H69.1166ZM73.775 76.9706H70.8619V83.0725H73.775C75.7434 83.0725 76.9769 81.8652 76.9769 80.0281V80.0019C76.9769 78.1648 75.7302 76.9706 73.775 76.9706Z" fill="#1F3475"/>
<g clip-path="url(#clip0_0_2276)">
<path d="M26.5603 0.377789C26.4188 0.423321 26.1948 0.616829 26.0533 0.787575C25.8293 1.06077 25.8058 1.23151 25.8058 2.55194V4.02035H24.0137C21.6558 4.03173 20.0407 4.17971 19.0268 4.48706C16.268 5.30663 14.0752 7.11654 12.8844 9.54111C11.8705 11.6242 11.953 9.58665 11.953 31.3965V50.7476L12.2831 51.7493C12.8255 53.4226 13.4385 54.4471 14.6528 55.6879C15.9733 57.0311 17.8714 58.0214 19.7931 58.3629C20.6891 58.5336 22.882 58.545 40.4838 58.5222C58.9698 58.4881 60.2195 58.4767 60.8679 58.2832C62.8957 57.7027 63.9803 57.088 65.3597 55.7562C66.4797 54.6634 66.9985 53.9349 67.5526 52.6258C68.2835 50.8728 68.2599 51.8176 68.2246 30.9412L68.1892 11.9315L67.918 11.1006C66.9159 8.04994 65.1003 6.04653 62.3534 4.96515C60.8679 4.37323 59.9601 4.24801 57.0481 4.24801H54.4544V2.82513C54.4544 1.12907 54.3247 0.707893 53.6998 0.411938C53.3462 0.252575 53.2047 0.252575 52.8156 0.355022C52.0729 0.571297 51.9432 0.890022 51.8843 2.56333L51.8371 4.02035H40.0593H28.2816V2.65439C28.2816 1.11768 28.1637 0.730659 27.5742 0.434704C27.1969 0.241192 26.9376 0.229809 26.5603 0.377789ZM25.6879 7.94749C25.6879 9.50697 25.794 9.87122 26.2891 10.1217C26.8079 10.3721 27.2912 10.3152 27.7157 9.9509L28.1047 9.6208L28.1401 8.07271L28.1873 6.52462H40.1419H52.0965V7.83366C52.0965 9.26793 52.2379 9.78016 52.6977 10.0989C53.1929 10.429 53.9356 10.2924 54.3601 9.78016C54.5369 9.58665 54.5723 9.29069 54.5723 8.02718V6.52462H57.0835C60.526 6.52462 61.4927 6.76366 63.1315 8.01579C63.9568 8.65324 64.6995 9.52973 65.1475 10.4062C65.7606 11.6242 65.8077 11.9429 65.8549 15.4261L65.9138 18.7044H40.189H14.4642L14.5114 15.3123C14.5585 12.2389 14.5821 11.8746 14.8061 11.3055C15.5488 9.37037 16.7514 8.01579 18.4373 7.21898C19.6516 6.63845 20.3 6.54738 23.1295 6.536L25.6879 6.52462V7.94749ZM65.8902 35.6082C65.8902 45.8188 65.8549 50.2923 65.7606 50.7135C65.5719 51.5786 64.9117 52.899 64.334 53.582C63.3201 54.7772 61.7403 55.7334 60.2548 56.0294C59.8068 56.1204 53.9946 56.1546 40.1536 56.1546C18.5552 56.1546 20.1114 56.2115 18.3783 55.3919C17.7299 55.0846 17.2583 54.7431 16.6099 54.117C15.5842 53.1153 15.0537 52.2388 14.7236 50.9639C14.4996 50.1102 14.4878 49.6549 14.4878 35.5855V21.0949H40.189H65.8902V35.6082Z" fill="#1F3475"/>
</g>
<path d="M23.9106 30.0587C23.9106 31.1923 22.9171 32.1622 21.6266 32.1622C20.336 32.1622 19.3425 31.1923 19.3425 30.0587C19.3425 28.9252 20.336 27.9553 21.6266 27.9553C22.9171 27.9553 23.9106 28.9252 23.9106 30.0587Z" fill="#1F3475" stroke="#1F3475" stroke-width="0.887711"/>
<path d="M33.102 29.8537C33.102 30.9872 32.1085 31.9571 30.818 31.9571C29.5274 31.9571 28.5339 30.9872 28.5339 29.8537C28.5339 28.7201 29.5274 27.7503 30.818 27.7503C32.1085 27.7503 33.102 28.7201 33.102 29.8537Z" fill="#1F3475" stroke="#1F3475" stroke-width="0.887711"/>
<path d="M23.9673 39.4054C23.9673 40.539 22.9738 41.5088 21.6832 41.5088C20.3926 41.5088 19.3992 40.539 19.3992 39.4054C19.3992 38.2719 20.3926 37.302 21.6832 37.302C22.9738 37.302 23.9673 38.2719 23.9673 39.4054Z" fill="#1F3475" stroke="#1F3475" stroke-width="0.887711"/>
<defs>
<clipPath id="clip0_0_2276">
<rect width="60.3625" height="58.2811" fill="white" transform="translate(9.88892 0.261475)"/>
</clipPath>
</defs>
</svg>
