<svg width="299" height="69" viewBox="0 0 299 69" fill="none" xmlns="http://www.w3.org/2000/svg">
<path d="M34.3684 67.7337C52.8699 67.7337 67.8684 52.7352 67.8684 34.2337C67.8684 15.7321 52.8699 0.733643 34.3684 0.733643C15.8669 0.733643 0.868408 15.7321 0.868408 34.2337C0.868408 52.7352 15.8669 67.7337 34.3684 67.7337Z" fill="#B49C80" stroke="#B49C80" stroke-width="0.830916" stroke-miterlimit="10"/>
<path d="M27.8522 57.9182C27.8522 57.9182 28.9145 58.3928 29.1601 57.6626C29.4389 56.836 29.2995 54.3896 29.2099 53.2045C29.1435 52.3016 28.6091 51.495 27.7925 51.1C27.7792 51.0933 27.7692 51.0867 27.756 51.0834C26.7004 50.5855 24.9212 49.3407 24.4398 48.866C24.4 48.8262 24.2905 48.7199 24.2207 48.6469C23.9784 48.378 24.2307 47.9332 24.5792 48.0295C24.629 48.0428 24.6788 48.0693 24.7253 48.1058C24.7751 48.1457 25.3095 48.7498 25.3095 48.7498C25.9933 49.4402 26.6406 49.7954 26.6838 49.8253C26.9095 49.9813 27.8058 50.5722 27.8323 50.0378C27.8356 49.9614 27.1219 48.3979 26.6008 47.349C26.0365 46.2104 25.2763 43.754 25.2531 42.413C25.2531 42.2835 25.3095 42.1607 25.4058 42.0777C25.5319 41.9681 25.6448 42.0146 25.6614 42.1806C25.7411 43.0403 25.8705 43.7175 26.0431 44.4478C26.0564 44.4976 26.2655 45.2909 26.4381 45.7092C26.5576 46.0046 26.7004 46.3598 26.7004 46.3598C26.9493 46.8378 27.4141 45.8154 27.4207 45.8054C27.4207 45.8054 28.2074 44.0793 27.9518 41.4171C27.9385 41.2644 28.0514 41.1416 28.2041 41.1416H28.234C28.4464 41.1416 28.6157 41.3242 28.5958 41.5366C28.5161 42.4096 28.3203 44.4577 28.1709 44.8727C28.1643 44.8926 27.9585 46.1772 27.258 47.0502C27.1751 47.1531 27.1585 47.2926 27.2116 47.4121C27.5734 48.2353 28.951 51.2992 29.5219 51.5846C30.0597 51.8535 32.7617 48.2519 33.7244 46.9341C33.8837 46.7183 34.2156 46.7415 34.3385 46.9805L34.3717 47.0436C34.438 47.1697 34.4248 47.3258 34.3351 47.4386C33.7078 48.2253 31.1916 51.1797 30.6505 51.6809C29.98 52.3016 30.0497 52.7365 30.0398 52.8792L29.9501 57.4501C29.9435 57.709 29.9966 57.9713 30.1128 58.2036C30.2157 58.4061 30.7003 58.6916 30.936 58.7347C31.2082 58.7845 30.3418 58.7945 29.4589 58.5688C28.6655 58.3663 27.8589 57.9281 27.8589 57.9281L27.8522 57.9182Z" fill="white"/>
<path d="M39.2613 58.3196C39.2613 58.3196 38.8032 58.5154 38.604 57.4333C38.458 56.6433 38.5575 52.6964 38.594 51.4715C38.6106 50.9438 38.7169 50.4226 38.9393 49.9413C39.1517 49.4765 39.4969 48.9753 40.048 48.6367C41.1932 47.933 43.155 46.2534 43.5334 45.8451C44.1309 45.2011 44.0015 44.6567 44.0015 44.6567C43.799 44.2916 43.1185 45.1845 43.1185 45.1845C42.8861 45.46 42.1957 46.1936 41.5982 46.7048C41.5982 46.7048 40.9575 47.2392 40.7949 47.3687C40.7085 47.4351 40.0612 48.0326 39.8455 47.6874C39.7027 47.4583 40.7218 45.5994 41.2131 44.5969C41.9368 43.1264 43.0056 42.6949 43.6098 40.8061C44.3699 38.4261 44.2239 37.2311 43.7525 36.8327C43.5102 36.6269 43.1749 36.7697 43.1483 37.0087C43.0919 37.5663 43.633 37.5663 43.2347 39.8501C42.9359 41.5596 42.1824 42.5588 41.6878 42.9538C41.1401 43.392 39.9119 40.1588 39.7525 39.2924C39.394 37.324 39.7691 36.2253 39.4936 35.6012C39.4272 35.4485 39.3476 35.3655 39.2181 35.4684C39.175 35.5016 39.1783 35.5481 39.1617 35.5912C38.9326 36.1124 38.6173 37.729 39.4305 40.2119C39.4305 40.2119 39.9086 41.958 40.7982 43.2592C40.9476 43.4783 40.4297 44.5306 40.4198 44.6036C40.3633 44.9986 38.5708 48.9654 38.1592 49.1147C37.8173 49.2376 36.1974 48.2517 35.248 46.6251C34.448 45.2542 34.1626 43.6144 34.0099 42.9671C33.9734 42.8111 33.8007 42.7314 33.658 42.8078L33.5319 42.8741C33.4323 42.9273 33.3825 43.0401 33.4091 43.1497C33.5252 43.6277 33.8572 45.4434 34.7036 46.8708C35.5003 48.2152 36.8613 49.1346 37.0804 49.4268C37.3559 49.7952 37.3725 49.8616 37.4721 50.1272C37.6347 50.5687 37.7078 51.0367 37.7177 51.5047C37.741 52.9421 37.8107 57.1478 37.804 57.493C37.7874 58.2798 37.5086 58.5852 37.0206 58.7013C37.0206 58.7013 37.4422 58.791 38.1293 58.6715C38.7136 58.5686 39.2679 58.3229 39.2679 58.3229L39.2613 58.3196Z" fill="white"/>
<path d="M48.0114 35.5546C47.9981 36.1887 47.9118 36.8891 47.7093 37.626C47.613 37.9745 47.4736 38.3131 47.311 38.6384C47.155 38.9438 46.9226 39.4019 46.657 39.9397C46.6205 40.0127 46.584 40.089 46.5475 40.1654C46.116 41.0384 45.6147 42.0807 45.1998 43.0102C44.6421 44.255 44.3035 45.5595 44.1907 46.884C44.1442 47.4317 44.1044 48.0856 44.0878 48.8524C44.0878 48.9719 44.0811 49.0914 44.0811 49.2175C44.0811 49.4366 44.0778 49.6624 44.0778 49.8947C44.0778 50.6184 44.0015 51.3088 43.882 51.9428C43.7757 52.4972 43.6396 53.0117 43.4903 53.4698C43.1882 54.4025 42.8397 55.1129 42.6239 55.5079C42.6239 55.5079 42.6239 55.5112 42.6206 55.5146C41.7973 56.8224 40.5592 57.8448 39.0887 58.3925C38.6936 58.5386 38.282 58.6515 37.8605 58.7245C37.3625 58.8108 36.848 58.7145 36.4132 58.4556C36.4132 58.4556 36.4099 58.4556 36.4065 58.4523C36.058 58.1834 35.7924 57.7851 35.6165 57.2905C35.507 56.9851 35.4339 56.6432 35.3908 56.2714C35.3676 56.0855 35.3476 55.5511 35.3476 55.1793C35.3476 55.0399 35.3443 54.9005 35.3377 54.7644C35.248 53.0681 34.6273 51.7536 33.8738 51.7536C33.1203 51.7536 32.4995 53.0681 32.4099 54.7644C32.4033 54.9005 32.3999 55.0366 32.3999 55.1793C32.3999 55.5511 32.38 56.0855 32.3568 56.2714C32.3136 56.6432 32.2373 56.9851 32.1311 57.2905C31.9551 57.7884 31.6896 58.1867 31.341 58.4523C31.341 58.4523 31.3377 58.4523 31.3344 58.4556C30.9029 58.7145 30.3884 58.8108 29.8904 58.7245C29.4655 58.6515 29.0539 58.5386 28.6589 58.3892C27.1884 57.8415 25.9502 56.8224 25.127 55.5112L25.1237 55.5046C24.9079 55.1096 24.5594 54.3992 24.2573 53.4665C24.1079 53.0084 23.9718 52.4972 23.8656 51.9428C23.7461 51.3088 23.6698 50.6184 23.6698 49.8947C23.6698 49.6624 23.6698 49.4366 23.6664 49.2209C23.6664 49.0947 23.6631 48.9752 23.6598 48.8557C23.6399 48.0922 23.6001 47.435 23.5569 46.8873C23.444 45.5628 23.1055 44.2583 22.5478 43.0135C22.1295 42.084 21.6316 41.0417 21.2001 40.1687C21.1636 40.0923 21.1271 40.016 21.0905 39.943C20.825 39.4052 20.5926 38.9471 20.4366 38.6417C20.2706 38.3164 20.1345 37.9778 20.0383 37.6293C19.8358 36.8957 19.7495 36.1953 19.7362 35.558C19.8457 31.8368 22.8266 28.8394 26.5345 28.7H26.5643C26.9959 28.7099 27.4307 28.7464 27.8623 28.7962C28.3237 28.8493 28.7784 28.9655 29.2066 29.1547C29.2066 29.1547 29.2133 29.1547 29.2166 29.158C29.5087 29.2875 29.8041 29.407 30.1095 29.5099C31.2913 29.9248 32.5659 30.1506 33.8904 30.1506C35.2148 30.1506 36.4862 29.9248 37.6713 29.5099C37.9733 29.4037 38.2721 29.2875 38.5642 29.158C38.5642 29.158 38.5708 29.158 38.5741 29.1547C38.999 28.9655 39.4538 28.8526 39.9185 28.7962C40.3467 28.7464 40.7849 28.7132 41.2164 28.7H41.2463C44.9575 28.8394 47.935 31.8368 48.0446 35.558L48.0114 35.5546Z" stroke="white" stroke-width="0.493253" stroke-miterlimit="10"/>
<path d="M35.3904 2.19751L11.1642 4.78669L11.2048 5.55017L34.7657 3.68795L35.5567 3.59168L35.3904 2.19751Z" fill="white" stroke="white" stroke-width="0.413803" stroke-linecap="round" stroke-linejoin="round"/>
<path d="M43.0454 28.0228L23.4706 28.5871L28.4398 9.71929L35.985 9.35083L43.0454 28.0228Z" fill="url(#paint0_linear_307_353)"/>
<path d="M35.5361 4.4972L28.4156 4.87036L28.5986 8.36096L35.719 7.9878L35.5361 4.4972Z" fill="white" stroke="white" stroke-width="0.377388" stroke-linecap="round" stroke-linejoin="round"/>
<path d="M99.7421 47.6631C92.2171 47.6631 87.4929 42.3041 87.4929 33.7707V33.7334C87.4929 25.2373 92.2358 19.8596 99.7421 19.8596C107.249 19.8596 111.973 25.2373 111.973 33.7334V33.7707C111.973 42.3041 107.267 47.6631 99.7421 47.6631ZM99.7421 45.2917C105.68 45.2917 109.359 40.7729 109.359 33.7707V33.7334C109.359 26.6938 105.624 22.2311 99.7421 22.2311C93.8416 22.2311 90.0884 26.6751 90.0884 33.7334V33.7707C90.0884 40.8289 93.8229 45.2917 99.7421 45.2917ZM128.975 27.8142V29.8868H122.365V47.2336H119.9V29.8868H113.309V27.8142H128.975ZM138.546 47.5884C132.776 47.5884 129.639 43.5925 129.639 36.1421V36.1048C129.639 24.9573 132.346 20.6626 139.853 20.4198L141.627 20.3638C143.475 20.3078 145.231 19.9343 146.183 19.4488V21.6149C145.585 22.0817 143.849 22.5111 141.757 22.5858L139.928 22.6419C134.363 22.8286 132.552 25.3307 131.786 31.9408L131.768 32.2022H131.824C133.075 29.5507 135.633 28.0756 138.901 28.0756C144.11 28.0756 147.471 31.8288 147.471 37.6546V37.692C147.471 43.7605 144.036 47.5884 138.546 47.5884ZM138.546 45.3851C142.523 45.3851 144.932 42.4908 144.932 37.692V37.6546C144.932 33.0425 142.523 30.2789 138.546 30.2789C134.569 30.2789 132.16 33.0425 132.16 37.6546V37.692C132.16 42.4908 134.569 45.3851 138.546 45.3851ZM157.957 47.5884C152.505 47.5884 149.125 43.7232 149.125 37.5799V37.5612C149.125 31.474 152.561 27.4594 157.752 27.4594C162.943 27.4594 166.21 31.3433 166.21 37.1505V38.1214H151.627C151.702 42.7522 154.185 45.3851 158.013 45.3851C160.87 45.3851 162.849 43.9473 163.484 41.8373L163.521 41.6692H165.967L165.93 41.8559C165.258 45.1797 162.158 47.5884 157.957 47.5884ZM157.733 29.6627C154.428 29.6627 151.963 32.0342 151.664 36.1608H163.727C163.447 31.9221 161.057 29.6627 157.733 29.6627ZM172.663 38.8683C172.289 43.8913 171.206 47.4204 167.434 47.4204C166.911 47.4204 166.445 47.327 166.183 47.2336V44.9929C166.389 45.0676 166.743 45.1423 167.21 45.1423C169.32 45.1423 170.048 42.5468 170.31 38.7936L171.075 27.8142H184.146V47.2336H181.681V29.8868H173.316L172.663 38.8683ZM187.742 47.2336V27.8142H190.225V43.4244H190.356L201.13 27.8142H203.576V47.2336H201.093V31.642H200.981L190.188 47.2336H187.742ZM207.134 47.2336V27.8142H214.977C218.618 27.8142 220.84 29.7001 220.84 32.725V32.7624C220.84 34.8911 219.421 36.7023 217.442 37.0944V37.2065C219.944 37.5052 221.774 39.1671 221.774 41.7066V41.7439C221.774 45.1983 219.253 47.2336 215.07 47.2336H207.134ZM209.618 36.2355H214.286C216.956 36.2355 218.394 35.0965 218.394 32.9865V32.9491C218.394 30.9885 217.049 29.8868 214.659 29.8868H209.618V36.2355ZM209.618 45.161H214.865C217.722 45.161 219.253 43.9846 219.253 41.6879V41.6505C219.253 39.4098 217.535 38.3082 214.417 38.3082H209.618V45.161ZM230.131 47.5884C226.303 47.5884 223.689 45.2917 223.689 41.8559V41.8186C223.689 38.5135 226.191 36.5156 230.653 36.2168L236.703 35.8434V34.1628C236.703 31.362 234.929 29.6627 231.904 29.6627C229.085 29.6627 227.236 31.0258 226.826 33.2292L226.788 33.4159H224.398L224.417 33.1919C224.79 29.8495 227.554 27.4594 231.942 27.4594C236.386 27.4594 239.168 29.9615 239.168 33.9388V47.2336H236.703V43.6859H236.629C235.564 46.0013 233.006 47.5884 230.131 47.5884ZM226.209 41.8559C226.209 43.9846 228.002 45.4224 230.635 45.4224C234.033 45.4224 236.703 43.0323 236.703 39.9327V37.7853L230.952 38.1774C227.909 38.3642 226.209 39.6899 226.209 41.8186V41.8559ZM255.741 47.2336V38.2148H245.116V47.2336H242.633V27.8142H245.116V36.1421H255.741V27.8142H258.206V47.2336H255.741ZM261.801 47.2336V27.8142H264.285V43.4244H264.415L275.19 27.8142H277.636V47.2336H275.152V31.642H275.04L264.247 47.2336H261.801ZM289.074 47.5884C283.621 47.5884 280.241 43.7232 280.241 37.5799V37.5612C280.241 31.474 283.677 27.4594 288.868 27.4594C294.059 27.4594 297.327 31.3433 297.327 37.1505V38.1214H282.744C282.818 42.7522 285.302 45.3851 289.13 45.3851C291.987 45.3851 293.966 43.9473 294.601 41.8373L294.638 41.6692H297.084L297.047 41.8559C296.375 45.1797 293.275 47.5884 289.074 47.5884ZM288.85 29.6627C285.545 29.6627 283.08 32.0342 282.781 36.1608H294.843C294.563 31.9221 292.173 29.6627 288.85 29.6627Z" fill="#1F3475"/>
<defs>
<linearGradient id="paint0_linear_307_353" x1="32.8847" y1="8.99826" x2="33.2547" y2="28.5106" gradientUnits="userSpaceOnUse">
<stop stop-color="white"/>
<stop offset="0.1" stop-color="#FCFAF9" stop-opacity="0.97"/>
<stop offset="0.27" stop-color="#F5F0EB" stop-opacity="0.87"/>
<stop offset="0.49" stop-color="#E9DED4" stop-opacity="0.72"/>
<stop offset="0.75" stop-color="#DAC6B4" stop-opacity="0.52"/>
<stop offset="1" stop-color="#CAAD94" stop-opacity="0.3"/>
</linearGradient>
</defs>
</svg>
