<svg width="29" height="29" viewBox="0 0 29 29" fill="none" xmlns="http://www.w3.org/2000/svg">
<g clip-path="url(#clip0_0_3914)">
<path d="M7.05007 1.04485C6.14093 1.15373 5.06847 1.50759 4.25187 1.97032C2.13962 3.18432 0.745967 5.29658 0.479213 7.69736C0.397554 8.42141 0.397554 21.4216 0.479213 22.1456C0.865734 25.6461 3.63126 28.4116 7.13173 28.7981C7.85577 28.8798 20.8559 28.8798 21.58 28.7981C25.0804 28.4116 27.846 25.6461 28.2325 22.1456C28.3142 21.4216 28.3142 8.42141 28.2325 7.69736C27.846 4.1969 25.0804 1.43137 21.58 1.04485C20.9376 0.974079 7.67612 0.974079 7.05007 1.04485ZM22.1462 2.79236C23.2785 3.10266 24.1495 3.59807 24.9117 4.36566C25.6793 5.12782 26.1747 5.99885 26.4904 7.13119L26.632 7.65381V14.9215V22.1892L26.4904 22.7118C26.1747 23.8441 25.6793 24.7152 24.9117 25.4773C24.1495 26.2449 23.2785 26.7403 22.1462 27.0561L21.6235 27.1976H14.3559H7.08817L6.56555 27.0561C5.43321 26.7403 4.56218 26.2449 3.80003 25.4773C3.03243 24.7152 2.53703 23.8441 2.22128 22.7118L2.07974 22.1892V14.9215V7.65381L2.22128 7.13119C2.53703 5.99885 3.03243 5.12782 3.79458 4.36566C4.69828 3.46197 5.8905 2.86313 7.14261 2.67804C7.32226 2.65082 10.654 2.63449 14.5464 2.63993L21.6235 2.64537L22.1462 2.79236Z" fill="black"/>
<path d="M21.8958 4.61683C20.5675 4.80192 19.6638 6.09214 19.985 7.34425C20.2082 8.23161 20.7744 8.79234 21.6563 9.02099C23.1534 9.40206 24.6233 8.04652 24.3728 6.51677C24.2367 5.66207 23.6107 4.94347 22.7941 4.69849C22.5546 4.62772 22.1136 4.58961 21.8958 4.61683ZM22.5056 6.35345C22.7995 6.53854 22.8485 6.99039 22.6036 7.24626C22.4021 7.45313 22.1572 7.50212 21.9067 7.38236C21.5257 7.20271 21.444 6.70186 21.7489 6.41878C21.9721 6.20646 22.2334 6.18469 22.5056 6.35345Z" fill="black"/>
<path d="M13.3049 7.38191C10.2944 7.79565 7.75211 10.0603 6.98451 13.0273C6.30946 15.6241 7.06617 18.3678 8.98788 20.2895C11.9821 23.2837 16.7292 23.2837 19.7234 20.2895C22.7175 17.2953 22.7175 12.5482 19.7234 9.55405C18.0031 7.8392 15.7003 7.05527 13.3049 7.38191ZM15.2267 9.01509C16.5332 9.21108 17.6438 9.7718 18.5747 10.7027C20.921 13.0436 20.921 16.7999 18.5747 19.1409C16.2338 21.4872 12.4775 21.4872 10.1366 19.1409C7.79021 16.7999 7.79021 13.0436 10.1366 10.7027C11.4921 9.34718 13.3539 8.72656 15.2267 9.01509Z" fill="black"/>
</g>
<defs>
<clipPath id="clip0_0_3914">
<rect width="27.873" height="27.873" fill="white" transform="translate(0.419922 0.984375)"/>
</clipPath>
</defs>
</svg>
