<svg width="44" height="44" viewBox="0 0 44 44" fill="none" xmlns="http://www.w3.org/2000/svg">
<g clip-path="url(#clip0_31_87)">
<path d="M12.7265 2.41402L12.8542 2.32547L14.114 1.45204L15.2462 0.667072L17.1885 0.659302L17.1905 0.659298L19.1261 0.659302L20.2113 1.44514L20.2126 1.44611L21.4206 2.32698L21.5523 2.42297H21.7152H24.134H26.0527V3.43469V4.94641V5.44641H26.5527H29.8701H32.6875V12.8157V20.6935V20.9045L32.8387 21.0517L33.4755 21.6718C33.4757 21.6719 33.4759 21.6721 33.476 21.6723C34.7758 22.9485 35.5609 24.4415 35.9211 26.3622L35.9214 26.3639C36.1583 27.604 36.0432 29.4032 35.6638 30.4794L35.6627 30.4824L35.5032 30.9443L35.4014 31.239L35.6212 31.4601L38.6272 34.4829L12.7265 2.41402ZM12.7265 2.41402L12.5711 2.41457L10.2028 2.42297H10.201H8.32422M12.7265 2.41402L8.32422 2.42297M8.32422 2.42297V3.43469V4.94641V5.44641H7.82422H4.54883H1.77344V24.0529V42.6593H17.2305H32.6875V41.1269V39.1029V37.9125L33.5375 38.7458L35.2424 40.4171L35.2432 40.4178C35.7822 40.9485 36.2378 41.3812 36.5907 41.6971C36.7673 41.8552 36.9146 41.9809 37.0316 42.0738C37.1559 42.1726 37.2233 42.2159 37.2462 42.2277L37.2462 42.2277L37.2528 42.2312C38.9676 43.1472 40.926 42.5181 41.7927 40.7628L41.7938 40.7605C41.9544 40.4394 41.9976 40.3396 42.0214 40.212C42.0496 40.0612 42.0518 39.8646 42.0518 39.3464C42.0518 38.837 42.0478 38.6307 42.0206 38.4775C41.9977 38.3486 41.9578 38.252 41.8169 37.9616C41.7153 37.7553 41.6051 37.5758 41.1739 37.1012C40.7336 36.6167 39.9869 35.8552 38.6279 34.4835L8.32422 2.42297Z" stroke="white"/>
<path d="M6.3125 14.2333C6.3125 14.6776 6.67266 15.0377 7.11694 15.0377H13.9551H20.7932C21.2375 15.0377 21.5977 14.6776 21.5977 14.2333C21.5977 13.789 21.2375 13.4288 20.7932 13.4288H13.9551H7.11694C6.67266 13.4288 6.3125 13.789 6.3125 14.2333Z" fill="white"/>
<path d="M6.3125 19.7696C6.3125 20.2142 6.67291 20.5746 7.1175 20.5746H11.3516H15.5856C16.0302 20.5746 16.3906 20.2142 16.3906 19.7696C16.3906 19.325 16.0302 18.9646 15.5856 18.9646H11.3516H7.1175C6.67291 18.9646 6.3125 19.325 6.3125 19.7696Z" fill="white"/>
<path d="M6.3125 25.2215C6.3125 25.6661 6.67291 26.0265 7.1175 26.0265H9.58789H12.0583C12.5029 26.0265 12.8633 25.6661 12.8633 25.2215C12.8633 24.7769 12.5029 24.4165 12.0583 24.4165H9.58789H7.1175C6.67291 24.4165 6.3125 24.7769 6.3125 25.2215Z" fill="white"/>
<path d="M6.3125 30.2606C6.3125 30.7051 6.67291 31.0656 7.1175 31.0656H10.4697H13.822C14.2665 31.0656 14.627 30.7051 14.627 30.2606C14.627 29.816 14.2665 29.4556 13.822 29.4556H10.4697H7.1175C6.67291 29.4556 6.3125 29.816 6.3125 30.2606Z" fill="white"/>
<path d="M6.3125 35.2996C6.3125 35.7442 6.67291 36.1046 7.1175 36.1046H11.3516H15.5856C16.0302 36.1046 16.3906 35.7442 16.3906 35.2996C16.3906 34.855 16.0302 34.4946 15.5856 34.4946H11.3516H7.1175C6.67291 34.4946 6.3125 34.855 6.3125 35.2996Z" fill="white"/>
<path d="M27.9217 26.5472L26.2168 28.2521L25.6037 27.639L24.999 27.0343L24.092 27.9413L23.1934 28.84L24.7051 30.3517L26.2168 31.8634L28.8623 29.2179L31.5078 26.5724L30.6512 25.7157C30.1725 25.237 29.7525 24.8507 29.7021 24.8507C29.6602 24.8507 28.8539 25.615 27.9217 26.5472Z" fill="white"/>
</g>
<defs>
<clipPath id="clip0_31_87">
<rect width="43" height="43" fill="white" transform="translate(0.433594 0.159302)"/>
</clipPath>
</defs>
</svg>
