<svg width="44" height="44" viewBox="0 0 44 44" fill="none" xmlns="http://www.w3.org/2000/svg">
<path d="M12.7367 3.63075C12.552 3.83231 10.7127 5.93192 8.6467 8.30868L4.901 12.6171V26.8776C4.901 40.5755 4.9094 41.1382 5.05217 41.2641C5.19495 41.3985 5.89202 41.4069 13.3246 41.4069C21.3367 41.4069 21.4459 41.4069 21.6139 41.239C21.8239 41.029 21.8239 40.8106 21.6223 40.5587L21.4627 40.3571L13.6858 40.3319L5.90881 40.3151V26.8776V13.4485L10.2004 13.4233L14.492 13.3981L14.6516 13.1966C14.8028 13.0118 14.8112 12.827 14.8112 9.73641C14.8112 6.5786 14.8028 6.46102 14.6432 6.30145C14.4164 6.07469 14.0133 6.08309 13.8537 6.31825C13.7362 6.47782 13.7194 6.92294 13.7194 9.42567V12.3483H10.1836C8.08401 12.3483 6.66467 12.3147 6.68147 12.2727C6.69827 12.2307 8.23518 10.4335 10.108 8.28348L13.5094 4.36981H22.6805H31.86V10.3243C31.86 16.2116 31.86 16.2788 32.0364 16.4972C32.2463 16.7575 32.5487 16.7827 32.7838 16.5475C32.9518 16.3796 32.9518 16.2704 32.9518 9.97157C32.9518 3.86591 32.9434 3.54676 32.8006 3.42079C32.6578 3.28641 31.8432 3.27802 22.8653 3.27802H13.0811L12.7367 3.63075Z" fill="#E8E2CF"/>
<path d="M29.5497 17.7822C29.1969 17.8662 28.8358 17.8914 28.3319 17.8494C27.9372 17.8242 27.3325 17.7822 26.9798 17.757C26.1483 17.6898 25.8292 17.8326 24.9389 18.6304C24.435 19.084 24.1075 19.3023 23.6372 19.4955C22.327 20.0246 22.0079 20.3857 21.6552 21.6791C21.4788 22.3174 21.3192 22.6869 21.0001 23.1656C20.1854 24.4086 20.1014 24.8705 20.4878 26.0127C20.6725 26.5502 20.7229 26.8861 20.7649 27.8855C20.8153 29.0193 20.8321 29.1285 21.0505 29.498C21.1848 29.7248 21.5292 30.0943 21.8567 30.3631C22.1759 30.615 22.5118 30.9257 22.6042 31.0517L22.7721 31.2869L20.8489 34.6043C19.7991 36.4267 18.9341 37.9972 18.9257 38.0896C18.9257 38.182 18.9844 38.35 19.06 38.4507C19.2196 38.6775 19.4548 38.6859 21.1009 38.5011C21.7559 38.434 22.369 38.3836 22.4698 38.4004C22.6042 38.4172 22.7721 38.7195 23.2509 39.8029C23.5868 40.5588 23.9227 41.2474 23.9983 41.3314C24.1579 41.5246 24.5778 41.5414 24.7458 41.365C24.813 41.3062 25.6948 39.8113 26.7026 38.056C28.2479 35.3601 28.5503 34.8898 28.6259 35.0074C28.6846 35.083 29.5077 36.5107 30.4735 38.1736C31.4309 39.8365 32.2708 41.2642 32.3464 41.3398C32.5143 41.533 32.9678 41.533 33.1358 41.3398C33.203 41.2642 33.5389 40.5588 33.8833 39.7777L34.5048 38.3668L35.0087 38.4088C35.2858 38.434 36.0333 38.5011 36.6632 38.5599C37.755 38.6607 37.8221 38.6607 37.9901 38.5095C38.0825 38.4256 38.1581 38.2492 38.1581 38.1148C38.1581 37.9468 37.545 36.8047 36.2684 34.5959C35.227 32.7986 34.3788 31.2953 34.3788 31.2533C34.3788 31.1945 34.6475 30.9341 35.6218 30.0523C36.2348 29.498 36.3356 29.1957 36.3944 27.7595C36.4364 26.7601 36.4868 26.4074 36.6296 26.0379C37.0411 25.0049 36.9571 24.4254 36.2684 23.384C35.7561 22.6197 35.7057 22.5021 35.4622 21.5951C35.1514 20.4277 34.7903 20.033 33.5893 19.5291C32.9762 19.2771 32.5227 18.9664 31.7921 18.3029C31.4981 18.0341 31.1958 17.8494 30.9186 17.7654C30.3979 17.6142 30.2048 17.6142 29.5497 17.7822ZM27.6684 18.9496C28.4075 19.0672 28.6343 19.0756 29.2893 18.9832C30.5911 18.7984 30.6835 18.8236 31.4477 19.5291C32.0104 20.0414 32.4219 20.2933 33.3122 20.6629C33.7069 20.8224 34.0177 21.0156 34.1016 21.1332C34.1772 21.2507 34.3032 21.6455 34.3872 22.015C34.5635 22.7709 34.8071 23.2748 35.3446 24.0726C35.7981 24.7277 35.8149 24.9293 35.4958 25.8447C35.3026 26.4074 35.269 26.6593 35.2522 27.6168C35.227 28.9269 35.2186 28.9353 34.3872 29.6072C33.7405 30.1111 33.4885 30.4134 33.035 31.1861C32.6319 31.8916 32.3632 32.0511 31.5065 32.1267C30.6499 32.2023 29.9864 32.4039 29.4069 32.7566C28.7434 33.1681 28.4915 33.1681 27.7356 32.7734C26.9798 32.3703 26.4087 32.2023 25.5604 32.1267C24.7626 32.0511 24.5274 31.9084 24.1579 31.2869C23.6792 30.4638 23.3012 30.0271 22.6882 29.5568C22.369 29.3132 22.0499 29.0109 21.9827 28.8849C21.8987 28.7254 21.8651 28.3642 21.8735 27.7007C21.8735 26.7013 21.8147 26.315 21.5208 25.492C21.3108 24.8957 21.3696 24.5933 21.8147 24.0138C22.2346 23.4595 22.5202 22.8465 22.7469 21.9898C22.9821 21.1248 23.1333 20.9148 23.696 20.7049C24.4938 20.4025 25.0649 20.0582 25.6192 19.5543C26.1147 19.1091 26.543 18.832 26.753 18.8152C26.7866 18.8152 27.1981 18.874 27.6684 18.9496ZM23.8052 32.7062C24.1579 33.0254 24.8046 33.2605 25.3505 33.2605C25.8292 33.2605 26.5598 33.4621 27.1561 33.7644C27.4333 33.9072 27.66 34.0332 27.66 34.05C27.66 34.1088 24.6114 39.4334 24.519 39.5341C24.4434 39.6181 24.3007 39.3578 23.9143 38.4843C23.5784 37.7285 23.3432 37.3002 23.2341 37.2414C23.0997 37.1826 22.7134 37.191 21.8735 37.275C21.2184 37.3422 20.6641 37.3841 20.6473 37.359C20.6053 37.3254 23.3852 32.4291 23.4524 32.4207C23.4692 32.4207 23.6288 32.5466 23.8052 32.7062ZM35.1262 34.8982C35.8989 36.242 36.4952 37.3506 36.4532 37.3674C36.4112 37.3841 35.9745 37.3506 35.479 37.3002C34.1436 37.149 33.9673 37.1574 33.7909 37.3422C33.7069 37.4261 33.4382 37.9552 33.203 38.5095C32.9594 39.0638 32.7411 39.5509 32.7075 39.5845C32.6571 39.6349 29.5833 34.4615 29.4405 34.1004C29.4153 34.0332 30.1208 33.6804 30.7255 33.4537C30.9102 33.3865 31.3973 33.2941 31.8173 33.2521C32.6319 33.1681 33.203 32.9498 33.4382 32.6222C33.5137 32.5131 33.6145 32.4375 33.6481 32.4459C33.6901 32.4543 34.3536 33.5629 35.1262 34.8982Z" fill="#E8E2CF"/>
<path d="M27.5341 21.6214C25.9216 22.0161 24.645 23.3263 24.2587 24.9639C23.5532 27.9622 26.1148 30.8345 29.1214 30.4145C30.8935 30.171 32.3632 28.8524 32.8251 27.0804C33.0183 26.3329 32.9931 25.997 32.7327 25.7954C32.4472 25.5686 32.338 25.577 32.086 25.8038C31.9433 25.9382 31.8593 26.1481 31.7921 26.5177C31.6073 27.6095 30.8683 28.5753 29.8689 29.0456C29.4405 29.2472 29.281 29.2723 28.5419 29.2723C27.7609 29.2723 27.6601 29.2555 27.1394 28.9952C25.4933 28.1889 24.813 26.1565 25.636 24.4936C25.9804 23.7966 26.7194 23.0995 27.3829 22.8475C28.0296 22.5956 28.945 22.5788 29.6253 22.7972C30.0704 22.9483 30.1376 22.9483 30.3392 22.8391C30.6499 22.6628 30.6499 22.1337 30.3476 21.9153C29.8437 21.5458 28.4411 21.3946 27.5341 21.6214Z" fill="#E8E2CF"/>
<path d="M30.9024 24.0054C30.0206 24.8705 29.0968 25.7607 28.8616 25.9875L28.4165 26.4074L27.795 25.8027C27.4507 25.4667 27.0979 25.198 27.0056 25.198C26.7368 25.198 26.4009 25.5171 26.4009 25.7775C26.4009 25.9539 26.5772 26.1806 27.2323 26.8189C28.0134 27.5832 28.0806 27.6335 28.4081 27.6335C28.744 27.6335 28.8196 27.5832 29.8274 26.6341C31.7339 24.8537 33.2876 23.2244 33.2876 23.0228C33.2876 22.7876 32.9265 22.4265 32.6913 22.4265C32.5569 22.4265 32.011 22.9052 30.9024 24.0054Z" fill="#E8E2CF"/>
<path d="M9.70478 18.0756C9.53681 18.2855 9.5536 18.6635 9.73837 18.8482C9.85595 18.9658 10.4522 18.9826 15.063 18.9826C20.7739 18.9826 20.522 19.0078 20.522 18.4787C20.522 17.9496 20.7739 17.9748 15.0294 17.9748C10.9393 17.9748 9.77196 18 9.70478 18.0756Z" fill="#E8E2CF"/>
<path d="M9.72105 22.9727C9.49429 23.1994 9.50269 23.4262 9.75464 23.7033C9.87222 23.8461 10.1746 23.8545 13.8447 23.8545C17.6828 23.8545 17.8087 23.8461 17.9599 23.6865C18.1615 23.4598 18.1447 23.0986 17.9179 22.9139C17.7416 22.7711 17.4728 22.7627 13.8279 22.7627H9.93101L9.72105 22.9727Z" fill="#E8E2CF"/>
<path d="M9.73049 27.752C9.50373 27.9116 9.52892 28.3735 9.76408 28.5751C9.94884 28.7179 10.1924 28.7263 13.8457 28.7263C17.4738 28.7263 17.7426 28.7179 17.919 28.5751C18.1457 28.3903 18.1625 28.0292 17.961 27.8024C17.8098 27.6429 17.6838 27.6345 13.8457 27.6345C10.6459 27.6345 9.85646 27.6597 9.73049 27.752Z" fill="#E8E2CF"/>
<path d="M9.70478 32.6066C9.53681 32.8165 9.5536 33.1945 9.73837 33.3792C9.85595 33.4968 10.3431 33.5136 13.8452 33.5136C17.3474 33.5136 17.8345 33.4968 17.952 33.3792C18.1116 33.2281 18.1284 32.7494 17.9856 32.6066C17.8345 32.4554 9.83075 32.4638 9.70478 32.6066Z" fill="#E8E2CF"/>
</svg>
