<svg width="44" height="44" viewBox="0 0 44 44" fill="none" xmlns="http://www.w3.org/2000/svg">
<g clip-path="url(#clip0_31_170)">
<path d="M37.0788 2.05931C36.8604 2.1349 36.5329 2.37005 36.2809 2.62201C35.9114 2.99994 35.7014 3.38626 34.3997 6.15775C33.5934 7.86263 32.9216 9.27357 32.9132 9.29036C32.9048 9.30716 32.5772 9.22318 32.1993 9.0972C31.813 8.97962 31.0823 8.79486 30.57 8.70247C29.6882 8.5345 29.3438 8.52611 22.3815 8.49251C14.8565 8.45052 13.9495 8.48412 12.4294 8.80326C10.5061 9.19798 8.27214 10.1722 6.67644 11.306C5.65183 12.0283 3.77898 13.9011 3.03991 14.9341C1.91452 16.5214 0.931906 18.7638 0.545578 20.6451C0.167649 22.4591 0.117258 25.197 0.411203 26.9019C0.973899 30.0849 2.44362 32.9404 4.65241 35.1743L5.40827 35.9386L5.2403 38.9704C5.13952 40.6417 5.08913 42.1283 5.12273 42.2794C5.18991 42.6574 5.51745 42.9009 5.95417 42.9009C6.23132 42.9009 6.878 42.5986 9.40593 41.3052L12.5134 39.7095H15.9315H19.3497L19.5176 39.4911C19.7192 39.2308 19.736 39.13 19.5932 38.8277C19.4253 38.4581 19.1481 38.4413 15.4948 38.4665L12.0934 38.4917L9.28835 39.9363C7.74304 40.7341 6.44968 41.3892 6.41609 41.3892C6.38249 41.3892 6.37409 41.1708 6.39089 40.9021C6.44968 40.1714 6.67644 35.905 6.67644 35.6279C6.67644 35.4347 6.54206 35.2583 6.02136 34.7544C2.96433 31.8318 1.46941 28.3128 1.46941 24.0716C1.46941 22.3079 1.68777 20.9138 2.19167 19.3853C3.83777 14.4302 8.02019 10.8441 13.2272 9.92865C14.0419 9.77747 14.6885 9.76908 21.7516 9.76908C28.7391 9.76908 29.4614 9.78587 30.1921 9.92025C31.2755 10.1218 32.2917 10.4074 32.2917 10.5081C32.2917 10.5501 31.8214 11.5915 31.2335 12.8177C30.0997 15.2197 30.0493 15.4044 30.4608 15.7152C30.696 15.8915 31.0067 15.8663 31.2167 15.6564C31.2839 15.5976 32.2329 13.6408 33.3415 11.3144C34.4417 8.98802 35.3571 7.06478 35.3655 7.04798C35.3907 7.02279 39.6571 9.02161 39.7495 9.0972C39.7831 9.12239 32.2161 25.0374 32.1405 25.1046C32.0481 25.1802 27.7985 23.1058 27.8237 22.9966C27.8321 22.9462 28.3696 21.7872 29.0163 20.4267C29.663 19.0661 30.1921 17.8652 30.1921 17.756C30.1921 17.3193 29.5034 17.0337 29.1758 17.3361C29.1003 17.4033 28.42 18.7554 27.6641 20.3343L26.2952 23.2066L26.0684 26.6919C25.9341 28.6068 25.8333 30.2025 25.8333 30.2361C25.8249 30.2781 22.1632 30.3033 17.6952 30.3033C9.91823 30.3033 9.5487 30.3117 9.42273 30.4544C9.22116 30.6812 9.23796 31.1683 9.45632 31.3615C9.62429 31.5126 9.90144 31.521 17.8212 31.5462C24.8926 31.563 26.0348 31.5798 26.186 31.689C26.2868 31.7562 26.5219 31.815 26.7151 31.815C27.1434 31.815 27.051 31.8906 30.4692 28.7076L32.9551 26.4064L35.7014 20.6031C37.2132 17.4201 38.4813 14.7745 38.5149 14.7326C38.6577 14.5646 40.0518 16.6138 40.6145 17.84C41.4628 19.6708 41.8491 21.3253 41.9247 23.4585C42.0171 26.23 41.6307 28.2288 40.5557 30.4712C38.6493 34.4605 35.1303 37.2236 30.7128 38.2146C29.9569 38.3742 29.579 38.3993 25.7829 38.4413C23.5237 38.4749 21.6089 38.5253 21.5333 38.5589C21.3905 38.6261 21.2057 38.9704 21.2057 39.1552C21.2057 39.214 21.2897 39.3652 21.3821 39.4911L21.5585 39.7179L25.7325 39.6927C29.6882 39.6591 29.9485 39.6507 30.8219 39.4659C36.2809 38.3322 40.6733 34.4605 42.4202 29.2451C43.2852 26.6583 43.4532 23.4921 42.8737 20.6535C42.4118 18.3691 41.278 16.0007 39.7411 14.1195C39.4303 13.7415 39.1784 13.3972 39.1784 13.3636C39.1784 13.33 39.9426 11.6923 40.8749 9.72709L42.5798 6.15775L42.6049 5.50267C42.6385 4.90638 42.6133 4.7972 42.3782 4.31009C42.0087 3.57103 41.6055 3.24349 40.1946 2.56322C38.9852 1.97533 38.96 1.96693 38.2126 1.94173C37.6751 1.92493 37.3475 1.95853 37.0788 2.05931ZM39.7915 3.75579C40.6733 4.19251 40.9169 4.35209 41.1184 4.62923C41.5132 5.17513 41.4712 5.54466 40.8413 6.86322L40.3122 7.96341L38.1538 6.9388C36.9612 6.36771 35.987 5.8638 35.987 5.81341C35.987 5.76302 36.2305 5.21712 36.5329 4.61243C37.188 3.27708 37.3391 3.15111 38.1706 3.2015C38.6325 3.22669 38.876 3.31068 39.7915 3.75579ZM31.2335 26.1376C31.3259 26.1712 29.7134 27.7753 29.579 27.7837C29.537 27.7837 29.0163 27.5486 28.4116 27.263L27.3198 26.7423L27.3786 25.8605C27.4038 25.3734 27.4458 24.8359 27.471 24.6679L27.513 24.3572L29.327 25.2306C30.3264 25.7093 31.1831 26.1124 31.2335 26.1376ZM28.462 28.7076C28.5292 28.7747 27.3786 29.9505 27.177 30.0345C27.1182 30.0513 27.135 29.3626 27.219 28.5648L27.261 28.1281L27.8237 28.38C28.1344 28.5228 28.42 28.6656 28.462 28.7076Z" fill="white"/>
<path d="M9.44781 16.9497C9.19586 17.2017 9.22105 17.6468 9.5066 17.8736C9.72496 18.0415 9.76695 18.0415 14.0921 18.0247L18.4509 17.9995L18.6105 17.798C18.8289 17.5292 18.8121 17.1849 18.5769 16.9665L18.3837 16.7818H13.9998C9.72496 16.7818 9.60738 16.7902 9.44781 16.9497Z" fill="white"/>
<path d="M9.69984 21.2917C9.27152 21.4513 9.12875 22.0056 9.44789 22.3247C9.61586 22.4927 9.72504 22.4927 16.7041 22.4927C23.3389 22.4927 23.8008 22.4843 23.9688 22.3415C24.2459 22.1232 24.2291 21.6781 23.9436 21.4261L23.7168 21.2329L16.7713 21.2413C12.95 21.2413 9.76703 21.2665 9.69984 21.2917Z" fill="white"/>
<path d="M9.44791 25.9361C9.19596 26.188 9.22115 26.6331 9.4983 26.8515C9.72506 27.0279 9.76705 27.0279 16.679 27.0279C21.7012 27.0279 23.6917 27.0027 23.8428 26.9355C24.1284 26.8011 24.2376 26.4568 24.1032 26.1292C24.0444 25.9949 23.9352 25.8521 23.8512 25.8185C23.7756 25.7933 20.5422 25.7681 16.6622 25.7681C9.72506 25.7681 9.61588 25.7681 9.44791 25.9361Z" fill="white"/>
</g>
<defs>
<clipPath id="clip0_31_170">
<rect width="43" height="43" fill="white" transform="translate(0.209717 0.908722)"/>
</clipPath>
</defs>
</svg>
