<svg width="44" height="44" viewBox="0 0 44 44" fill="none" xmlns="http://www.w3.org/2000/svg">
<g clip-path="url(#clip0_31_110)">
<path d="M8.04985 0.915474C6.98325 1.27661 6.10981 2.17524 5.85786 3.17466C5.68149 3.83813 5.68149 40.6065 5.85786 41.27C6.11821 42.2946 7.05044 43.2352 8.13384 43.5627C8.67134 43.7223 8.93169 43.7223 22.0752 43.7055C32.6237 43.6803 35.5379 43.6551 35.7815 43.5711C36.3274 43.3864 37.0917 42.8069 37.4444 42.3114C38.1331 41.354 38.0743 43.1932 38.0743 22.2223C38.0743 1.25141 38.1331 3.09067 37.4444 2.13325C37.0917 1.63774 36.3274 1.05825 35.7815 0.873482C35.5379 0.789497 32.6237 0.764305 22.0333 0.747505L8.59575 0.722313L8.04985 0.915474ZM35.7815 1.92329C36.067 2.06606 36.3862 2.30962 36.5625 2.51958C37.1504 3.24184 37.1084 1.61255 37.1084 22.2223C37.1084 42.8321 37.1504 41.2028 36.5625 41.925C36.3862 42.135 36.067 42.3786 35.7815 42.5213L35.3028 42.7565H21.9073H8.51177L8.03306 42.5213C7.76431 42.387 7.41997 42.135 7.2604 41.9418C6.66411 41.2448 6.7061 42.8573 6.7061 22.2139C6.7061 5.99653 6.7229 3.55259 6.83208 3.25024C7.07563 2.53637 7.57114 2.06606 8.327 1.79731C8.73853 1.65454 9.46919 1.65454 22.0333 1.67133L35.3028 1.68813L35.7815 1.92329Z" fill="white"/>
<path d="M21.0254 4.59398C18.4723 4.98871 16.465 6.76918 15.768 9.25512C15.5244 10.1034 15.5076 11.5731 15.7176 12.3961C16.0535 13.6979 16.9941 15.134 17.9936 15.8899C19.8244 17.2756 22.1592 17.62 24.2168 16.8053C26.1065 16.0495 27.4922 14.5125 28.0549 12.5053C28.3152 11.5815 28.3152 10.1789 28.0465 9.25512C27.4334 7.05473 25.6697 5.29945 23.5449 4.75356C22.7807 4.56039 21.6889 4.48481 21.0254 4.59398ZM23.041 5.6018C24.9139 5.92934 26.6439 7.59223 27.1647 9.54906C27.3494 10.2545 27.3494 11.5143 27.1647 12.2198C26.6523 14.1346 25.1658 15.6295 23.251 16.1418C22.5371 16.3266 21.2857 16.335 20.5719 16.1502C18.699 15.6547 17.1537 14.1094 16.6498 12.2282C16.465 11.5143 16.465 10.2629 16.6498 9.54906C17.2545 7.28988 19.2029 5.67738 21.5713 5.48422C21.9492 5.45902 22.4027 5.49262 23.041 5.6018Z" fill="white"/>
<path d="M21.6133 6.04693C21.4957 6.13091 21.4453 6.29888 21.4201 6.7272C21.3949 7.03794 21.3445 7.2983 21.2857 7.31509C20.4459 7.54185 19.7992 8.01216 19.5473 8.56646C19.3709 8.95279 19.3373 9.65826 19.4801 10.0194C19.6816 10.5653 20.6475 11.2204 21.2354 11.2204C21.3949 11.2204 21.4033 11.2876 21.4033 12.3542C21.4033 13.1352 21.3697 13.4879 21.3109 13.4879C21.2605 13.4879 21.0758 13.404 20.8994 13.3116C20.5803 13.1268 20.3619 12.8077 20.2695 12.371C20.152 11.7831 19.3877 11.9342 19.3877 12.5473C19.3961 13.278 20.0092 14.0086 20.8826 14.3278L21.3865 14.5126L21.4201 15.0585C21.4537 15.6211 21.5881 15.8395 21.9072 15.8395C22.2264 15.8395 22.3607 15.6211 22.3943 15.0585L22.4279 14.5126L22.9318 14.3278C23.5281 14.1094 24.0572 13.6643 24.2672 13.194C24.452 12.7993 24.4688 12.077 24.3092 11.6991C24.0992 11.1952 23.4105 10.7165 22.7051 10.5821L22.4111 10.5317V9.4063C22.4111 8.67564 22.4447 8.28091 22.4951 8.28091C22.8479 8.28091 23.5029 8.9108 23.5029 9.25513C23.5029 9.49029 23.7717 9.79263 23.99 9.79263C24.2252 9.79263 24.4268 9.51548 24.4268 9.19634C24.4184 8.3733 23.6625 7.62584 22.5287 7.31509C22.4699 7.2983 22.4195 7.03794 22.3943 6.7272C22.3607 6.14771 22.2264 5.92935 21.9072 5.92935C21.8316 5.92935 21.6973 5.97974 21.6133 6.04693ZM21.4033 9.28873C21.4033 9.89341 21.3697 10.2965 21.3193 10.2965C21.2773 10.2965 21.0926 10.2378 20.9078 10.1622C20.0932 9.84302 20.11 8.94439 20.933 8.44048C21.3865 8.16334 21.4033 8.18853 21.4033 9.28873ZM23.0494 11.6991C23.5365 11.9174 23.6457 12.5473 23.2846 12.984C23.0662 13.236 22.6799 13.4879 22.4951 13.4879C22.4447 13.4879 22.4111 13.1268 22.4111 12.4717C22.4111 11.3379 22.3775 11.3799 23.0494 11.6991Z" fill="white"/>
<path d="M14.1303 20.6434L13.0973 21.6596L12.6773 21.2733C12.4422 21.0549 12.1986 20.8786 12.123 20.8786C11.9467 20.8786 11.6611 21.1809 11.6611 21.3657C11.6611 21.5672 12.9209 22.8102 13.1225 22.8102C13.2232 22.8102 13.8027 22.2979 14.5334 21.5756C15.6252 20.4838 15.7764 20.3075 15.7764 20.0639C15.7764 19.7868 15.6 19.6188 15.3061 19.6188C15.2305 19.6188 14.693 20.0807 14.1303 20.6434Z" fill="white"/>
<path d="M17.9768 20.845C17.7753 20.9794 17.7417 21.2145 17.876 21.4749C17.96 21.6344 18.128 21.6344 24.9223 21.6344C31.5487 21.6344 31.8846 21.626 32.0106 21.4833C32.1954 21.2733 32.187 21.0801 31.9854 20.8786C31.8174 20.7106 31.7083 20.7106 24.9895 20.7106C18.951 20.7106 18.1448 20.7274 17.9768 20.845Z" fill="white"/>
<path d="M14.122 26.3544L13.089 27.3874L12.669 26.9674C12.2911 26.5979 12.2323 26.5643 12.0224 26.6399C11.888 26.6819 11.7536 26.8163 11.7116 26.9506C11.636 27.169 11.6696 27.2278 12.2911 27.8493C12.669 28.2356 13.0302 28.5211 13.1226 28.5211C13.2233 28.5211 13.786 28.0256 14.5335 27.2866C15.6253 26.1948 15.7765 26.0184 15.7765 25.7749C15.7765 25.4893 15.6001 25.3297 15.2978 25.3297C15.2138 25.3297 14.6847 25.7917 14.122 26.3544Z" fill="white"/>
<path d="M17.9768 26.5559C17.7753 26.6903 17.7417 26.9254 17.876 27.1858C17.96 27.3454 18.128 27.3454 24.9223 27.3454C31.5487 27.3454 31.8846 27.337 32.0106 27.1942C32.1954 26.9842 32.187 26.7911 31.9854 26.5895C31.8174 26.4215 31.7083 26.4215 24.9895 26.4215C18.951 26.4215 18.1448 26.4383 17.9768 26.5559Z" fill="white"/>
<path d="M14.1219 32.0653L13.0889 33.0983L12.6689 32.6784C12.291 32.3088 12.2322 32.2753 12.0223 32.3508C11.8879 32.3928 11.7535 32.5272 11.7031 32.6616C11.6275 32.8883 11.6611 32.9387 12.2994 33.5686C12.6773 33.9297 13.0469 34.2321 13.1309 34.2321C13.2148 34.2321 13.8447 33.6778 14.5334 32.9975C15.6252 31.9057 15.7764 31.7294 15.7764 31.4858C15.7764 31.2003 15.6 31.0407 15.2976 31.0407C15.2137 31.0407 14.6846 31.5026 14.1219 32.0653Z" fill="white"/>
<path d="M17.9768 32.2669C17.7753 32.4012 17.7417 32.6364 17.876 32.8967C17.96 33.0563 18.128 33.0563 24.9223 33.0563C31.5487 33.0563 31.8846 33.0479 32.0106 32.9051C32.1954 32.6952 32.187 32.502 31.9854 32.3004C31.8174 32.1325 31.7083 32.1325 24.9895 32.1325C18.951 32.1325 18.1448 32.1493 17.9768 32.2669Z" fill="white"/>
<path d="M14.1219 37.7762L13.0889 38.8092L12.6689 38.3893C12.291 38.0198 12.2322 37.9862 12.0223 38.0618C11.8879 38.1038 11.7535 38.2381 11.7031 38.3725C11.6275 38.5993 11.6611 38.6497 12.2994 39.2795C12.6773 39.6407 13.0469 39.943 13.1309 39.943C13.2148 39.943 13.8447 39.3887 14.5334 38.7085C15.6 37.6503 15.7764 37.4403 15.7764 37.2135C15.7764 36.8944 15.642 36.7516 15.3564 36.7516C15.1969 36.7516 14.8945 37.0036 14.1219 37.7762Z" fill="white"/>
<path d="M17.9768 37.9778C17.7585 38.129 17.7333 38.4481 17.9264 38.6329C18.044 38.7504 18.7999 38.7672 24.9643 38.7672C31.5571 38.7672 31.8846 38.7588 32.0106 38.6161C32.1954 38.4061 32.187 38.2129 31.9854 38.0114C31.8175 37.8434 31.7083 37.8434 24.9895 37.8434C18.9511 37.8434 18.1448 37.8602 17.9768 37.9778Z" fill="white"/>
</g>
<defs>
<clipPath id="clip0_31_110">
<rect width="43" height="43" fill="white" transform="translate(0.407227 0.722321)"/>
</clipPath>
</defs>
</svg>
