<svg width="44" height="44" viewBox="0 0 44 44" fill="none" xmlns="http://www.w3.org/2000/svg">
<g clip-path="url(#clip0_31_65)">
<path d="M11.5782 1.0707C10.7887 1.35625 10.2428 1.94414 10.0328 2.73359C9.89007 3.30469 9.87327 11.5268 10.016 11.9467C10.1084 12.207 10.4528 12.459 10.7215 12.459C10.9903 12.459 11.3346 12.207 11.427 11.9467C11.4858 11.7619 11.5194 10.2922 11.5194 7.32754V2.97715L11.7209 2.74199L11.9225 2.50684H26.8045H41.6866L41.9301 2.78398L42.1737 3.05273V18.8838V34.7148H39.2594C36.3619 34.7148 36.3367 34.7148 35.9084 34.9164C35.4045 35.1516 34.9594 35.5715 34.7326 36.025C34.5815 36.3273 34.5731 36.5793 34.5479 39.3508L34.5227 42.3574H30.1555H25.7799L25.5364 42.601C25.2424 42.8949 25.2172 43.2477 25.4692 43.5668L25.6371 43.7852H31.0289H36.4207L39.9229 40.283L43.4334 36.7725V19.4465V2.12051L42.9883 1.67539C42.1989 0.885937 43.7442 0.953125 26.8129 0.953125C14.484 0.961521 11.8385 0.978317 11.5782 1.0707ZM38.9823 39.124L36.0848 42.0215L36.0596 39.4096C36.0428 36.5793 36.0512 36.4869 36.4879 36.3105C36.5887 36.2686 37.8401 36.235 39.2762 36.235L41.8797 36.2266L38.9823 39.124Z" fill="white"/>
<path d="M29.1981 4.93401C26.5274 5.54709 24.4698 7.53752 23.7727 10.1578C23.5292 11.0985 23.5208 12.6606 23.7727 13.5928C24.453 16.1627 26.3763 18.086 28.9462 18.7662C29.8868 19.0182 31.4489 19.0182 32.3895 18.7662C34.9847 18.0776 36.9499 16.0703 37.563 13.5088C37.7141 12.8705 37.7309 12.5682 37.7058 11.6192C37.6722 10.6198 37.6386 10.393 37.395 9.68752C37.0255 8.58733 36.4712 7.69709 35.6565 6.88245C34.8503 6.0678 33.96 5.5219 32.8431 5.14397C32.1292 4.90041 31.936 4.86682 30.8778 4.85002C30.0884 4.82483 29.5341 4.85842 29.1981 4.93401ZM31.8856 6.45413C33.4058 6.77327 34.9091 7.94065 35.6061 9.35999C36.4292 11.0229 36.4124 12.8789 35.5641 14.4998C35.0854 15.4069 34.1028 16.3643 33.1874 16.8178C32.1376 17.3217 31.5833 17.4393 30.4159 17.3973C29.6013 17.3637 29.3409 17.3133 28.7614 17.0949C27.8796 16.7674 27.2833 16.3727 26.6198 15.6588C25.654 14.6426 25.2089 13.6012 25.1417 12.1987C25.0913 11.0733 25.2509 10.2922 25.7296 9.32639C26.4015 7.97424 27.8628 6.83206 29.3661 6.46252C30.0212 6.30295 31.1466 6.30295 31.8856 6.45413Z" fill="white"/>
<path d="M33.4729 9.46073C33.3721 9.51952 32.6582 10.3174 31.894 11.2412C31.1213 12.165 30.4662 12.9293 30.4326 12.9461C30.3906 12.9545 29.9539 12.5514 29.4584 12.0391C28.9629 11.5267 28.459 11.09 28.3414 11.0648C27.8207 10.9305 27.2748 11.5519 27.468 12.0475C27.51 12.1566 28.1231 12.8453 28.8369 13.576C30.0463 14.8189 30.1387 14.9029 30.4326 14.8945C30.6594 14.8945 30.819 14.8273 30.9953 14.6594C31.4069 14.2898 34.4555 10.5861 34.5395 10.3678C34.7914 9.72948 34.0692 9.1164 33.4729 9.46073Z" fill="white"/>
<path d="M10.9399 14.2647C9.4366 14.5922 8.02566 15.7008 7.38738 17.0445C6.72391 18.4555 6.7743 20.152 7.57215 22.873C8.41199 25.7369 8.57996 26.3836 8.77313 27.3242C9.01668 28.4832 9.25184 30.3813 9.25184 31.1119V31.5822L8.55477 31.6242C7.04305 31.725 6.25359 32.5313 6.15281 34.085L6.10242 34.8408L4.38074 34.8828C2.75984 34.9248 2.63387 34.9332 2.24754 35.1348C1.70164 35.4119 1.08016 36.1174 0.845 36.7137C0.68543 37.1252 0.651836 37.4023 0.618242 38.6453C0.567852 40.6105 0.677031 40.8457 1.62605 40.8457H2.11316V41.8283C2.11316 42.7102 2.13836 42.8529 2.30633 43.1385C2.41551 43.3148 2.60867 43.5332 2.75145 43.6172C2.9866 43.7768 3.23016 43.7852 12.1829 43.7852H21.3708L21.6479 43.5752C22.0847 43.2393 22.1434 43.0797 22.1854 41.9375L22.2274 40.8877L22.7565 40.8457C23.2184 40.8121 23.3192 40.7701 23.504 40.5602L23.7139 40.3166L23.6804 38.7125C23.6552 37.1168 23.6552 37.1084 23.3864 36.5457C23.0757 35.8906 22.6222 35.4119 22.0511 35.1264C21.6647 34.9416 21.5388 34.9248 20.0354 34.8996L18.4313 34.8744L18.3893 34.1857C18.3305 33.2955 18.0954 32.7412 17.5663 32.2457C17.0792 31.7922 16.5333 31.6074 15.6514 31.6074H15.03L15.0888 30.8684C15.2483 28.6512 15.5759 26.9463 16.2813 24.5107C17.2555 21.1934 17.4571 20.0932 17.3731 18.7662C17.18 15.726 14.1145 13.5844 10.9399 14.2647ZM13.0983 15.7764C14.3917 16.0871 15.3575 16.9689 15.727 18.1867C16.0294 19.1777 15.8782 20.3955 15.1559 22.873C14.1649 26.2408 13.871 27.8281 13.6526 30.8264L13.5938 31.6074H12.1409H10.6796V31.0783C10.6796 30.4316 10.4696 28.4748 10.2932 27.4082C10.1085 26.266 9.74734 24.8131 9.26023 23.167C8.15164 19.4297 8.21043 17.8928 9.52899 16.6834C10.478 15.81 11.805 15.474 13.0983 15.7764ZM16.6005 33.4215C16.7432 33.5811 16.8104 33.7742 16.8524 34.1689C16.886 34.4629 16.886 34.74 16.8524 34.7904C16.8188 34.8576 16.021 34.8828 14.3665 34.8828H11.9309L11.7294 35.0928C11.4102 35.4035 11.4354 35.8906 11.7798 36.1762L12.0401 36.3945H16.6341H21.2364L21.5136 36.5793C21.9923 36.9068 22.135 37.31 22.1686 38.385L22.2022 39.334H12.1997H2.19715V38.3514C2.19715 37.4611 2.21395 37.3436 2.40711 37.0244C2.76824 36.3945 2.77664 36.3945 6.31238 36.3945H9.4366L9.68016 36.151C9.9993 35.8318 10.0161 35.3867 9.71375 35.0928C9.52059 34.8912 9.4534 34.8828 8.57156 34.8828H7.63934L7.67293 34.2613C7.69813 33.7406 7.73172 33.5979 7.89969 33.4215L8.10125 33.2031H12.2501H16.3989L16.6005 33.4215ZM20.6737 41.6016V42.3574H12.1493H3.62488V41.6016V40.8457H12.1493H20.6737V41.6016Z" fill="white"/>
<path d="M24.2852 21.6721C23.966 21.7896 23.7812 22.0668 23.7812 22.4195C23.7812 22.7135 23.8232 22.8143 24.0416 22.9906C24.3859 23.2846 24.7387 23.2762 25.0494 22.9654C25.4441 22.5623 25.3686 21.9912 24.873 21.7393C24.6211 21.6049 24.4951 21.5965 24.2852 21.6721Z" fill="white"/>
<path d="M27.023 21.9576C26.9055 22.1004 26.8047 22.2851 26.8047 22.3775C26.8047 22.6547 27.0398 23.0158 27.2834 23.1166C27.4598 23.1838 29.0051 23.209 33.0867 23.1922L38.6633 23.167L38.8648 22.9318C39.1336 22.6127 39.1336 22.176 38.8564 21.9072L38.6549 21.6972H32.9439H27.2414L27.023 21.9576Z" fill="white"/>
<path d="M19.4055 25.7201C18.9688 26.1569 19.12 26.7951 19.6994 26.9883C20.4805 27.2403 21.0432 26.224 20.4133 25.6949C20.069 25.401 19.7162 25.4094 19.4055 25.7201Z" fill="white"/>
<path d="M22.5297 25.6949C22.1854 25.9805 22.1602 26.4676 22.4793 26.7783L22.6809 26.9883H30.6678H38.6547L38.8563 26.7783C39.1754 26.4676 39.1502 25.9805 38.8059 25.6949L38.5455 25.4766H30.6678H22.79L22.5297 25.6949Z" fill="white"/>
<path d="M23.9912 29.5498C23.6973 29.8354 23.6973 30.3561 23.9912 30.6416C24.302 30.9608 24.7891 30.9356 25.0746 30.5912C25.3686 30.2469 25.3686 29.8522 25.0746 29.5582C24.7723 29.2643 24.2768 29.2559 23.9912 29.5498Z" fill="white"/>
<path d="M27.0818 29.5414C26.8971 29.701 26.8467 29.8102 26.8467 30.0957C26.8467 30.3812 26.8971 30.4904 27.0818 30.65L27.317 30.8516H32.902C38.6465 30.8516 38.7053 30.8516 38.9572 30.524C39.142 30.2889 39.0916 29.7766 38.8564 29.5498L38.6549 29.3398H32.9859H27.317L27.0818 29.5414Z" fill="white"/>
</g>
<defs>
<clipPath id="clip0_31_65">
<rect width="43" height="43" fill="white" transform="translate(0.433594 0.785156)"/>
</clipPath>
</defs>
</svg>
