<svg width="44" height="43" viewBox="0 0 44 43" fill="none" xmlns="http://www.w3.org/2000/svg">
<path d="M21.1873 7.21372C21.0404 7.3606 21.034 7.39892 20.9893 9.13601C20.9446 10.8412 20.9446 10.9178 21.0659 11.0838C21.2448 11.3138 21.4747 11.384 21.7237 11.2818C22.0686 11.1349 22.0878 11.0328 22.1133 9.12962L22.1389 7.39892L21.9856 7.23288C21.7748 7.00935 21.398 7.00297 21.1873 7.21372Z" fill="white"/>
<path d="M14.2454 9.04022C14.124 9.16795 14.0602 9.29567 14.0602 9.4234C14.0602 9.55113 14.3348 10.1131 14.9032 11.1286C15.6376 12.4505 15.7653 12.6485 15.9569 12.7251C16.3401 12.8912 16.7424 12.623 16.7424 12.2015C16.7424 11.9971 15.2608 9.28929 15.0117 9.02745C14.7755 8.79115 14.4945 8.79754 14.2454 9.04022Z" fill="white"/>
<path d="M28.2825 9.03384C28.0271 9.1935 26.3666 12.0099 26.3602 12.2845C26.3602 12.706 26.8967 12.9806 27.2352 12.7252C27.4204 12.5847 29.1319 9.69163 29.1319 9.51282C29.1319 9.27652 29.017 9.11048 28.7807 9.00829C28.506 8.89334 28.4997 8.89334 28.2825 9.03384Z" fill="white"/>
<path d="M20.702 13.0445C17.4705 13.4532 14.8968 15.3499 13.7025 18.1919C12.9362 20.0056 12.8467 22.1897 13.4598 24.0992C13.6961 24.8401 14.2581 25.9321 14.7243 26.5516C17.7642 30.5878 23.7163 31.0859 27.3821 27.6181C28.6466 26.4175 29.5407 24.789 29.86 23.0966C30.4986 19.731 29.1128 16.3654 26.3092 14.475C24.9425 13.5554 23.4417 13.0828 21.7557 13.0381C21.3023 13.0253 20.8233 13.0317 20.702 13.0445ZM22.7839 14.3153C23.9143 14.5133 24.9936 14.9731 25.8813 15.6309C26.4241 16.0333 27.3055 16.9529 27.6503 17.4766C29.2533 19.9162 29.2022 23.2626 27.5162 25.7405C27.1777 26.2387 26.4625 26.9923 25.9452 27.3818C25.4279 27.7714 24.3039 28.3462 23.7227 28.5186C21.8898 29.0614 20.0059 28.9209 18.3518 28.1163C17.5854 27.7395 17.0937 27.401 16.5061 26.8454C14.9287 25.3446 14.1049 23.3201 14.207 21.1871C14.2965 19.3542 14.9606 17.8151 16.2507 16.4739C17.6812 14.9859 19.4119 14.2387 21.4747 14.2259C21.8898 14.2195 22.471 14.2643 22.7839 14.3153Z" fill="white"/>
<path d="M20.5295 15.6565C18.8627 15.9566 17.4641 16.8763 16.5445 18.2685C15.8675 19.2967 15.5801 20.2802 15.5737 21.5638C15.5737 23.0646 16.0335 24.3036 17.0554 25.517C18.0452 26.6921 19.7696 27.5032 21.2767 27.5032C21.7557 27.5032 21.7813 27.4968 21.9409 27.3052L22.107 27.1072V21.5958C22.107 17.451 22.0878 16.0333 22.0303 15.9119C21.8707 15.5607 21.4428 15.4904 20.5295 15.6565ZM20.9574 21.5V26.3536L20.7531 26.3153C20.4082 26.2578 19.7312 26.0279 19.3928 25.8555C17.1512 24.7379 16.1293 22.145 16.9979 19.7693C17.5343 18.3004 18.9202 17.0742 20.421 16.7485C20.6637 16.6974 20.8808 16.6527 20.9127 16.6527C20.9383 16.6464 20.9574 18.8305 20.9574 21.5Z" fill="white"/>
<path d="M9.17458 14.1174C9.09156 14.2004 9.00215 14.3409 8.98299 14.4303C8.89358 14.7688 9.06601 14.9157 10.5285 15.7651C12.1634 16.7166 12.2273 16.7422 12.4763 16.64C12.6679 16.5633 12.8467 16.2951 12.8467 16.0844C12.8467 15.8353 12.5593 15.6182 11.1607 14.8007C9.60885 13.8939 9.44919 13.8428 9.17458 14.1174Z" fill="white"/>
<path d="M32.0058 14.8326C31.2139 15.2733 30.5114 15.6884 30.4412 15.7587C30.1346 16.0524 30.3901 16.7102 30.8116 16.7102C31.0032 16.7102 33.8387 15.2094 34.0814 14.9795C34.2794 14.7879 34.2538 14.3728 34.0303 14.1812C33.7174 13.913 33.5641 13.9641 32.0058 14.8326Z" fill="white"/>
<path d="M7.48222 20.9061C7.02241 21.0657 6.95854 21.7044 7.38643 21.9279C7.57163 22.0237 10.784 22.1067 11.0075 22.0173C11.2757 21.9151 11.4098 21.666 11.3396 21.3914C11.231 20.9572 11.1672 20.938 9.2704 20.9061C8.338 20.8933 7.53332 20.8933 7.48222 20.9061Z" fill="white"/>
<path d="M31.8781 21.104C31.7759 21.2126 31.6865 21.3595 31.6865 21.4361C31.6865 21.6533 31.859 21.9215 32.0505 21.9981C32.1591 22.0428 32.9127 22.0748 33.9345 22.0875L35.6333 22.1067L35.7993 21.9534C36.0739 21.698 36.0101 21.2445 35.678 21.0721C35.6077 21.0338 34.8095 20.9827 33.8132 20.9572L32.0761 20.9061L31.8781 21.104Z" fill="white"/>
<path d="M10.6115 27.0881C9.81961 27.5287 9.11073 27.963 9.02771 28.0524C8.95107 28.1418 8.88721 28.2951 8.88721 28.4036C8.88721 28.6655 9.19375 28.972 9.45559 28.972C9.58332 28.972 10.1453 28.6974 11.1607 28.129C12.4827 27.3946 12.6807 27.2669 12.7573 27.0753C12.9234 26.6857 12.6552 26.2898 12.2273 26.2898C12.1187 26.2898 11.4801 26.6091 10.6115 27.0881Z" fill="white"/>
<path d="M30.5434 26.3792C30.2241 26.558 30.1347 26.9348 30.3454 27.203C30.5306 27.4393 33.2959 29.0359 33.5194 29.0359C33.7685 29.0359 33.9601 28.889 34.0495 28.6272C34.1709 28.2568 34.0367 28.1099 33.1107 27.5734C31.2076 26.4686 30.8883 26.2898 30.7989 26.2898C30.7414 26.2961 30.6264 26.3345 30.5434 26.3792Z" fill="white"/>
<path d="M15.8355 30.2748C15.7717 30.3196 15.331 31.0029 14.8584 31.7884C13.9516 33.2892 13.8749 33.4936 14.0921 33.8065C14.239 34.0172 14.5838 34.1067 14.8073 33.9981C15.05 33.8704 16.6977 31.0157 16.6977 30.7155C16.7105 30.294 16.1676 30.0194 15.8355 30.2748Z" fill="white"/>
<path d="M26.6604 30.2812C26.4305 30.377 26.3219 30.5431 26.3219 30.7985C26.3219 31.0093 27.8802 33.7873 28.0973 33.9598C28.2825 34.1067 28.4996 34.113 28.7423 33.9853C29.1638 33.7682 29.1191 33.583 28.1612 31.8714C27.4331 30.5558 27.299 30.3515 27.1138 30.2748C26.8647 30.1727 26.9158 30.1663 26.6604 30.2812Z" fill="white"/>
<path d="M21.2703 31.7501C21.1809 31.8012 21.0723 31.9225 21.034 32.0183C20.9893 32.1269 20.9573 32.8805 20.9446 33.9023L20.9254 35.6011L21.0787 35.7671C21.2894 35.9906 21.6662 35.997 21.877 35.7863C22.0239 35.6394 22.0239 35.6011 22.075 33.9278C22.126 32.0566 22.1069 31.9161 21.7812 31.7501C21.5641 31.6351 21.481 31.6351 21.2703 31.7501Z" fill="white"/>
</svg>
